<svg width="108" height="32" viewBox="0 0 108 32" fill="none" xmlns="http://www.w3.org/2000/svg">
<g clip-path="url(#clip0)">
<path fill-rule="evenodd" clip-rule="evenodd" d="M1.30775 13.9004C1.89652 14.0169 2.27913 14.5883 2.16294 15.1767C2.04662 15.765 1.47489 16.1481 0.886617 16.0315C0.298219 15.9153 -0.084761 15.3439 0.0316448 14.7552C0.147834 14.1669 0.719567 13.7841 1.30775 13.9004ZM9.89411 25.9404C10.072 26.0764 10.3263 26.0424 10.4622 25.8643C10.598 25.6866 10.564 25.4324 10.3864 25.2964C10.2085 25.1606 9.95412 25.1947 9.81827 25.3724C9.68238 25.5502 9.71633 25.8047 9.89411 25.9404ZM18.6358 22.5648C18.8135 22.7008 19.068 22.6668 19.204 22.489C19.3398 22.3113 19.3058 22.0568 19.128 21.9208C18.9502 21.785 18.6957 21.819 18.5597 21.9968C18.4237 22.1746 18.458 22.4291 18.6358 22.5648ZM10.7582 31.7666C10.9363 31.9023 11.1907 31.8683 11.3265 31.6905C11.4622 31.5127 11.4285 31.2583 11.2507 31.1225C11.0729 30.9865 10.8185 31.0205 10.6825 31.1983C10.5464 31.3764 10.5804 31.6305 10.7582 31.7666V31.7666ZM7.46053 30.3249C7.63831 30.4606 7.89276 30.4266 8.02865 30.2488C8.1645 30.071 8.13058 29.8166 7.95268 29.6808C7.7749 29.5448 7.52042 29.5788 7.38469 29.7566C7.24868 29.9347 7.28275 30.1888 7.46053 30.3249V30.3249ZM14.6146 29.1051C14.7924 29.2412 15.0468 29.2069 15.1829 29.0291C15.3186 28.8513 15.2846 28.5969 15.1068 28.4611C14.929 28.3251 14.6746 28.3591 14.5385 28.5372C14.4028 28.715 14.4368 28.9691 14.6146 29.1051ZM15.4457 31.7437C15.6234 31.8794 15.8779 31.8454 16.0139 31.6676C16.1497 31.4898 16.1156 31.2354 15.9379 31.0997C15.7601 30.9636 15.5056 30.9976 15.3699 31.1754C15.2339 31.3532 15.2679 31.6076 15.4457 31.7437V31.7437ZM18.4809 30.3249C18.659 30.4606 18.9131 30.4266 19.0488 30.2488C19.1849 30.071 19.1509 29.8166 18.9731 29.6808C18.7953 29.5448 18.5408 29.5788 18.4051 29.7566C18.2691 29.9347 18.3031 30.1888 18.4809 30.3249V30.3249ZM20.7162 28.4902C20.894 28.6259 21.1485 28.5919 21.2842 28.4141C21.4199 28.2364 21.3859 27.9822 21.2084 27.8462C21.0304 27.7101 20.7759 27.7445 20.6402 27.9222C20.5041 28.1 20.5385 28.3542 20.7162 28.4902V28.4902ZM5.57587 24.3568C5.75377 24.4928 6.0081 24.4588 6.14386 24.281C6.27972 24.1029 6.2458 23.8488 6.06802 23.7128C5.89024 23.577 5.63588 23.6107 5.4999 23.7888C5.36402 23.9663 5.39797 24.2207 5.57587 24.3568ZM7.04663 26.24C7.22453 26.3757 7.4789 26.3417 7.61475 26.1639C7.75063 25.9862 7.71656 25.7317 7.53891 25.596C7.36101 25.4599 7.10664 25.4939 6.97079 25.6717C6.83491 25.8495 6.86885 26.104 7.04663 26.24ZM16.9915 27.8635C17.1693 27.9995 17.4238 27.9655 17.5598 27.7877C17.6956 27.6097 17.6615 27.3555 17.4838 27.2195C17.306 27.0834 17.0515 27.1177 16.9158 27.2955C16.7798 27.4733 16.8138 27.7278 16.9915 27.8635V27.8635ZM8.79964 27.8635C8.97755 27.9995 9.23203 27.9655 9.36788 27.7877C9.50365 27.6097 9.4697 27.3555 9.29192 27.2195C9.11414 27.0834 8.85969 27.1177 8.7238 27.2955C8.58783 27.4733 8.62199 27.7278 8.79964 27.8635V27.8635ZM11.264 29.3377C11.4421 29.4737 11.6962 29.4397 11.8323 29.2619C11.968 29.0838 11.934 28.8297 11.7562 28.6936C11.5785 28.5579 11.324 28.5919 11.1883 28.7697C11.0522 28.9475 11.0862 29.2019 11.264 29.3377V29.3377ZM5.07525 28.4902C5.25315 28.6259 5.50751 28.5919 5.64324 28.4141C5.77912 28.2364 5.74518 27.9822 5.5674 27.8462C5.38962 27.7101 5.13529 27.7445 4.99928 27.9222C4.86343 28.1 4.89747 28.3542 5.07525 28.4902ZM18.7446 26.24C18.9224 26.3757 19.1768 26.3417 19.3129 26.1639C19.4486 25.9862 19.4146 25.7317 19.2368 25.596C19.059 25.4599 18.8046 25.4939 18.6688 25.6717C18.5328 25.8495 18.5668 26.104 18.7446 26.24V26.24ZM20.2154 24.3568C20.3934 24.4928 20.6479 24.4588 20.7836 24.281C20.9194 24.1029 20.8857 23.8488 20.7076 23.7128C20.5301 23.577 20.2756 23.6107 20.1396 23.7888C20.0036 23.9663 20.0376 24.2207 20.2154 24.3568V24.3568ZM7.15568 22.5648C7.33346 22.7008 7.58782 22.6668 7.7237 22.489C7.85956 22.3113 7.82548 22.0568 7.64783 21.9208C7.46993 21.785 7.2156 21.819 7.07971 21.9968C6.94386 22.1746 6.97781 22.4291 7.15568 22.5648ZM8.39107 24.3466C8.56897 24.4826 8.82333 24.4486 8.95918 24.2708C9.09507 24.0927 9.06112 23.8386 8.88334 23.7026C8.70544 23.5668 8.45111 23.6008 8.31522 23.7786C8.17925 23.9564 8.21329 24.2108 8.39107 24.3466ZM11.6307 27.208C11.8088 27.3441 12.0629 27.3101 12.199 27.1323C12.3347 26.9542 12.301 26.7 12.1232 26.564C11.9451 26.4283 11.691 26.4623 11.555 26.6401C11.4189 26.8178 11.4529 27.0723 11.6307 27.208V27.208ZM14.1604 27.208C14.3382 27.3441 14.5926 27.3101 14.7287 27.1323C14.8644 26.9542 14.8304 26.7 14.6526 26.564C14.4748 26.4283 14.2204 26.4623 14.0847 26.6401C13.9486 26.8178 13.9826 27.0723 14.1604 27.208V27.208ZM15.8955 25.9079C16.0736 26.0437 16.3277 26.0097 16.4638 25.8319C16.5995 25.6541 16.5655 25.3996 16.3877 25.2636C16.2099 25.1279 15.9555 25.1619 15.8198 25.3397C15.6837 25.5174 15.7177 25.7719 15.8955 25.9079V25.9079ZM17.4003 24.3466C17.5781 24.4826 17.8325 24.4486 17.9682 24.2708C18.104 24.0927 18.0703 23.8386 17.8925 23.7026C17.7147 23.5668 17.4603 23.6008 17.3242 23.7786C17.1882 23.9564 17.2225 24.2108 17.4003 24.3466V24.3466ZM1.27767 16.8632C1.83348 16.8824 2.26874 17.3486 2.24966 17.9048C2.23034 18.4601 1.76416 18.8958 1.20822 18.8763C0.652197 18.8571 0.217276 18.3912 0.236383 17.835C0.255583 17.2791 0.721885 16.844 1.27767 16.8632V16.8632ZM10.757 3.11002C10.5075 3.52587 10.6423 4.06538 11.0584 4.31489C11.4743 4.5644 12.0141 4.42929 12.2633 4.01313C12.5131 3.59729 12.378 3.05777 11.9618 2.80857C11.546 2.55876 11.0062 2.69387 10.757 3.11002V3.11002ZM14.1626 3.11187C13.9131 3.52772 14.0479 4.06724 14.464 4.31675C14.8799 4.56656 15.4194 4.43114 15.6689 4.01499C15.9184 3.59914 15.7836 3.05962 15.3674 2.81011C14.9516 2.56061 14.4118 2.69572 14.1626 3.11187ZM3.68286 25.5446C3.958 25.4126 4.28829 25.5286 4.42031 25.8037C4.5523 26.0792 4.43648 26.4091 4.16125 26.5414C3.88612 26.6731 3.55594 26.5575 3.4238 26.2823C3.29169 26.0072 3.40788 25.6767 3.68286 25.5446ZM11.0046 2.11539C11.5472 2.11539 11.9869 1.67543 11.9869 1.13282C11.9869 0.590209 11.5472 0.150257 11.0046 0.150257C10.4619 0.150257 10.022 0.590209 10.022 1.13282C10.022 1.67543 10.4619 2.11539 11.0046 2.11539V2.11539ZM15.6918 2.13827C16.2344 2.13827 16.6743 1.69831 16.6743 1.1557C16.6743 0.613397 16.2344 0.173135 15.6918 0.173135C15.1492 0.173135 14.7092 0.613397 14.7092 1.1557C14.7092 1.69831 15.1492 2.13827 15.6918 2.13827ZM18.727 3.55709C19.2696 3.55709 19.7095 3.11713 19.7095 2.57452C19.7095 2.03191 19.2696 1.59226 18.727 1.59226C18.1844 1.59226 17.7444 2.03191 17.7444 2.57452C17.7444 3.11713 18.1844 3.55709 18.727 3.55709ZM7.70667 3.55709C8.24918 3.55709 8.68927 3.11713 8.68927 2.57452C8.68927 2.03191 8.24918 1.59226 7.70667 1.59226C7.16403 1.59226 6.72403 2.03191 6.72403 2.57452C6.72403 3.11713 7.16403 3.55709 7.70667 3.55709ZM19.7825 20.3344C19.5568 20.3 19.3459 20.4553 19.3116 20.681C19.2773 20.907 19.4325 21.1175 19.6585 21.1518C19.8842 21.1865 20.0951 21.0313 20.1294 20.8052C20.1634 20.5795 20.0082 20.3687 19.7825 20.3344ZM20.2534 18.1395C19.9519 18.1426 19.7102 18.3893 19.7133 18.6905C19.716 18.9919 19.9628 19.2337 20.2639 19.2309C20.5653 19.2278 20.8071 18.9808 20.804 18.68C20.8013 18.3785 20.5545 18.1364 20.2534 18.1395ZM20.3415 15.9246C19.9637 15.9898 19.7099 16.3487 19.7751 16.7269C19.84 17.1047 20.1996 17.3582 20.5774 17.293C20.9552 17.2281 21.2087 16.8688 21.1435 16.491C21.0786 16.1131 20.7193 15.8596 20.3415 15.9246V15.9246ZM13.6162 5.32281C13.4131 5.75937 13.602 6.27786 14.0383 6.4813C14.4745 6.68474 14.9933 6.49584 15.1968 6.05958C15.3999 5.62302 15.211 5.10453 14.7751 4.90109C14.3385 4.69796 13.8197 4.88656 13.6162 5.32281ZM15.4206 6.50171C15.6911 6.10349 16.2334 6.00022 16.6317 6.27045C17.0296 6.54098 17.1332 7.08358 16.8626 7.4815C16.5918 7.87972 16.0498 7.98329 15.6516 7.71276C15.2537 7.44192 15.1501 6.89962 15.4206 6.50171ZM17.0132 7.95361C16.6824 8.30329 16.6975 8.85518 17.0475 9.186C17.3969 9.51652 17.9488 9.50136 18.2796 9.15168C18.6104 8.802 18.595 8.25011 18.2453 7.9196C17.8956 7.58878 17.3437 7.60424 17.0132 7.95361ZM18.3526 9.64204C18.735 9.34956 19.2823 9.42283 19.5744 9.80528C19.8666 10.1877 19.7936 10.7347 19.4112 11.0272C19.0287 11.3193 18.4815 11.2464 18.1893 10.8639C17.8968 10.4815 17.9701 9.93422 18.3526 9.64204ZM19.3543 11.6032C18.9585 11.8153 18.8095 12.3078 19.0216 12.7032C19.2334 13.0987 19.7262 13.2477 20.1217 13.0356C20.5174 12.8238 20.6661 12.3313 20.4544 11.9358C20.2423 11.5401 19.7494 11.3914 19.3543 11.6032V11.6032ZM20.024 13.7164C19.6304 13.8518 19.4214 14.2807 19.5565 14.6739C19.6919 15.0675 20.1204 15.2768 20.514 15.1414C20.9076 15.006 21.1166 14.5771 20.9815 14.1836C20.8464 13.7903 20.4176 13.581 20.024 13.7164V13.7164ZM21.4564 21.7009C21.2131 21.6376 20.9639 21.7835 20.9005 22.0271C20.8371 22.2708 20.9834 22.5193 21.2267 22.5827C21.4703 22.6461 21.7192 22.4999 21.7826 22.2565C21.846 22.0132 21.7 21.7643 21.4564 21.7009ZM22.2232 19.349C21.8927 19.3178 21.5992 19.5605 21.568 19.891C21.5371 20.2215 21.7798 20.5152 22.1103 20.5462C22.4408 20.5771 22.7342 20.3344 22.7655 20.0039C22.7964 19.6733 22.5537 19.3799 22.2232 19.349V19.349ZM22.5732 16.9309C22.1514 16.9591 21.8324 17.3239 21.8605 17.7456C21.8886 18.167 22.2535 18.4861 22.6752 18.458C23.0966 18.4298 23.4157 18.0653 23.3875 17.6436C23.3594 17.2222 22.9946 16.9028 22.5732 16.9309V16.9309ZM16.414 4.54182C16.141 4.99662 16.2888 5.58685 16.7436 5.85955C17.1984 6.13255 17.7886 5.98477 18.0616 5.52966C18.3343 5.07485 18.1865 4.48463 17.7317 4.21193C17.2769 3.93924 16.6867 4.08671 16.414 4.54182V4.54182ZM18.2564 6.0398C18.5987 5.63478 19.205 5.58314 19.6103 5.92509C20.0156 6.26735 20.0673 6.87365 19.725 7.27898C19.3827 7.68432 18.7764 7.73595 18.3714 7.39369C17.9658 7.05143 17.9141 6.44544 18.2564 6.0398ZM19.8357 7.81355C19.4331 8.15922 19.3874 8.76583 19.7327 9.16838C20.0781 9.57062 20.6847 9.61699 21.0876 9.27164C21.4898 8.92598 21.5359 8.31968 21.1905 7.91713C20.8452 7.51458 20.2385 7.4682 19.8357 7.81355V7.81355ZM21.1111 9.81734C21.564 9.54063 22.1551 9.68347 22.4319 10.1358C22.7086 10.5884 22.566 11.1799 22.1134 11.4566C21.6608 11.7333 21.0693 11.5905 20.7926 11.1378C20.5159 10.6852 20.6584 10.0941 21.1111 9.81734ZM21.9848 12.0818C21.5272 12.2688 21.3077 12.7916 21.4947 13.2492C21.6818 13.7071 22.2049 13.9266 22.6622 13.7393C23.1201 13.5525 23.3396 13.0294 23.1526 12.5718C22.9655 12.1142 22.4427 11.8944 21.9848 12.0818ZM22.4776 14.4742C22.0309 14.5775 21.7523 15.0236 21.8556 15.4704C21.9591 15.9171 22.405 16.1954 22.8517 16.0921C23.2985 15.9889 23.5771 15.5427 23.4735 15.0963C23.3705 14.6495 22.9241 14.3709 22.4776 14.4742ZM22.5212 25.4479C22.246 25.3155 21.9158 25.4318 21.7838 25.707C21.6518 25.9821 21.7677 26.3123 22.0429 26.4444C22.3181 26.5764 22.6483 26.4607 22.7803 26.1853C22.9123 25.9101 22.7964 25.5799 22.5212 25.4479ZM23.5699 22.6071C23.1835 22.4934 22.7778 22.7141 22.6641 23.1003C22.55 23.4864 22.771 23.8921 23.1572 24.0062C23.5437 24.12 23.9493 23.8992 24.0631 23.513C24.1772 23.1266 23.9561 22.7212 23.5699 22.6071ZM24.5485 19.81C24.0402 19.7457 23.5755 20.1059 23.5109 20.6142C23.4466 21.1228 23.8065 21.5872 24.3148 21.6518C24.8234 21.7161 25.2881 21.3562 25.3524 20.8476C25.4167 20.3396 25.0571 19.8746 24.5485 19.81ZM20.0963 3.62944C19.6656 4.10774 19.7043 4.84482 20.1826 5.2752C20.6609 5.70558 21.3973 5.66724 21.828 5.18894C22.2587 4.71095 22.2201 3.97387 21.7418 3.54349C21.2638 3.11281 20.5267 3.15145 20.0963 3.62944V3.62944ZM21.9415 5.84161C22.4433 5.43844 23.177 5.51821 23.5798 6.0197C23.983 6.52119 23.9032 7.25456 23.4021 7.65773C22.9003 8.0609 22.1666 7.98113 21.7634 7.47964C21.3606 6.97815 21.4403 6.24447 21.9415 5.84161ZM23.4095 8.3203C22.8499 8.63783 22.6539 9.34925 22.9717 9.90855C23.2892 10.4685 24.0006 10.6642 24.5602 10.347C25.1199 10.0291 25.3159 9.31771 24.9984 8.7581C24.6805 8.19817 23.9691 8.00216 23.4095 8.3203ZM24.4619 11.0018C23.8587 11.226 23.5514 11.8969 23.7756 12.4998C23.9994 13.103 24.6706 13.41 25.2738 13.1862C25.8767 12.962 26.1841 12.2911 25.9599 11.6882C25.7357 11.085 25.0651 10.7777 24.4619 11.0018ZM24.9758 13.9004C24.3871 14.0169 24.0043 14.5883 24.1206 15.1767C24.2368 15.765 24.8085 16.1481 25.3969 16.0315C25.9853 15.9153 26.3683 15.3439 26.2518 14.7552C26.1355 14.1669 25.5638 13.7841 24.9758 13.9004ZM25.0058 16.8632C24.4499 16.8824 24.0149 17.3486 24.0337 17.9048C24.0532 18.4601 24.5194 18.8958 25.0753 18.8763C25.6312 18.8571 26.0663 18.3912 26.0471 17.835C26.0279 17.2791 25.5614 16.844 25.0058 16.8632V16.8632ZM6.50087 20.3344C6.7266 20.3 6.93746 20.4553 6.97162 20.681C7.00594 20.907 6.85086 21.1175 6.625 21.1518C6.39918 21.1865 6.18829 21.0313 6.15413 20.8052C6.11993 20.5795 6.27502 20.3687 6.50087 20.3344ZM6.03008 18.1395C6.33166 18.1426 6.57331 18.3893 6.57031 18.6905C6.56741 18.9919 6.32068 19.2337 6.01935 19.2309C5.718 19.2278 5.47634 18.9808 5.47925 18.68C5.48225 18.3785 5.729 18.1364 6.03008 18.1395V18.1395ZM5.94194 15.9246C6.31982 15.9898 6.57356 16.3487 6.50848 16.7269C6.44336 17.1047 6.08394 17.3582 5.70619 17.293C5.3284 17.2281 5.07491 16.8688 5.13999 16.491C5.20498 16.1131 5.56415 15.8596 5.94194 15.9246V15.9246ZM12.6671 5.32281C12.8702 5.75937 12.6816 6.27786 12.245 6.4813C11.8091 6.68474 11.2903 6.49584 11.0869 6.05958C10.8837 5.62302 11.0723 5.10453 11.5086 4.90109C11.9448 4.69796 12.4636 4.88656 12.6671 5.32281ZM10.8627 6.50171C10.5925 6.10349 10.0501 6.00022 9.65196 6.27045C9.25377 6.54098 9.15038 7.08358 9.42103 7.4815C9.69156 7.87972 10.2338 7.98329 10.6317 7.71276C11.03 7.44192 11.1332 6.89962 10.8627 6.50171ZM9.27056 7.95361C9.60122 8.30329 9.58589 8.85518 9.23611 9.186C8.88649 9.51652 8.33467 9.50136 8.00401 9.15168C7.67321 8.802 7.68855 8.25011 8.03817 7.9196C8.38794 7.58878 8.93976 7.60424 9.27056 7.95361ZM7.93095 9.64204C7.54834 9.34956 7.00109 9.42283 6.70895 9.80528C6.41693 10.1877 6.48986 10.7347 6.87222 11.0272C7.25474 11.3193 7.80196 11.2464 8.09422 10.8639C8.38661 10.4815 8.31343 9.93422 7.93095 9.64204ZM6.92911 11.6032C7.32477 11.8153 7.47379 12.3078 7.26185 12.7032C7.04991 13.0987 6.55739 13.2477 6.16173 13.0356C5.7662 12.8238 5.61742 12.3313 5.82924 11.9358C6.04131 11.5401 6.53395 11.3914 6.92911 11.6032V11.6032ZM6.25956 13.7164C6.65305 13.8518 6.86208 14.2807 6.72707 14.6739C6.59168 15.0675 6.16294 15.2768 5.76945 15.1414C5.37586 15.006 5.16667 14.5771 5.30206 14.1836C5.4372 13.7903 5.86597 13.581 6.25956 13.7164V13.7164ZM4.82694 21.7009C5.07055 21.6376 5.31959 21.7835 5.38288 22.0271C5.44626 22.2708 5.30027 22.5193 5.05667 22.5827C4.81306 22.6461 4.56427 22.4999 4.50085 22.2565C4.43756 22.0132 4.58359 21.7643 4.82694 21.7009ZM4.06027 19.349C4.39085 19.3178 4.6842 19.5605 4.71536 19.891C4.74653 20.2215 4.50364 20.5152 4.17322 20.5462C3.84264 20.5771 3.54917 20.3344 3.51813 20.0039C3.48696 19.6733 3.72985 19.3799 4.06027 19.349V19.349ZM3.71041 16.9309C4.13213 16.9591 4.45098 17.3239 4.4231 17.7456C4.39484 18.167 4.0301 18.4861 3.60835 18.458C3.18684 18.4298 2.8679 18.0653 2.89591 17.6436C2.92417 17.2222 3.28878 16.9028 3.71041 16.9309V16.9309ZM9.86959 4.54182C10.1425 4.99662 9.99484 5.58685 9.54001 5.85955C9.08517 6.13255 8.49483 5.98477 8.22201 5.52966C7.94916 5.07485 8.09688 4.48463 8.55171 4.21193C9.00667 3.93924 9.59686 4.08671 9.86959 4.54182ZM8.02694 6.0398C7.68468 5.63478 7.07863 5.58314 6.67321 5.92509C6.26778 6.26735 6.21633 6.87365 6.55859 7.27898C6.90073 7.68432 7.50691 7.73595 7.91221 7.39369C8.31763 7.05143 8.36933 6.44544 8.02694 6.0398ZM6.44772 7.81355C6.85027 8.15922 6.89628 8.76583 6.55087 9.16838C6.20557 9.57062 5.59856 9.61699 5.19604 9.27164C4.79362 8.92598 4.74749 8.31968 5.09302 7.91713C5.43832 7.51458 6.04508 7.4682 6.44772 7.81355V7.81355ZM5.17236 9.81734C4.71969 9.54063 4.12826 9.68347 3.85158 10.1358C3.57502 10.5884 3.71752 11.1799 4.17019 11.4566C4.62286 11.7333 5.21416 11.5905 5.49097 11.1378C5.76778 10.6852 5.62503 10.0941 5.17236 9.81734ZM4.29868 12.0818C4.75642 12.2688 4.97588 12.7916 4.78879 13.2492C4.60171 13.7071 4.07864 13.9266 3.62115 13.7393C3.16332 13.5525 2.94374 13.0294 3.13094 12.5718C3.31791 12.1142 3.84107 11.8944 4.29868 12.0818ZM3.80594 14.4742C4.25255 14.5775 4.53119 15.0236 4.42792 15.4704C4.32441 15.9171 3.87851 16.1954 3.43165 16.0921C2.98492 15.9889 2.70654 15.5427 2.81005 15.0963C2.91307 14.6495 3.35918 14.3709 3.80594 14.4742ZM2.71355 22.6071C3.0999 22.4934 3.50545 22.7141 3.61945 23.1003C3.73347 23.4864 3.51244 23.8921 3.12621 24.0062C2.73986 24.12 2.33431 23.8992 2.22041 23.513C2.10642 23.1266 2.32742 22.7212 2.71355 22.6071ZM1.73503 19.81C2.24351 19.7457 2.70799 20.1059 2.77248 20.6142C2.83698 21.1228 2.47706 21.5872 1.96874 21.6518C1.46005 21.7161 0.995539 21.3562 0.931045 20.8476C0.86655 20.3396 1.22647 19.8746 1.73503 19.81ZM6.18696 3.62944C6.61777 4.10774 6.57925 4.84482 6.10098 5.2752C5.62283 5.70558 4.88587 5.66724 4.45534 5.18894C4.02478 4.71095 4.06343 3.97387 4.5417 3.54349C5.0196 3.11281 5.75665 3.15145 6.18696 3.62944V3.62944ZM4.34194 5.84161C3.84023 5.43844 3.10655 5.51821 2.7035 6.0197C2.30037 6.52119 2.38032 7.25456 2.88141 7.65773C3.38311 8.0609 4.11679 7.98113 4.51984 7.47964C4.92298 6.97815 4.84302 6.24447 4.34194 5.84161ZM2.87392 8.3203C3.43348 8.63783 3.62962 9.34925 3.31172 9.90855C2.99423 10.4685 2.28274 10.6642 1.72307 10.347C1.16367 10.0291 0.967529 9.31771 1.28527 8.7581C1.60305 8.19817 2.31437 8.00216 2.87392 8.3203ZM1.82164 11.0018C2.42478 11.226 2.73214 11.8969 2.50773 12.4998C2.28395 13.103 1.61281 13.41 1.00955 13.1862C0.406647 12.962 0.0994164 12.2911 0.323447 11.6882C0.547602 11.085 1.21849 10.7777 1.82164 11.0018Z" fill="#E03440"/>
<path d="M39.194 11.8341H37.8562L34.2419 20.1071H35.7204L36.5654 18.1241H40.4496L41.2825 20.1071H42.808L39.194 11.8341ZM39.9215 16.8447H37.0934L38.5014 13.559L39.9215 16.8447ZM50.8228 11.8929H49.3796V16.6218C49.3796 17.3808 49.1956 17.9515 48.828 18.3349C48.4604 18.7186 47.9558 18.91 47.3143 18.91C46.665 18.91 46.1564 18.7106 45.7888 18.3117C45.4212 17.9126 45.2372 17.3298 45.2372 16.563V11.8929H43.794V16.6218C43.794 17.2163 43.8759 17.7385 44.0404 18.1884C44.2045 18.6382 44.4392 19.0157 44.7444 19.3209C45.0495 19.6257 45.4171 19.8548 45.8475 20.0073C46.2776 20.16 46.7587 20.2361 47.2908 20.2361C47.8306 20.2361 48.3176 20.16 48.7516 20.0073C49.186 19.8548 49.5555 19.6239 49.8607 19.3147C50.1658 19.0058 50.4023 18.6206 50.5705 18.159C50.7387 17.6974 50.8228 17.1616 50.8228 16.5516V11.8929ZM56.2795 13.2307H58.8847V11.8929H52.2194V13.2307H54.8245V20.1071H56.2795V13.2307ZM67.3806 20.1071L65.1629 16.9974C65.4519 16.9192 65.716 16.8076 65.9547 16.6629C66.1933 16.5182 66.3986 16.3423 66.5708 16.1348C66.7427 15.9277 66.8779 15.689 66.9756 15.4191C67.0736 15.1491 67.1221 14.8421 67.1221 14.498C67.1221 14.0989 67.0519 13.7371 66.9113 13.4122C66.7703 13.0875 66.5687 12.8139 66.3068 12.591C66.0446 12.3681 65.724 12.1959 65.3443 12.0747C64.965 11.9535 64.5405 11.8929 64.0711 11.8929H60.4102V20.1071H61.8534V17.2438H63.6606L65.6789 20.1071H67.3806ZM65.6554 14.5799C65.6554 15.0023 65.5029 15.3387 65.1978 15.5891C64.8926 15.8395 64.482 15.9648 63.9657 15.9648H61.8534V13.2069H63.954C64.4938 13.2069 64.9121 13.3225 65.2095 13.5532C65.5067 13.7838 65.6554 14.1264 65.6554 14.5799ZM74.9845 11.8929H68.894V20.1071H75.0433V18.8163H70.3376V16.61H74.4565V15.3192H70.3376V13.1837H74.9845V11.8929ZM79.9716 12.7493H82.7295V11.8929H76.2754V12.7493H79.0329V20.1071H79.9716V12.7493ZM90.4039 11.8929H84.4661V20.1071H90.4623V19.2621H85.393V16.3871H89.8758V15.5424H85.393V12.7375H90.4039V11.8929ZM99.3688 18.8046L98.7588 18.206C98.3677 18.5816 97.9689 18.8729 97.562 19.08C97.1551 19.2875 96.67 19.3911 96.1067 19.3911C95.6531 19.3911 95.2326 19.3033 94.8452 19.127C94.4582 18.9511 94.1218 18.7106 93.8361 18.4054C93.5507 18.1003 93.3278 17.7407 93.1673 17.3258C93.0069 16.9111 92.9268 16.4653 92.9268 15.9883C92.9268 15.5109 93.0069 15.0669 93.1673 14.6563C93.3278 14.2454 93.5507 13.8877 93.8361 13.5825C94.1218 13.2777 94.4582 13.039 94.8452 12.8668C95.2326 12.6946 95.6531 12.6086 96.1067 12.6086C96.67 12.6086 97.153 12.7144 97.5558 12.9255C97.959 13.1367 98.3365 13.4066 98.6883 13.7353L99.3222 13.0545C99.1187 12.8591 98.9075 12.681 98.6883 12.5205C98.4694 12.3603 98.2308 12.2234 97.9726 12.1099C97.7144 11.9964 97.4349 11.9083 97.1335 11.8459C96.8323 11.7834 96.4941 11.7519 96.1184 11.7519C95.5162 11.7519 94.9606 11.8635 94.4523 12.0864C93.9437 12.3093 93.5056 12.6145 93.138 13.0016C92.7703 13.389 92.4828 13.8407 92.2754 14.357C92.0682 14.8734 91.9646 15.4249 91.9646 16.0114C91.9646 16.6063 92.0682 17.1616 92.2754 17.6779C92.4828 18.1942 92.7703 18.6422 93.138 19.0216C93.5056 19.401 93.9397 19.7003 94.4405 19.9195C94.9411 20.1384 95.4886 20.2478 96.0835 20.2478C96.4588 20.2478 96.7989 20.2126 97.1041 20.1424C97.4093 20.0719 97.6949 19.9742 97.9608 19.8487C98.2267 19.7237 98.4753 19.5732 98.706 19.3969C98.9366 19.221 99.1577 19.0235 99.3688 18.8046ZM106.656 16.4106V20.1071H107.583V11.8929H106.656V15.5424H101.916V11.8929H100.988V20.1071H101.916V16.4106H106.656" fill="white"/>
</g>
<defs>
<clipPath id="clip0">
<rect width="107.594" height="32" fill="white"/>
</clipPath>
</defs>
</svg>
 
