<?xml version="1.0" standalone="no"?>
<!DOCTYPE svg PUBLIC "-//W3C//DTD SVG 20010904//EN"
 "http://www.w3.org/TR/2001/REC-SVG-20010904/DTD/svg10.dtd">
<svg version="1.0" xmlns="http://www.w3.org/2000/svg"
 width="800.000000pt" height="571.000000pt" viewBox="0 0 800.000000 571.000000"
 preserveAspectRatio="xMidYMid meet">

<g transform="translate(0.000000,571.000000) scale(0.100000,-0.100000)"
fill="#000000" stroke="none">
<path d="M0 3652 c0 -1846 2 -2065 15 -2079 14 -14 14 -18 0 -39 -22 -34 -22
-264 0 -264 8 0 15 -4 15 -10 0 -5 -4 -10 -9 -10 -6 0 -9 -8 -9 -17 0 -10 -3
-31 -7 -46 -7 -25 -5 -28 11 -25 11 2 29 24 44 55 14 29 31 53 38 53 6 0 12 5
12 10 0 6 6 10 13 10 22 0 36 34 22 53 -7 9 -17 17 -24 17 -25 0 -9 20 17 21
24 0 25 1 7 9 -16 7 -11 9 22 9 51 1 73 9 73 26 0 10 141 105 155 105 9 0 -11
-48 -26 -63 -11 -10 -19 -23 -19 -28 0 -6 -18 -30 -40 -53 -22 -22 -65 -70
-96 -106 -30 -36 -74 -80 -96 -97 -23 -18 -37 -33 -33 -33 4 0 -14 -21 -39
-47 l-46 -46 0 -529 0 -529 283 5 c350 6 259 6 875 0 358 -3 522 -2 522 6 0 5
-4 10 -9 10 -16 0 -33 58 -26 89 8 40 30 61 60 61 27 0 48 30 39 54 -3 9 -31
27 -61 41 -48 23 -60 25 -100 17 -29 -6 -56 -7 -70 -1 -31 12 -36 11 -28 -1 3
-5 0 -10 -8 -10 -22 0 -37 45 -37 109 0 40 5 63 15 71 8 7 15 9 15 4 1 -5 9 1
19 13 21 25 71 26 126 3 17 -7 44 -19 62 -26 17 -8 47 -14 67 -14 l36 0 -18
34 c-9 19 -28 40 -40 46 -23 10 -24 14 -17 72 4 34 11 69 15 78 5 8 11 23 14
33 9 28 51 20 90 -18 20 -19 36 -38 36 -43 0 -5 27 -42 59 -83 33 -41 72 -98
87 -127 31 -62 59 -82 81 -59 25 25 15 188 -16 270 -15 39 -14 40 14 35 35 -7
35 -8 -29 88 -22 32 -53 65 -61 64 -3 0 -8 0 -11 0 -4 0 -1 6 6 14 6 8 17 13
24 10 9 -3 16 9 21 38 4 24 7 47 6 51 -4 19 42 67 64 67 79 0 103 -43 108
-198 4 -111 3 -113 -20 -118 -28 -7 -28 -6 1 -57 13 -23 26 -64 30 -92 3 -27
13 -56 20 -64 13 -12 19 -10 48 12 18 15 44 35 56 44 44 33 62 57 74 95 7 25
23 45 49 63 21 14 42 25 45 25 4 0 19 13 33 28 14 16 37 36 51 45 15 11 19 17
10 17 -13 0 -13 2 0 10 20 13 93 13 85 0 -3 -5 1 -10 9 -10 9 0 16 -4 16 -9 0
-18 96 -70 111 -60 25 16 33 9 14 -11 -15 -16 -15 -20 -3 -15 9 4 18 0 22 -10
4 -12 10 -14 25 -5 11 5 23 10 28 10 4 -1 -5 -8 -22 -17 l-30 -17 25 -6 c17
-4 21 -8 12 -14 -7 -4 -9 -13 -5 -19 4 -7 -2 -5 -12 3 -17 14 -18 14 -6 -7 15
-29 22 -29 49 0 22 24 30 43 13 32 -5 -3 -12 -1 -16 5 -3 5 1 10 10 10 9 0 13
4 10 10 -4 6 1 7 11 3 13 -5 16 -3 11 9 -3 10 3 24 14 34 19 17 20 17 13 -2
-7 -19 -7 -19 15 1 16 14 22 15 19 5 -2 -8 -11 -18 -22 -23 -10 -4 -16 -13
-12 -22 3 -8 1 -17 -4 -20 -6 -4 -10 -10 -10 -15 0 -5 21 -2 48 8 38 14 49 24
59 52 11 31 12 32 14 10 1 -14 1 -28 0 -32 -2 -12 7 -10 44 14 23 15 35 30 34
43 -2 36 1 45 16 45 8 0 15 4 15 9 0 9 -45 5 -62 -5 -12 -8 -10 -34 4 -34 7 0
6 -5 -4 -12 -9 -7 -18 -20 -22 -28 -3 -8 -4 -3 -2 13 4 32 -10 35 -55 12 -26
-14 -30 -14 -35 0 -3 8 -11 12 -17 8 -6 -4 -8 0 -4 10 10 26 -6 20 -41 -14
-20 -20 -30 -25 -26 -14 6 14 4 16 -6 10 -9 -5 -11 -4 -6 4 4 6 12 9 17 5 6
-3 5 4 -3 16 -11 18 -11 23 4 34 10 7 14 17 10 22 -4 4 1 2 10 -5 10 -7 16
-17 13 -21 -3 -5 3 -6 13 -3 10 2 24 13 31 25 7 11 8 17 2 13 -20 -12 -33 6
-17 24 14 15 13 17 -4 17 -10 0 -16 -4 -14 -8 3 -4 0 -9 -5 -9 -20 -3 -26 -4
-37 -12 -8 -4 -11 3 -10 22 0 19 5 27 13 24 7 -3 10 -9 7 -14 -11 -19 14 -8
36 16 28 29 19 46 -10 20 -11 -10 -20 -13 -20 -7 0 7 4 12 8 12 4 0 16 13 25
30 12 20 14 30 6 30 -8 0 -8 4 1 15 7 9 8 15 2 15 -5 0 -8 9 -5 20 5 19 -12
29 -19 12 -1 -5 -15 -12 -30 -16 -21 -5 -26 -3 -22 8 3 8 14 16 24 19 14 4 18
13 16 40 -2 23 2 38 10 41 14 5 15 66 1 66 -5 0 1 15 12 34 27 44 28 65 1 41
-11 -10 -18 -21 -15 -25 2 -4 -2 -7 -10 -7 -10 0 -11 6 -4 24 5 13 6 23 2 23
-3 0 1 8 9 18 25 28 47 81 37 88 -12 7 -30 -5 -28 -19 1 -7 0 -23 -1 -37 -2
-24 -2 -24 -10 4 -6 18 -5 36 1 48 5 10 9 24 7 31 -1 6 6 26 15 44 18 34 21
75 8 108 -7 18 -10 17 -40 -14 -18 -18 -35 -30 -39 -26 -4 4 9 21 28 39 19 18
36 39 38 47 2 8 8 19 14 24 8 7 9 4 4 -9 -5 -16 -4 -17 9 -6 9 7 13 15 10 18
-3 3 0 11 6 19 15 17 -1 16 -25 -2 -32 -24 -44 -17 -13 8 15 12 30 35 33 51 3
16 7 33 10 38 3 4 1 8 -5 8 -5 0 -13 -4 -16 -10 -3 -5 -11 -10 -16 -10 -6 0 3
17 20 37 32 39 43 90 17 80 -12 -5 -12 -2 0 21 8 15 14 36 14 47 0 12 5 26 12
33 9 9 9 12 0 12 -14 0 0 38 31 83 22 33 32 103 12 87 -9 -8 -14 -5 -17 8 -6
21 9 45 35 55 9 3 17 13 17 20 0 8 10 27 22 42 21 27 21 27 0 14 -11 -7 -25
-22 -31 -34 -9 -18 -10 -17 -5 6 3 15 2 29 -4 32 -5 4 -9 1 -9 -6 -1 -21 -53
-103 -53 -83 0 15 -5 17 -32 12 -30 -6 -30 -5 -15 12 29 31 19 70 -10 41 -9
-9 -11 -5 -9 14 2 16 -1 24 -8 21 -12 -5 -15 41 -3 53 4 3 7 13 7 21 0 12 -2
12 -17 1 -15 -12 -16 -12 -8 1 5 8 11 24 12 34 3 19 2 18 -21 -3 -15 -14 -26
-19 -30 -12 -5 7 -14 6 -30 -4 -18 -12 -23 -12 -23 -2 0 8 5 14 11 15 38 4
103 38 93 49 -3 3 1 22 8 44 8 22 10 39 5 39 -14 0 -12 21 6 55 l15 30 -25
-24 c-23 -22 -26 -22 -26 -6 0 10 3 15 6 12 11 -10 58 32 74 66 19 40 15 74
-6 56 -27 -22 -27 0 0 24 14 13 26 29 26 35 0 6 10 14 23 18 21 7 21 7 2 15
-11 4 -14 8 -7 8 7 1 11 5 7 11 -3 5 -13 6 -23 3 -11 -4 -7 5 12 25 17 19 35
28 45 25 12 -4 13 -3 3 5 -8 5 -13 12 -13 16 3 18 0 20 -9 6 -5 -8 -10 -10
-10 -5 1 14 49 65 93 99 19 15 34 33 31 39 -2 7 8 20 23 30 16 10 21 16 12 14
-9 -3 -22 -2 -29 3 -9 6 -4 13 19 24 17 9 31 19 31 22 0 2 -10 0 -21 -7 -12
-6 -37 -12 -55 -13 -25 -1 -30 2 -22 11 6 7 20 13 31 13 16 0 117 55 117 64 0
2 -14 1 -30 -2 -17 -2 -28 -7 -25 -10 8 -8 -47 -42 -68 -42 -10 0 -15 5 -12
10 3 6 2 10 -2 10 -5 0 -13 -8 -19 -17 -14 -21 -81 -59 -90 -50 -10 10 6 27
27 27 10 0 19 5 19 10 0 6 7 10 16 10 9 0 12 5 8 13 -4 6 -4 9 1 5 13 -12 32
34 29 67 -3 21 -1 26 6 15 7 -12 10 -11 16 5 4 11 13 27 21 37 8 9 15 23 17
31 1 8 8 23 16 33 8 10 -5 4 -29 -14 -44 -31 -77 -44 -53 -20 18 18 14 32 -5
17 -14 -12 -16 -12 -11 1 2 8 19 18 36 22 18 5 32 13 32 18 0 5 13 8 30 6 16
-2 29 -1 28 3 -2 23 5 29 30 25 15 -2 47 -6 71 -8 46 -5 69 -16 32 -16 -19 0
-20 -2 -10 -22 10 -20 8 -19 -16 5 -15 15 -31 24 -34 21 -3 -4 0 -9 7 -11 18
-7 15 -23 -5 -23 -10 0 -31 -11 -48 -25 l-30 -24 30 2 c17 1 35 10 41 21 10
16 12 16 17 2 6 -16 -29 -49 -43 -41 -4 3 -13 -2 -20 -10 -7 -8 -9 -15 -5 -15
5 0 0 -8 -9 -19 -16 -17 -16 -19 4 -24 17 -4 19 -3 10 8 -14 17 24 46 49 38
12 -4 13 -3 2 5 -15 11 2 27 18 17 6 -3 8 8 6 25 -2 16 1 30 6 30 6 0 7 -4 4
-10 -3 -5 -1 -10 5 -10 6 0 8 -4 5 -10 -11 -17 1 -11 29 15 15 14 32 25 39 25
7 0 3 -7 -7 -15 -12 -9 -15 -15 -7 -15 11 0 11 -3 0 -18 -12 -15 -12 -16 2 -4
27 20 48 5 45 -33 -3 -26 0 -32 12 -27 11 4 13 2 7 -9 -22 -35 1 -83 25 -54 7
8 17 15 23 15 7 0 7 -4 -1 -12 -7 -7 -12 -20 -12 -31 0 -11 -4 -15 -12 -11 -8
5 -9 2 -5 -10 4 -10 7 -20 7 -24 0 -3 7 3 15 14 9 12 14 14 15 6 0 -7 5 -10
10 -7 6 4 22 0 35 -9 17 -11 23 -12 19 -3 -2 7 3 21 12 32 13 16 15 17 10 3
-3 -10 -1 -20 4 -23 6 -4 10 0 10 7 0 8 13 22 30 31 16 10 30 23 30 29 0 7 9
2 20 -10 25 -27 30 -27 23 -3 -3 11 3 24 14 32 11 8 23 23 27 34 8 20 8 20 15
1 7 -17 8 -18 14 -3 7 19 37 24 37 6 0 -5 -6 -7 -12 -3 -10 5 -10 4 -1 -6 10
-11 15 -11 28 0 13 10 13 15 3 21 -9 5 -6 8 9 7 12 -1 19 -7 16 -15 -5 -11 8
-17 29 -14 4 0 5 -6 1 -15 -5 -13 -2 -15 17 -9 14 4 20 3 16 -3 -9 -15 19 -33
40 -26 14 5 12 2 -6 -14 -24 -21 -19 -27 16 -23 7 1 14 -5 17 -13 4 -9 0 -12
-12 -9 -22 6 -22 -31 -1 -50 11 -9 11 -7 0 7 -14 18 -13 19 3 13 10 -4 21 -7
23 -7 3 0 2 -4 -1 -10 -3 -5 1 -10 9 -10 8 0 17 -4 20 -9 4 -5 -2 -7 -13 -4
-28 7 -33 -11 -8 -32 12 -11 23 -18 25 -17 11 9 20 -1 11 -11 -11 -11 -16 -10
-31 5 -34 34 -39 18 -6 -23 26 -32 30 -42 18 -49 -8 -5 -18 -6 -22 -4 -18 11
-6 -9 20 -33 18 -18 21 -24 9 -20 -13 5 -17 3 -15 -5 3 -7 10 -13 15 -13 6 0
15 -4 20 -9 4 -5 3 -6 -4 -2 -14 8 -24 -6 -15 -20 4 -6 24 -18 45 -28 21 -10
36 -20 34 -23 -3 -2 -15 1 -27 7 -15 8 -25 8 -34 1 -7 -6 -16 -7 -21 -3 -4 4
-5 0 -3 -8 3 -8 11 -14 17 -13 6 2 10 -2 8 -9 -1 -6 9 -18 23 -26 23 -13 24
-13 2 -9 -23 5 -28 -2 -13 -19 9 -9 14 -43 12 -73 -1 -10 -7 -9 -28 4 l-27 18
30 -39 c17 -21 29 -44 27 -51 -2 -6 3 -23 12 -36 8 -13 13 -31 9 -40 -4 -11 2
-20 20 -28 17 -8 26 -20 26 -35 0 -13 7 -27 16 -32 8 -5 17 -25 18 -45 2 -21
-1 -34 -6 -31 -5 3 -7 13 -4 21 3 8 1 11 -4 8 -12 -7 -28 8 -54 47 -10 16 -23
28 -29 28 -5 0 -3 -8 5 -17 23 -27 69 -115 63 -121 -3 -3 -5 0 -5 6 0 14 -26
16 -35 3 -3 -5 0 -13 6 -17 8 -4 9 -3 5 4 -4 7 -3 12 3 12 11 0 26 -39 18 -47
-3 -3 -2 -16 3 -29 6 -15 5 -26 -2 -30 -6 -4 -8 -3 -5 3 4 6 0 19 -9 29 -15
18 -15 18 -9 -2 3 -13 -1 -28 -10 -38 -9 -9 -12 -16 -6 -16 6 0 11 -6 11 -14
0 -8 6 -17 13 -19 9 -4 9 -6 -1 -6 -15 -1 -31 14 -49 47 -15 25 -17 44 -3 22
5 -8 10 -10 10 -4 0 18 -13 24 -27 12 -10 -8 -12 -8 -8 4 4 10 -19 31 -70 66
-75 51 -76 52 -50 17 15 -19 30 -34 33 -33 4 1 17 -1 30 -6 23 -8 30 -40 10
-52 -6 -4 -8 -3 -4 4 3 6 -1 18 -10 27 -12 12 -19 13 -24 5 -5 -8 -15 1 -29
24 -13 20 -25 36 -27 36 -3 0 -2 -5 1 -10 4 -6 11 -25 15 -42 9 -30 7 -29 -42
21 -29 29 -57 62 -63 74 -12 26 -48 37 -39 13 3 -8 9 -14 13 -13 4 1 20 -13
35 -30 15 -18 23 -33 18 -33 -5 0 -15 7 -22 15 -7 8 -18 15 -24 15 -6 0 -5 -4
3 -9 8 -5 10 -14 6 -21 -6 -9 -4 -11 6 -5 12 7 12 6 1 -6 -11 -12 -15 -11 -25
6 -12 20 -13 26 -16 46 0 6 -8 8 -17 5 -8 -3 -12 -2 -9 4 3 5 -4 14 -15 20
-28 15 -26 34 3 20 20 -10 21 -10 4 4 -19 14 -47 12 -47 -5 0 -4 9 -13 19 -18
10 -6 24 -25 30 -42 9 -27 9 -30 -4 -19 -12 10 -15 9 -15 -3 0 -10 -6 -14 -15
-11 -8 4 -15 12 -15 20 0 18 -33 83 -42 84 -4 0 -5 -8 -2 -17 5 -17 5 -17 -6
0 -13 20 -32 23 -25 5 5 -13 13 -78 14 -111 1 -11 7 -17 19 -15 9 2 16 -2 15
-9 -3 -13 66 -68 74 -59 3 3 12 -2 20 -12 13 -16 14 -16 5 2 -10 20 -5 56 8
56 13 0 70 -57 70 -70 0 -9 -5 -9 -17 1 -16 13 -17 12 -4 -4 8 -9 16 -15 19
-12 3 3 15 -3 26 -12 19 -16 19 -16 7 -1 -19 25 -4 43 19 23 17 -16 18 -16 14
2 -5 19 -34 27 -44 12 -3 -4 -10 3 -16 16 -10 20 -8 23 14 22 14 0 19 -2 12
-7 -9 -5 -8 -9 3 -13 8 -3 20 0 26 6 7 7 12 8 11 2 -5 -23 1 -36 13 -32 6 2
22 -5 35 -16 20 -18 22 -19 22 -3 0 9 -5 14 -10 11 -5 -3 -10 -2 -10 4 0 5 6
11 13 14 10 4 10 7 0 18 -7 7 -13 20 -13 28 0 11 4 10 19 -5 19 -19 22 -35 8
-45 -4 -3 3 -16 17 -30 71 -72 96 -84 58 -28 -9 14 -22 24 -29 22 -6 -2 -14 1
-18 6 -4 7 0 8 11 4 11 -4 15 -3 11 4 -5 8 2 8 23 0 17 -6 33 -20 36 -30 3 -9
16 -29 30 -42 25 -25 33 -51 12 -39 -7 3 -1 -5 14 -19 14 -15 29 -37 33 -49 3
-13 11 -41 16 -63 6 -22 16 -51 21 -65 12 -27 20 -98 17 -140 -1 -14 -2 -42
-2 -62 -1 -22 -4 -33 -9 -25 -4 6 -8 8 -8 4 0 -4 7 -19 16 -32 8 -13 14 -33
12 -44 -5 -33 -38 0 -42 43 -2 37 -36 88 -36 55 0 -8 5 -20 11 -26 8 -8 5 -14
-11 -23 l-23 -12 25 -22 c20 -17 24 -28 20 -59 -4 -34 -6 -36 -18 -20 -13 17
-13 17 -14 -4 0 -12 5 -25 11 -28 6 -4 8 -13 5 -21 -7 -17 10 -19 18 -1 4 6 4
1 1 -13 -2 -14 -5 -38 -5 -53 0 -16 -4 -26 -9 -23 -5 4 -14 -6 -19 -21 -10
-26 -10 -25 -10 14 1 23 5 40 10 37 11 -7 10 1 -5 39 -7 18 -12 49 -11 69 1
27 -2 38 -12 38 -8 0 -14 -10 -14 -22 0 -29 -30 -108 -41 -108 -5 0 -6 6 -3
14 3 8 1 23 -6 33 -9 15 -10 9 -6 -27 6 -56 10 -72 18 -86 11 -17 38 -98 38
-114 0 -13 -2 -13 -9 -1 -8 12 -11 9 -16 -12 -10 -37 -25 -34 -24 6 0 26 2 28
9 12 7 -19 8 -18 15 6 4 18 0 39 -14 65 -15 29 -20 34 -21 19 0 -21 -17 -45
-32 -45 -4 0 -5 7 -2 15 5 11 2 13 -10 9 -9 -3 -16 -2 -16 4 0 5 7 12 15 16 8
3 15 11 15 17 0 7 -8 5 -20 -6 -11 -10 -19 -24 -18 -31 2 -7 -6 -20 -17 -29
-13 -10 -16 -18 -9 -21 14 -6 6 -44 -8 -44 -5 0 -6 -5 -2 -12 4 -7 3 -8 -4 -4
-6 4 -9 14 -6 24 3 9 -1 6 -9 -8 -9 -14 -13 -28 -11 -31 5 -9 -25 -112 -37
-123 -5 -6 -9 2 -9 22 0 18 5 32 11 32 13 0 2 60 -13 75 -10 9 -5 -13 10 -54
3 -8 1 -12 -5 -8 -6 4 -16 -13 -23 -41 -7 -26 -21 -58 -30 -72 -9 -14 -24 -45
-35 -70 -10 -25 -29 -56 -43 -70 -23 -24 -23 -22 6 35 16 33 27 66 24 74 -2 8
0 11 5 8 5 -4 9 9 8 29 0 23 3 33 11 30 7 -3 10 2 7 14 -3 10 0 21 6 24 14 9
14 36 0 36 -5 0 -7 -5 -4 -10 3 -6 1 -10 -4 -10 -6 0 -11 7 -11 16 0 12 -9 7
-32 -16 -22 -21 -29 -34 -20 -37 6 -3 12 -12 12 -20 0 -9 -6 -13 -15 -9 -20 7
-19 -4 3 -20 10 -8 12 -13 5 -14 -15 0 -17 -36 -3 -45 5 -3 -2 -22 -16 -43
-19 -27 -33 -37 -54 -38 -27 -2 -29 0 -18 20 7 11 11 24 10 28 -1 4 3 19 8 33
6 15 6 24 1 21 -5 -4 -12 0 -14 6 -3 8 -6 6 -6 -5 -1 -10 -5 -16 -9 -13 -10 6
-62 -72 -62 -92 0 -8 -6 -12 -14 -9 -11 4 -13 1 -9 -10 5 -12 1 -14 -13 -9
-13 4 -23 -1 -32 -14 -10 -16 -10 -20 0 -18 7 2 16 8 20 13 5 6 8 6 8 -1 0 -6
-9 -23 -20 -37 -11 -14 -20 -32 -20 -40 0 -8 -6 -19 -12 -24 -19 -15 -45 -12
-45 4 0 8 6 12 13 9 8 -3 20 8 29 26 19 39 15 44 -13 18 -25 -23 -29 -15 -8
15 7 11 14 32 14 47 0 25 -2 26 -20 13 -11 -7 -25 -12 -32 -11 -6 2 -8 1 -4
-1 4 -2 4 -11 1 -19 -3 -7 -8 -12 -13 -9 -4 2 -6 -7 -4 -21 1 -15 -2 -32 -7
-38 -5 -6 -16 -20 -23 -30 -12 -17 -13 -15 -9 23 6 60 -14 50 -52 -26 -16 -34
-38 -64 -48 -66 -15 -4 -16 -9 -8 -25 5 -10 7 -29 4 -41 -4 -16 -2 -20 10 -15
16 6 31 49 22 64 -6 9 21 8 31 -2 3 -4 -1 -17 -10 -30 -9 -12 -16 -28 -16 -35
0 -16 52 -43 83 -43 12 0 29 -6 36 -13 6 -6 15 -12 19 -13 4 0 20 -6 35 -12
16 -7 32 -12 37 -12 5 0 14 -9 20 -19 5 -11 19 -22 29 -26 19 -6 19 -7 -4 -41
-13 -20 -27 -44 -30 -55 -4 -10 -12 -19 -20 -19 -7 0 -15 -7 -19 -15 -3 -8
-17 -20 -31 -27 -15 -7 -24 -17 -21 -25 3 -8 2 -11 -4 -8 -5 3 -13 -3 -19 -13
-5 -10 -21 -24 -35 -32 -14 -7 -26 -20 -26 -28 0 -29 -39 18 -42 52 -2 24 -8
32 -28 35 -14 1 -28 8 -32 15 -6 8 -11 7 -19 -4 -9 -12 -10 -12 -5 4 4 11 1
23 -5 27 -7 4 -13 20 -15 36 -10 97 -21 109 -71 76 -26 -17 -27 -17 -20 1 6
15 3 17 -12 13 -11 -2 -25 3 -35 14 -12 14 -23 18 -43 13 -23 -6 -25 -5 -20
15 4 17 2 21 -9 17 -16 -6 -19 10 -4 19 6 4 8 15 5 26 -4 11 -2 19 4 19 13 0
10 22 -4 32 -5 4 -15 2 -22 -4 -19 -15 -17 7 2 26 9 8 22 31 31 51 8 20 21 38
29 42 21 7 19 24 -2 20 -93 -18 -153 -56 -153 -97 0 -13 -4 -19 -11 -14 -6 3
-15 1 -19 -6 -4 -7 -13 -10 -19 -6 -7 5 -5 15 7 34 l17 27 -31 -26 c-17 -14
-45 -31 -63 -38 -17 -8 -32 -20 -32 -27 -2 -16 -3 -23 -11 -44 -16 -41 -16
-52 -4 -88 13 -35 12 -45 -7 -103 -17 -50 -29 -71 -57 -90 -34 -25 -56 -73
-75 -161 l-5 -28 231 0 c226 0 231 0 226 20 -3 11 -2 18 2 15 5 -2 8 9 9 26 0
18 10 37 24 49 30 26 61 36 66 21 2 -6 13 -11 25 -12 20 -1 20 -2 -3 -9 -14
-4 -22 -8 -17 -9 4 -1 -4 -22 -18 -48 l-25 -48 232 -3 c127 -1 235 1 240 6 4
4 10 23 12 41 6 50 24 63 69 50 20 -5 37 -14 37 -19 0 -6 5 -10 10 -10 6 0 10
8 10 18 0 9 9 23 20 30 11 7 20 8 20 3 0 -5 16 -15 35 -21 27 -9 33 -15 26
-24 -11 -13 -5 -26 11 -26 5 0 7 4 4 9 -3 5 2 15 11 22 15 12 16 12 10 -3 -4
-12 -2 -18 8 -18 8 0 15 5 15 10 0 6 7 10 15 10 9 0 18 7 21 15 4 8 10 12 15
9 5 -3 9 3 9 13 1 20 -2 23 47 -46 10 -13 17 -28 16 -32 -2 -5 4 -6 12 -3 10
4 15 0 15 -15 l0 -21 1950 0 1950 0 0 2425 c0 1334 -3 2425 -7 2425 -5 0 -59
5 -122 10 -86 7 -118 14 -133 27 -11 10 -22 17 -24 16 -2 -2 -7 -3 -11 -2 -5
0 1 4 12 8 16 6 10 10 -27 15 -40 6 -53 3 -87 -18 -41 -26 -95 -34 -106 -16
-9 14 -55 13 -55 -2 0 -16 -11 -3 -14 16 -1 9 -6 15 -12 14 -5 -2 -8 -7 -6
-12 2 -5 -4 -6 -12 -3 -8 3 -17 3 -20 0 -8 -9 24 -43 41 -43 7 0 13 -4 13 -10
0 -5 -17 -10 -39 -10 -28 0 -42 6 -52 21 -11 15 -27 21 -69 24 -65 3 -104 12
-145 33 -16 8 -39 19 -49 24 -19 10 -46 16 -98 22 -15 1 -33 7 -40 13 -27 21
-201 56 -288 58 -62 1 -117 13 -169 38 -60 28 -84 54 -86 94 -1 18 -10 42 -19
52 -20 22 -21 58 -2 63 13 3 13 8 0 37 l-14 33 -78 -7 c-42 -4 -81 -11 -87
-16 -5 -5 -23 -9 -40 -9 -23 0 -26 -3 -15 -10 13 -8 13 -10 -2 -10 -11 0 -15
-5 -12 -15 4 -9 0 -15 -10 -15 -9 0 -13 -6 -10 -15 4 -10 -4 -18 -23 -26 -15
-6 -35 -15 -43 -20 -55 -33 -61 -34 -80 -9 -17 22 -27 25 -95 27 -42 0 -81 6
-88 11 -19 16 -84 25 -91 13 -5 -7 -14 -6 -29 4 -13 8 -33 16 -45 18 -12 2
-25 6 -28 10 -12 12 -24 8 -24 -9 0 -14 -3 -14 -15 -4 -24 20 -97 22 -118 2
-14 -13 -22 -14 -36 -5 -10 7 -28 9 -40 6 -22 -6 -125 30 -152 54 -8 7 -22 13
-30 13 -8 0 -32 9 -54 20 -22 11 -47 17 -57 14 -10 -3 -30 3 -46 14 -31 22
-86 42 -115 42 -16 0 -17 -3 -7 -15 8 -9 8 -15 2 -15 -6 0 -17 -3 -26 -6 -10
-4 -16 -1 -16 9 0 10 -10 15 -35 15 -19 0 -35 -4 -35 -9 0 -20 -20 -7 -26 16
-6 24 -34 36 -34 15 0 -5 5 -10 10 -10 19 0 10 -18 -12 -24 -27 -6 -34 -4 -30
8 4 11 -17 26 -37 26 -8 0 -11 -7 -8 -20 3 -11 2 -22 -3 -25 -4 -3 -10 3 -12
13 -4 14 -13 17 -47 14 -22 -2 -41 -8 -41 -12 0 -15 -73 -51 -83 -41 -6 6 -2
13 11 20 10 6 21 9 23 8 2 -1 -9 10 -24 26 -32 31 -38 32 -56 15 -10 -11 -16
-9 -31 10 -10 12 -26 22 -37 21 -16 0 -16 -1 2 -9 18 -7 19 -8 3 -15 -21 -8
-24 -25 -5 -25 20 0 38 -45 24 -59 -8 -8 -8 -11 0 -11 16 0 36 28 28 40 -3 6
3 10 14 10 14 0 19 5 15 15 -4 9 0 15 9 15 23 0 27 -25 5 -39 -12 -8 -17 -18
-13 -31 3 -10 0 -22 -6 -26 -8 -5 -9 -3 -4 6 5 8 3 11 -6 8 -8 -3 -13 -15 -12
-26 2 -14 -5 -25 -20 -32 -21 -10 -21 -10 -3 4 29 24 10 38 -27 20 l-32 -15
24 19 24 19 -24 7 c-48 14 -92 18 -85 8 10 -16 -8 -21 -21 -6 -10 10 -10 15 5
23 15 9 15 10 -5 11 -14 0 -23 -6 -23 -14 0 -8 -4 -17 -9 -20 -4 -3 -6 6 -3
19 2 14 11 25 18 25 15 0 19 12 7 23 -5 6 -25 -13 -64 -61 -8 -9 -14 -10 -24
-2 -9 7 -15 6 -24 -3 -6 -8 -9 -17 -6 -21 3 -3 0 -2 -7 3 -8 8 -8 15 3 27 11
14 11 18 1 22 -10 3 -10 7 0 20 11 13 8 12 -20 -2 -18 -9 -30 -22 -26 -27 4
-7 -2 -6 -16 1 -15 8 -20 8 -16 1 4 -6 2 -11 -4 -11 -8 0 -10 9 -5 28 5 22 4
25 -6 15 -20 -20 -29 -16 -29 12 0 16 -6 25 -15 25 -12 0 -13 -4 -5 -19 14
-26 13 -31 -6 -31 -23 0 -44 -25 -44 -52 0 -18 -2 -20 -10 -8 -6 10 -3 25 11
47 15 25 17 32 6 27 -8 -3 -18 -1 -21 5 -4 6 -15 2 -27 -10 -17 -17 -23 -18
-37 -7 -15 12 -16 11 -3 -5 10 -13 11 -21 3 -29 -16 -16 -40 -3 -44 24 -2 13
-6 22 -10 21 -5 -2 -8 -6 -7 -9 0 -4 -5 -11 -13 -16 -10 -7 -10 -11 0 -15 17
-7 15 -26 -3 -19 -9 3 -15 0 -15 -10 0 -8 -5 -12 -10 -9 -6 4 -8 11 -4 16 9
16 -15 37 -37 32 -15 -4 -17 -8 -8 -19 9 -11 8 -14 -5 -14 -9 0 -16 5 -16 10
0 6 -9 10 -20 10 -11 0 -20 -5 -20 -11 0 -8 -4 -8 -12 -1 -8 6 -21 6 -33 1
-18 -9 -18 -9 3 -5 17 3 22 -1 22 -16 0 -17 -2 -18 -15 -8 -13 11 -14 10 -9
-6 7 -18 6 -18 -12 -3 -10 9 -32 20 -49 23 -28 7 -29 7 -13 -11 14 -15 14 -20
2 -30 -17 -17 -24 -16 -24 1 0 23 -26 38 -47 27 -10 -5 -26 -12 -36 -15 -10
-3 -15 -10 -12 -16 9 -14 -7 -12 -29 5 -23 17 -56 4 -56 -23 0 -15 -7 -17 -37
-14 l-38 5 25 -22 c21 -17 23 -22 10 -31 -10 -6 -11 -10 -2 -10 6 0 12 -5 12
-11 0 -8 -5 -8 -15 1 -8 7 -13 16 -10 20 3 5 1 11 -5 15 -5 3 -10 1 -10 -5 0
-6 -4 -8 -10 -5 -5 3 -10 2 -10 -4 0 -6 -15 -7 -37 -4 -24 4 -34 3 -30 -4 10
-16 -18 -24 -32 -10 -9 9 -14 8 -21 -3 -14 -22 -12 -30 7 -30 13 0 14 -3 5
-12 -9 -9 -15 -9 -24 0 -20 20 -38 14 -38 -14 0 -23 -1 -24 -16 -10 -8 9 -20
13 -26 10 -7 -4 -6 -9 2 -14 9 -6 6 -10 -9 -15 -11 -3 -24 -4 -29 -1 -4 2 -14
0 -22 -5 -12 -7 -13 -11 -2 -18 11 -6 10 -10 -3 -15 -24 -9 -25 -8 -25 11 0
15 -2 14 -14 -3 -8 -10 -19 -20 -25 -20 -6 -1 -15 -2 -21 -3 -18 -2 -11 -18
10 -24 25 -6 28 -40 3 -35 -10 2 -17 9 -16 15 1 6 -4 14 -12 17 -8 3 -15 1
-15 -4 0 -6 -10 -10 -22 -11 -13 0 -32 -4 -43 -9 -18 -7 -18 -9 10 -20 20 -8
31 -8 33 -1 2 6 13 11 24 11 17 0 18 -2 4 -15 -17 -17 -40 -19 -65 -6 -10 6
-23 6 -31 1 -12 -7 -12 -10 3 -16 9 -3 17 -12 17 -20 0 -8 8 -14 18 -14 14 0
15 -2 2 -10 -13 -8 -12 -11 5 -24 17 -13 18 -15 3 -16 -9 0 -20 5 -24 11 -3 6
-15 9 -25 6 -17 -5 -17 -3 -2 19 17 26 10 45 -9 26 -7 -7 -21 -12 -32 -12 -17
0 -18 -2 -6 -10 15 -10 11 -16 -25 -35 -6 -3 -5 -7 3 -11 21 -10 13 -26 -10
-19 -23 7 -23 7 -3 -10 19 -16 19 -16 -12 -11 -19 3 -33 1 -33 -4 0 -6 5 -10
10 -10 6 0 10 -7 10 -16 0 -14 -7 -15 -37 -11 -23 4 -33 3 -24 -2 7 -5 10 -14
7 -20 -4 -6 -3 -11 3 -11 19 0 -19 -55 -46 -67 l-28 -12 25 -1 c22 0 20 -3
-20 -30 -45 -30 -70 -38 -70 -21 0 22 -35 20 -68 -6 -20 -15 -30 -29 -24 -31
7 -2 12 -12 12 -23 0 -22 22 -25 39 -6 7 9 7 17 0 24 -7 7 -5 14 4 22 11 9 21
8 42 -3 l27 -14 -23 -13 c-40 -21 -54 -39 -39 -49 10 -6 8 -15 -10 -40 -12
-17 -28 -29 -35 -26 -8 3 -15 -7 -19 -25 -4 -19 -10 -28 -17 -23 -7 4 -10 1
-7 -7 3 -8 11 -13 17 -11 6 1 11 -2 11 -6 0 -5 -17 -8 -37 -6 -49 3 -47 2 -33
19 7 8 9 15 4 16 -5 0 2 5 16 11 l25 10 -22 9 c-27 10 -21 39 8 39 10 0 19 5
19 10 0 15 -11 12 -53 -10 -20 -11 -37 -16 -37 -11 0 6 4 13 10 16 6 3 10 12
9 18 0 9 -2 9 -6 0 -2 -7 -18 -13 -34 -13 -23 0 -27 -3 -22 -17 5 -14 3 -15
-6 -7 -17 15 -54 5 -47 -12 3 -8 -1 -14 -9 -14 -8 0 -15 -5 -15 -11 0 -6 -8
-23 -18 -37 -23 -33 -19 -112 5 -112 8 0 21 -6 29 -14 7 -8 19 -16 26 -19 9
-3 7 -9 -7 -20 -18 -14 -18 -16 -3 -22 9 -4 16 -12 14 -18 -1 -7 -1 -9 1 -4 7
11 41 9 48 -4 5 -6 12 -3 21 10 8 11 26 21 41 23 14 2 28 9 31 16 3 9 -3 11
-22 6 -15 -3 -26 -2 -26 4 0 16 55 33 118 36 65 3 96 -11 86 -37 -5 -13 3 -18
35 -23 49 -8 64 -24 24 -25 -15 0 -22 -3 -15 -6 6 -2 12 -11 12 -18 0 -7 7
-16 16 -19 9 -3 14 -13 11 -21 -4 -8 2 -16 14 -20 14 -5 18 -12 14 -26 -4 -12
-1 -21 9 -25 20 -8 21 -24 1 -24 -8 0 -15 -4 -15 -9 0 -16 -51 -71 -60 -66 -5
3 -12 0 -15 -5 -4 -6 -17 -10 -28 -8 -12 1 -28 -1 -34 -5 -7 -5 -13 -4 -13 1
0 6 -13 9 -30 8 -23 -2 -30 2 -30 16 0 14 -4 16 -17 9 -10 -5 -26 -12 -35 -15
-10 -3 -18 -15 -18 -26 0 -11 -9 -29 -20 -40 -11 -11 -20 -27 -20 -35 0 -8 -5
-15 -11 -15 -6 0 -9 -9 -6 -20 4 -14 0 -20 -12 -20 -10 0 -18 -6 -18 -12 0 -7
-4 -25 -8 -40 -6 -24 -4 -28 15 -28 17 0 21 4 17 20 -3 13 0 20 9 20 8 0 14 4
14 9 0 4 12 6 27 3 21 -4 25 -2 20 11 -8 21 2 28 24 16 30 -15 24 15 -6 35
-14 9 -25 25 -25 36 0 26 14 25 33 -2 13 -19 16 -20 16 -6 1 11 6 15 15 12 8
-3 12 -13 9 -25 -3 -10 0 -19 6 -19 6 0 11 4 11 9 0 5 9 11 20 14 21 5 29 -16
10 -28 -17 -10 -11 -25 7 -18 12 5 15 2 10 -10 -3 -9 -3 -19 2 -21 4 -3 6 -20
4 -38 -3 -25 -2 -29 6 -18 5 8 13 11 17 7 4 -4 -1 -16 -11 -27 -10 -11 -15
-23 -12 -27 4 -3 -1 -16 -10 -27 -18 -20 -18 -20 7 -4 14 8 25 22 25 31 0 9
15 29 34 46 36 32 51 38 51 21 0 -5 -4 -10 -10 -10 -5 0 -21 -12 -36 -27 l-27
-26 34 -28 c18 -15 38 -25 44 -23 6 3 9 -11 8 -33 -1 -21 -2 -46 -2 -55 -1
-10 -8 -18 -17 -18 -11 0 -14 5 -10 16 5 12 1 14 -17 8 -32 -10 -62 -54 -37
-54 6 0 13 7 16 15 4 8 11 15 16 15 6 0 5 -6 -2 -15 -10 -12 -10 -15 1 -15 9
0 8 -3 -3 -12 -20 -17 -31 -77 -17 -94 9 -10 8 -15 -4 -20 -9 -3 -13 -13 -10
-25 3 -10 0 -19 -6 -19 -6 0 -10 -6 -8 -12 1 -7 -22 -25 -52 -40 -30 -14 -57
-30 -60 -35 -8 -11 -62 -13 -55 -2 7 12 -20 11 -32 -1 -7 -7 -23 4 -51 34 -23
25 -38 48 -35 51 4 3 -6 1 -21 -4 -35 -14 -40 -14 -32 -1 3 5 -1 29 -9 53 -14
41 -13 49 6 113 12 38 20 74 19 79 -2 6 -5 24 -7 40 -6 50 -9 62 -22 77 -6 8
-9 18 -5 21 6 7 0 9 -29 11 -21 2 -36 20 -31 36 3 10 1 9 -7 -2 -6 -10 -18
-18 -27 -18 -9 0 -14 -3 -11 -6 3 -3 -7 -18 -22 -34 -20 -20 -34 -27 -49 -23
-12 3 -21 9 -21 14 0 5 -7 9 -15 9 -8 0 -15 6 -15 14 0 23 -17 28 -35 10 -12
-13 -19 -14 -28 -5 -8 8 -7 11 4 11 11 1 10 4 -4 14 -19 14 -23 59 -13 134 4
33 2 44 -10 49 -12 4 -14 14 -9 40 4 21 2 40 -5 48 -7 8 -9 18 -6 23 3 6 -5
13 -18 16 -13 3 -32 9 -42 13 -11 4 -15 3 -11 -4 5 -7 0 -9 -12 -6 -12 3 -26
-3 -37 -16 -10 -12 -26 -21 -36 -21 -20 0 -24 -16 -6 -22 11 -4 20 -53 18 -98
-2 -64 -10 -104 -22 -111 -10 -5 -15 -28 -17 -66 -1 -32 -4 -66 -7 -75 -3 -10
-1 -18 5 -18 5 0 13 9 16 20 3 11 12 20 19 20 7 0 25 14 41 30 16 17 23 30 16
30 -7 0 -10 4 -7 9 7 11 46 2 46 -10 0 -5 6 -9 14 -9 19 0 27 -24 19 -60 -4
-23 -2 -30 11 -30 9 0 16 -4 16 -10 0 -5 -4 -10 -10 -10 -5 0 -10 -5 -10 -11
0 -6 7 -9 15 -5 13 5 19 -5 16 -26 -1 -13 52 -48 73 -48 26 0 76 -22 76 -32 0
-5 -4 -8 -10 -8 -5 0 -10 -7 -10 -15 0 -8 5 -15 10 -15 6 0 10 -6 10 -14 0 -8
6 -17 13 -20 10 -5 10 -7 0 -12 -20 -9 -15 -21 10 -28 18 -5 20 -8 7 -16 -13
-9 -13 -11 0 -20 8 -5 11 -10 5 -10 -5 0 -4 -4 3 -9 11 -6 8 -14 -12 -34 -14
-14 -35 -28 -46 -32 -11 -4 -18 -11 -15 -16 4 -5 -1 -9 -10 -9 -10 0 -13 5 -9
11 5 9 -1 10 -22 5 -37 -10 -42 -15 -24 -26 8 -5 11 -12 7 -17 -5 -4 -11 -3
-15 3 -9 13 -52 16 -52 3 0 -6 -7 -6 -19 0 -10 6 -21 7 -25 4 -3 -3 -6 -1 -6
6 0 7 -4 10 -10 6 -5 -3 -19 4 -30 15 -15 15 -27 19 -43 14 -12 -4 -26 -6 -32
-6 -5 1 -27 5 -49 8 -27 5 -37 3 -32 -5 4 -7 1 -9 -8 -5 -15 6 -56 -28 -56
-46 0 -6 -9 -2 -21 8 -11 11 -29 18 -39 15 -22 -6 -37 16 -19 28 8 5 9 9 3 9
-6 0 -17 -7 -24 -15 -7 -8 -18 -15 -24 -15 -20 0 -52 44 -65 89 -13 45 -31 71
-50 71 -6 0 -11 4 -11 9 0 5 -11 11 -25 13 -13 3 -22 1 -19 -3 3 -5 1 -9 -4
-9 -6 0 -22 -24 -37 -52 -15 -29 -32 -59 -38 -67 -6 -7 -16 -23 -22 -35 -9
-17 -26 -23 -89 -33 -42 -6 -84 -17 -92 -24 -11 -9 -18 -9 -26 -1 -7 7 -25 12
-40 12 -15 0 -28 4 -28 9 0 5 -9 11 -19 14 -11 3 -22 17 -26 37 -5 25 -9 29
-17 19 -7 -10 -9 -8 -5 8 3 12 -1 30 -9 40 -7 10 -14 26 -14 36 0 10 -6 17
-12 16 -7 -1 -26 3 -41 9 -16 7 -34 12 -40 12 -7 0 -6 4 3 10 13 8 12 10 -2
10 -12 0 -18 8 -18 23 0 15 -3 18 -9 9 -6 -10 -10 -10 -20 2 -7 8 -11 19 -8
23 8 14 -12 53 -28 53 -8 0 -15 7 -15 16 0 11 6 14 20 9 11 -3 27 -2 35 2 14
8 13 11 -4 27 -15 14 -18 23 -11 41 5 14 5 26 -2 33 -9 9 -7 17 5 30 19 21 22
64 7 92 -5 10 -29 38 -53 62 -45 45 -83 111 -79 139 2 9 -4 21 -12 28 -10 9
-13 26 -9 69 3 31 9 59 14 60 5 2 9 9 9 16 0 7 9 21 20 31 11 10 17 22 14 26
-3 5 4 9 15 9 12 0 21 5 21 10 0 6 7 10 16 10 9 0 13 -5 9 -12 -4 -7 1 -4 9 6
17 21 88 25 111 6 6 -5 15 -7 19 -3 4 4 19 7 33 8 23 0 27 5 28 35 1 19 -2 40
-7 47 -6 7 -11 31 -12 54 -2 39 -10 50 -126 166 -68 68 -128 127 -134 130 -5
4 -7 -6 -3 -25 5 -22 3 -32 -6 -32 -9 0 -8 -3 1 -9 8 -4 13 -12 12 -17 -1 -5
9 -12 22 -15 23 -6 23 -6 -4 -14 -15 -4 -31 -4 -36 -1 -6 3 -13 -2 -16 -11 -5
-12 -9 -14 -18 -5 -7 7 -25 12 -40 12 -15 0 -28 5 -28 11 0 7 -11 4 -27 -6
-26 -17 -27 -17 -45 5 -19 24 -24 45 -8 35 6 -3 10 -1 10 5 0 6 -7 13 -15 16
-10 4 -13 16 -10 37 2 18 4 40 4 50 1 9 8 17 17 17 10 0 14 6 10 15 -4 12 3
14 37 11 23 -3 54 -7 70 -11 25 -7 27 -5 23 16 -2 13 -8 23 -13 22 -5 -1 -10
10 -11 25 -1 14 -6 28 -11 31 -14 10 -40 111 -29 117 5 3 4 12 -4 21 -10 12
-9 17 3 27 9 6 21 21 27 33 7 13 26 25 45 28 39 8 76 67 56 91 -15 19 6 19 23
0 8 -9 26 -12 49 -9 30 4 37 2 42 -16 3 -15 13 -21 31 -21 14 0 26 -4 26 -10
0 -5 5 -10 12 -10 7 0 35 -22 63 -49 59 -58 95 -73 95 -42 0 12 7 21 15 21 8
0 15 5 15 11 0 14 47 59 61 59 5 0 9 6 10 13 3 57 10 79 30 97 l24 20 -22 6
c-12 3 -25 15 -28 25 -4 10 -10 19 -15 19 -5 0 -7 14 -3 30 5 26 3 30 -17 30
-13 0 -21 3 -18 6 4 3 -3 15 -14 26 -16 16 -32 20 -76 19 -31 0 -58 -5 -61
-10 -7 -10 -50 -20 -108 -26 -32 -3 -45 1 -60 17 -13 15 -15 22 -5 25 23 8 12
25 -13 21 -14 -3 -22 -1 -18 5 3 6 -10 6 -37 2 -47 -8 -94 10 -86 31 3 9 -1
11 -11 7 -13 -5 -15 -2 -11 15 4 13 1 22 -5 22 -8 0 -7 3 1 9 10 6 9 10 -7 14
-12 3 -21 10 -21 17 0 6 5 8 11 4 7 -4 7 1 -1 16 -8 14 -8 20 -1 16 10 -6 29
66 23 87 -1 5 7 6 18 2 14 -5 20 -2 20 9 0 9 -4 16 -10 16 -5 0 -10 7 -10 15
0 8 5 15 10 15 6 0 10 5 10 10 0 16 -347 13 -353 -2 -4 -10 -8 -9 -16 2 -8 11
-11 -591 -11 -2048z m4571 1729 c15 -17 14 -19 -17 -33 -18 -8 -36 -13 -39
-10 -11 11 -4 35 13 48 22 18 25 17 43 -5z m-681 -9 c0 -4 -9 -13 -20 -20 -17
-10 -20 -10 -20 4 0 8 5 12 10 9 6 -3 10 -1 10 4 0 6 5 11 10 11 6 0 10 -3 10
-8z m1045 -2 c3 -5 -1 -10 -10 -10 -9 0 -13 5 -10 10 3 6 8 10 10 10 2 0 7 -4
10 -10z m-295 -10 c0 -5 9 -10 20 -10 11 0 20 -4 20 -10 0 -5 8 -6 18 -3 15 6
15 5 3 -11 -10 -12 -17 -14 -25 -6 -5 5 -18 10 -27 10 -19 0 -42 24 -32 33 10
10 23 8 23 -3z m125 0 c8 -13 -5 -13 -25 0 -13 8 -13 10 2 10 9 0 20 -4 23
-10z m-265 -27 c0 -5 3 -18 6 -30 4 -15 2 -23 -6 -23 -7 0 -10 7 -6 15 3 9 -3
19 -14 25 -17 9 -25 6 -45 -16 -14 -15 -27 -25 -30 -23 -10 11 48 59 70 59 14
0 25 -3 25 -7z m-296 -18 c-4 -8 -11 -12 -16 -9 -6 4 -5 10 3 15 19 12 19 11
13 -6z m81 5 c-3 -5 -13 -10 -21 -10 -8 0 -12 5 -9 10 3 6 13 10 21 10 8 0 12
-4 9 -10z m-295 -20 c0 -5 -5 -10 -11 -10 -5 0 -7 5 -4 10 3 6 8 10 11 10 2 0
4 -4 4 -10z m656 1 c-7 -11 22 -23 35 -15 5 3 9 0 9 -5 0 -13 -6 -13 -48 -5
-21 4 -29 11 -25 20 3 8 12 14 20 14 8 0 12 -4 9 -9z m234 -7 c0 -2 -7 -4 -15
-4 -8 0 -15 4 -15 10 0 5 7 7 15 4 8 -4 15 -8 15 -10z m-950 -19 c0 -8 -4 -16
-9 -19 -5 -3 -8 5 -7 18 1 25 16 26 16 1z m290 17 c0 -5 -12 -14 -27 -21 l-28
-12 25 21 c29 22 30 23 30 12z m-845 -40 c-21 -5 -40 12 -30 28 5 8 13 6 27
-7 18 -16 19 -18 3 -21z m910 28 c-3 -5 -11 -10 -16 -10 -6 0 -7 5 -4 10 3 6
11 10 16 10 6 0 7 -4 4 -10z m510 0 c-3 -5 -12 -10 -18 -10 -7 0 -6 4 3 10 19
12 23 12 15 0z m-175 -14 c0 -2 -13 -6 -29 -8 -17 -2 -28 -1 -25 4 5 8 54 12
54 4z m670 -6 c0 -5 -7 -10 -15 -10 -8 0 -15 5 -15 10 0 6 7 10 15 10 8 0 15
-4 15 -10z m-540 -15 c-7 -9 -15 -13 -17 -11 -7 7 7 26 19 26 6 0 6 -6 -2 -15z
m-1267 -12 c-3 -7 -9 -10 -14 -7 -14 8 -11 21 5 21 8 0 12 -6 9 -14z m1697 7
c0 -5 -5 -10 -11 -10 -5 0 -7 5 -4 10 3 6 8 10 11 10 2 0 4 -4 4 -10z m-385
-10 c-3 -5 -10 -10 -16 -10 -5 0 -9 5 -9 10 0 6 7 10 16 10 8 0 12 -4 9 -10z
m-355 -14 c0 -3 -4 -8 -10 -11 -5 -3 -10 -1 -10 4 0 6 5 11 10 11 6 0 10 -2
10 -4z m680 -12 c0 -2 -7 -4 -15 -4 -8 0 -15 4 -15 10 0 5 7 7 15 4 8 -4 15
-8 15 -10z m157 10 c-3 -3 -12 -4 -19 -1 -8 3 -5 6 6 6 11 1 17 -2 13 -5z
m-494 -11 c-7 -2 -19 -2 -25 0 -7 3 -2 5 12 5 14 0 19 -2 13 -5z m877 -2 c0
-12 -28 -22 -34 -12 -3 5 -3 11 1 15 9 9 33 7 33 -3z m-795 -11 c-3 -5 -12
-10 -18 -10 -7 0 -6 4 3 10 19 12 23 12 15 0z m-1657 -20 c3 -9 0 -10 -9 -4
-8 5 -23 8 -34 6 l-20 -2 20 9 c25 12 37 9 43 -9z m1675 -7 c-7 -2 -19 -2 -25
0 -7 3 -2 5 12 5 14 0 19 -2 13 -5z m217 -3 c0 -5 -2 -10 -4 -10 -3 0 -8 5
-11 10 -3 6 -1 10 4 10 6 0 11 -4 11 -10z m215 -10 c3 -5 2 -10 -4 -10 -5 0
-13 5 -16 10 -3 6 -2 10 4 10 5 0 13 -4 16 -10z m-2325 -70 c13 -8 13 -10 -2
-10 -9 0 -20 5 -23 10 -8 13 5 13 25 0z m2127 4 c-3 -3 -12 -4 -19 -1 -8 3 -5
6 6 6 11 1 17 -2 13 -5z m343 -38 c0 -8 10 -22 22 -30 12 -9 18 -16 12 -16 -5
0 -25 13 -44 30 -32 27 -33 29 -12 30 13 0 22 -6 22 -14z m475 -5 c6 -11 -26
-31 -49 -31 -19 0 -21 26 -3 33 21 9 46 8 52 -2z m-2078 -22 c-5 -17 -3 -18
10 -8 8 8 17 9 21 3 4 -5 18 -9 32 -9 14 1 36 -6 50 -14 23 -13 24 -13 11 3
-11 13 -11 20 -3 28 9 9 12 9 12 -1 0 -18 49 -63 61 -56 5 3 6 -2 3 -12 -4
-13 0 -11 16 7 16 19 20 20 16 6 -5 -15 -2 -17 18 -12 21 5 23 3 18 -16 -3
-14 -2 -19 6 -14 7 4 12 14 12 22 0 8 5 14 10 14 14 0 12 -16 -5 -50 -20 -39
-8 -38 26 2 l27 33 -3 -28 c-2 -15 1 -25 6 -21 5 3 7 10 4 15 -3 5 1 6 10 3
12 -5 13 -10 6 -17 -6 -6 -11 -16 -11 -23 0 -16 52 -25 68 -12 15 13 16 -4 2
-18 -6 -6 -8 -18 -4 -27 4 -12 11 -14 30 -7 13 5 24 6 24 1 0 -12 -76 -91 -88
-91 -5 0 -12 -9 -15 -20 -3 -11 -11 -20 -17 -20 -9 0 -7 7 4 23 9 12 19 28 23
36 7 15 -16 33 -31 24 -5 -4 -6 -1 -1 7 10 17 -33 3 -57 -18 -10 -8 -18 -12
-18 -9 0 3 -10 -4 -23 -16 -13 -12 -22 -25 -20 -29 2 -4 -1 -9 -7 -13 -6 -4
-10 7 -11 27 l-1 33 -12 -27 c-8 -19 -15 -25 -26 -18 -12 7 -12 11 0 25 8 9
15 24 16 34 2 10 -5 7 -20 -11 -12 -16 -25 -28 -29 -28 -11 0 15 40 47 72 16
15 26 28 23 28 -4 0 -2 11 3 25 6 17 6 25 -1 25 -18 0 -48 -43 -49 -69 0 -20
-2 -21 -15 -11 -12 10 -16 9 -21 -5 -5 -13 -9 -14 -15 -3 -12 19 -11 40 2 32
6 -3 4 5 -5 18 -9 14 -14 33 -10 42 7 19 0 20 -28 5 -18 -9 -19 -8 -13 10 4
12 2 21 -4 21 -6 0 -10 -3 -10 -7 3 -21 -2 -26 -12 -13 -9 13 -10 12 -5 -3 3
-10 0 -26 -6 -37 -7 -10 -9 -23 -5 -27 9 -9 28 17 21 29 -3 4 -1 8 4 8 6 0 10
-17 9 -37 -1 -21 2 -47 6 -58 5 -14 4 -13 -4 3 -7 12 -16 22 -20 22 -4 0 0
-13 9 -30 17 -30 17 -30 27 -7 14 33 25 37 47 15 15 -15 17 -22 8 -28 -8 -5
-7 -11 5 -24 15 -15 13 -16 -24 -11 -41 5 -41 5 -41 -27 0 -18 -4 -39 -9 -46
-11 -18 -21 33 -14 69 5 26 -13 76 -24 65 -3 -3 0 -12 7 -21 11 -13 9 -15 -13
-13 -23 2 -25 6 -22 43 1 23 6 52 9 66 4 13 4 20 -1 14 -4 -5 -17 -15 -28 -21
-11 -6 -23 -22 -27 -35 -5 -16 -6 -12 -2 11 4 19 6 43 6 53 -1 9 3 17 9 17 5
0 9 8 8 18 0 10 -3 12 -6 4 -2 -6 -9 -10 -14 -6 -5 3 -9 2 -7 -3 1 -4 -2 -27
-6 -50 -8 -43 -23 -57 -47 -42 -12 7 -12 9 0 9 12 0 12 3 3 12 -10 10 -15 10
-22 -2 -6 -9 -10 -10 -10 -3 0 18 37 36 43 20 3 -6 6 -2 6 10 1 12 6 25 11 28
6 3 10 20 10 37 0 27 -13 33 -16 7 -1 -5 -3 -11 -4 -14 -3 -6 -7 -22 -9 -35 0
-5 -7 -10 -14 -10 -7 0 -23 -18 -35 -40 -11 -22 -16 -39 -10 -37 6 1 13 -4 16
-12 3 -9 0 -11 -8 -6 -8 5 -11 4 -6 -3 4 -6 14 -8 23 -5 12 5 15 2 11 -9 -7
-16 7 -46 17 -36 3 3 -1 22 -9 42 -12 29 -12 36 -2 36 16 0 26 -21 26 -58 1
-26 1 -27 17 -7 14 18 15 18 9 2 -3 -10 -6 -26 -6 -34 0 -13 -3 -13 -15 -3
-10 9 -15 9 -15 1 0 -6 -5 -11 -11 -11 -5 0 -7 5 -4 10 3 6 2 10 -4 10 -5 0
-13 9 -16 21 -5 15 -10 18 -18 10 -16 -16 -30 -14 -23 4 3 8 -1 21 -10 29 -10
10 -11 17 -3 21 6 4 8 18 4 32 -3 14 -1 31 5 39 14 16 5 34 -16 34 -9 0 -12 5
-8 13 4 6 -2 2 -14 -9 -11 -12 -27 -24 -34 -27 -10 -4 -9 -8 4 -18 20 -16 38
-107 20 -95 -7 4 -12 25 -12 47 0 21 -4 39 -10 39 -5 0 -10 -15 -10 -34 0 -19
-4 -37 -9 -41 -9 -5 -6 -70 5 -86 3 -5 1 -9 -3 -9 -5 0 -17 18 -27 41 -21 47
-34 45 -17 -2 6 -18 11 -43 11 -57 0 -22 -2 -23 -17 -11 -16 13 -17 12 -5 -3
9 -12 10 -18 2 -23 -16 -10 -22 -1 -24 35 -2 50 -21 34 -21 -20 -1 -27 2 -44
6 -38 5 8 12 2 18 -17 6 -17 18 -42 26 -57 20 -35 19 -41 -5 -28 -11 6 -20 17
-20 25 0 8 -7 15 -16 15 -8 0 -12 4 -9 10 7 12 -19 53 -28 43 -12 -11 -7 26 5
47 10 15 9 22 -5 38 -21 23 -22 39 -1 21 13 -10 17 -10 24 1 5 9 4 20 -3 30
-23 29 -67 48 -67 29 0 -18 -32 -9 -37 11 -6 24 -19 26 -27 4 -5 -13 -9 -14
-21 -4 -10 8 -15 9 -15 2 0 -6 5 -14 11 -18 8 -4 7 -9 -2 -15 -12 -8 -12 -11
1 -18 8 -6 12 -13 9 -16 -9 -9 -40 6 -33 16 3 5 -2 12 -11 16 -12 4 -28 -6
-51 -31 -18 -20 -31 -36 -28 -36 2 0 7 0 10 1 7 1 54 -50 54 -58 0 -4 -11 4
-25 17 -14 13 -25 20 -25 16 0 -5 -7 -3 -15 4 -12 10 -15 10 -15 -3 0 -9 -8
-20 -17 -26 -10 -5 -17 -12 -15 -15 7 -17 -1 -25 -29 -31 -20 -5 -27 -10 -19
-15 17 -10 -15 -21 -37 -13 -13 5 -12 0 7 -26 l23 -34 -29 19 c-26 17 -27 17
-15 1 12 -15 11 -17 -10 -18 -21 -1 -21 -2 -4 -6 11 -3 29 -12 40 -19 19 -14
19 -14 -3 -14 -13 0 -20 4 -17 10 3 6 2 10 -4 10 -5 0 -13 -4 -16 -10 -3 -5
-16 -10 -28 -10 -17 0 -19 -2 -7 -10 12 -7 9 -13 -13 -34 -16 -14 -33 -26 -38
-26 -6 0 -7 -4 -4 -10 3 -5 1 -10 -6 -10 -8 0 -9 -3 0 -13 8 -11 5 -17 -15
-26 -15 -6 -35 -9 -45 -6 -18 6 -18 7 1 28 11 12 18 27 15 35 -3 10 1 12 18 7
17 -5 19 -4 7 4 -22 16 7 33 33 19 10 -5 21 -7 24 -4 3 3 -7 10 -23 16 l-29
11 23 17 c12 10 24 28 27 42 8 41 27 70 47 70 10 0 18 5 18 10 0 6 -5 10 -11
10 -6 0 -9 6 -6 13 2 6 10 11 17 9 11 -3 11 0 0 12 -14 18 0 22 16 6 7 -7 16
2 27 30 9 24 22 40 32 40 9 0 14 4 11 9 -4 5 -3 17 0 26 6 16 8 16 16 1 5 -9
14 -16 20 -16 7 0 6 6 -2 15 -11 13 -10 14 4 9 21 -8 21 5 -1 22 -17 13 -17
14 4 20 13 3 20 11 16 17 -3 6 -1 7 5 3 10 -6 53 26 49 36 -1 2 4 -4 11 -12
11 -13 12 -11 8 12 -3 21 -1 26 11 21 11 -4 14 -2 9 5 -5 8 -2 10 8 6 11 -4
16 0 16 10 0 16 12 21 23 10 4 -4 20 -8 37 -9 27 -2 29 -1 18 13 -11 13 -10
14 10 3 24 -13 29 -3 10 18 -11 11 -10 13 3 8 20 -7 39 10 39 35 0 21 32 38
38 20 2 -7 9 -9 15 -5 19 12 37 12 37 1 0 -6 10 0 23 13 18 19 32 24 74 24 43
0 53 3 58 20 5 19 6 19 25 -5 11 -14 20 -20 20 -14 0 21 79 37 92 19 4 -5 10
-2 14 8 9 24 17 21 11 -4z m1193 11 c0 -5 -7 -10 -16 -10 -8 0 -12 5 -9 10 3
6 10 10 16 10 5 0 9 -4 9 -10z m125 -10 c3 -5 1 -10 -4 -10 -6 0 -11 5 -11 10
0 6 2 10 4 10 3 0 8 -4 11 -10z m995 -20 c0 -5 -9 -10 -19 -10 -11 0 -23 5
-26 10 -4 6 5 10 19 10 14 0 26 -4 26 -10z m295 0 c3 -5 1 -10 -4 -10 -6 0
-11 5 -11 10 0 6 2 10 4 10 3 0 8 -4 11 -10z m-1078 -6 c-3 -3 -12 -4 -19 -1
-8 3 -5 6 6 6 11 1 17 -2 13 -5z m-127 -24 c8 -5 11 -10 5 -10 -5 0 -17 5 -25
10 -8 5 -10 10 -5 10 6 0 17 -5 25 -10z m950 -10 c8 -5 12 -12 9 -15 -8 -8
-39 5 -39 16 0 11 11 11 30 -1z m-985 -30 c-3 -5 -12 -10 -18 -10 -7 0 -6 4 3
10 19 12 23 12 15 0z m390 1 c3 -5 2 -12 -3 -15 -5 -3 -9 1 -9 9 0 17 3 19 12
6z m310 -10 c-3 -6 -11 -8 -17 -5 -6 4 -5 9 3 15 16 10 23 4 14 -10z m132 3
c-3 -3 -12 -4 -19 -1 -8 3 -5 6 6 6 11 1 17 -2 13 -5z m1593 -24 c0 -5 -4 -10
-9 -10 -6 0 -13 5 -16 10 -3 6 1 10 9 10 9 0 16 -4 16 -10z m-832 -19 c3 -8
-1 -12 -9 -9 -7 2 -15 10 -17 17 -3 8 1 12 9 9 7 -2 15 -10 17 -17z m-1611 3
c-3 -3 -12 -4 -19 -1 -8 3 -5 6 6 6 11 1 17 -2 13 -5z m-1547 -18 c0 -8 -4
-17 -8 -20 -13 -8 -35 11 -28 23 10 16 36 14 36 -3z m2605 4 c3 -5 1 -10 -4
-10 -6 0 -11 5 -11 10 0 6 2 10 4 10 3 0 8 -4 11 -10z m-3525 -12 c0 -11 -38
-10 -44 1 -3 5 5 8 19 7 14 0 25 -4 25 -8z m3875 -8 c-3 -5 -12 -7 -20 -3 -21
7 -19 13 6 13 11 0 18 -4 14 -10z m910 0 c-3 -5 -16 -10 -28 -9 -20 1 -20 2 3
9 14 4 26 8 28 9 2 1 0 -3 -3 -9z m-3589 -37 c-8 -15 -15 -22 -16 -15 0 17 20
55 27 49 2 -3 -2 -18 -11 -34z m1704 7 c0 -5 -5 -10 -11 -10 -5 0 -7 5 -4 10
3 6 8 10 11 10 2 0 4 -4 4 -10z m805 0 c3 -5 2 -10 -4 -10 -5 0 -13 5 -16 10
-3 6 -2 10 4 10 5 0 13 -4 16 -10z m1175 -9 c0 -18 -17 -20 -36 -6 -18 14 -18
14 9 15 15 0 27 -4 27 -9z m-3245 -34 c-15 -23 -12 -37 9 -37 6 0 5 4 -2 9
-11 7 -10 9 3 14 9 4 13 3 10 -3 -3 -6 -2 -10 4 -10 5 0 13 5 16 10 3 6 12 10
18 10 7 -1 2 -9 -10 -19 -12 -10 -19 -22 -15 -25 3 -4 0 -11 -8 -17 -11 -6 -4
-8 21 -5 30 4 38 1 42 -15 3 -10 1 -17 -4 -13 -5 3 -9 1 -9 -5 0 -5 4 -12 9
-15 12 -8 3 -42 -15 -57 -13 -11 -19 -3 -15 23 0 4 -8 5 -17 3 -19 -3 -23 18
-10 41 5 7 -4 9 -25 6 -29 -5 -31 -4 -18 12 13 16 13 18 0 16 -35 -5 -42 -1
-28 17 13 15 12 15 -7 5 -12 -6 -24 -8 -28 -5 -13 14 -5 34 19 45 13 6 22 14
20 19 -3 4 3 5 14 2 10 -3 22 0 25 6 4 6 9 11 12 11 2 0 -2 -10 -11 -23z
m-562 -12 c-3 -9 -8 -14 -10 -11 -3 3 -2 9 2 15 9 16 15 13 8 -4z m-148 -15
c3 -5 1 -10 -4 -10 -6 0 -11 5 -11 10 0 6 2 10 4 10 3 0 8 -4 11 -10z m2588
-14 c6 -16 -19 -30 -28 -16 -7 11 2 30 15 30 4 0 10 -6 13 -14z m-3653 -6 c0
-5 -5 -10 -11 -10 -5 0 -7 5 -4 10 3 6 8 10 11 10 2 0 4 -4 4 -10z m1025 0
c-3 -5 -12 -10 -18 -10 -7 0 -6 4 3 10 19 12 23 12 15 0z m30 -34 c0 -19 -3
-37 -7 -41 -4 -4 -4 2 -1 14 3 12 1 21 -6 21 -9 0 -9 5 -1 20 14 26 15 26 15
-14z m195 3 c0 -13 -27 -11 -36 3 -4 7 -3 8 4 4 7 -4 12 -2 12 4 0 6 5 8 10 5
6 -3 10 -10 10 -16z m424 6 c-4 -8 -11 -15 -16 -15 -6 0 -5 6 2 15 7 8 14 15
16 15 2 0 1 -7 -2 -15z m-914 -25 c6 -11 8 -20 6 -20 -3 0 -10 9 -16 20 -6 11
-8 20 -6 20 3 0 10 -9 16 -20z m27 -12 c-3 -7 -5 -2 -5 12 0 14 2 19 5 13 2
-7 2 -19 0 -25z m36 0 c-5 -26 -4 -30 10 -25 10 4 17 2 17 -3 0 -6 -7 -10 -16
-10 -13 0 -14 -3 -4 -15 6 -8 10 -20 7 -27 -4 -9 -6 -8 -6 3 -1 9 -7 22 -15
28 -12 10 -13 29 0 69 7 25 13 11 7 -20z m194 -15 c-3 -10 -5 -2 -5 17 0 19 2
27 5 18 2 -10 2 -26 0 -35z m523 43 c0 -3 -4 -8 -10 -11 -5 -3 -10 -1 -10 4 0
6 5 11 10 11 6 0 10 -2 10 -4z m-855 -34 c2 -19 17 -52 25 -52 5 0 7 8 3 18
-5 14 -2 14 18 -4 13 -12 29 -20 35 -17 6 2 14 -3 17 -12 4 -10 1 -15 -10 -15
-9 0 -13 -3 -10 -6 3 -4 2 -16 -4 -27 -7 -12 -7 -17 -1 -13 6 3 13 0 16 -6 4
-7 4 -3 2 10 -2 12 -1 22 4 22 4 0 11 -10 15 -22 4 -13 9 -27 10 -33 14 -42
16 -75 6 -75 -7 0 -9 5 -6 10 3 6 -1 10 -10 10 -15 0 -14 -5 5 -37 15 -27 16
-31 3 -15 -10 13 -30 37 -45 53 -16 16 -28 35 -28 41 0 6 9 -1 20 -15 13 -16
27 -24 36 -20 12 4 12 8 2 21 -10 12 -10 14 -1 8 9 -5 11 -2 6 10 -4 11 -8 13
-11 6 -2 -7 -10 -12 -18 -12 -7 0 -11 6 -8 13 3 8 -2 19 -10 26 -8 7 -12 20
-9 28 4 11 2 14 -5 9 -7 -4 -10 -2 -7 7 3 7 -5 19 -20 27 -14 7 -25 21 -25 30
0 10 -7 23 -15 30 -8 7 -12 17 -9 22 6 10 28 -5 29 -20z m588 8 c-3 -12 -8
-19 -11 -16 -5 6 5 36 12 36 2 0 2 -9 -1 -20z m126 3 c-6 -7 -9 -16 -6 -20 3
-4 -1 -14 -9 -21 -8 -7 -14 -8 -14 -2 0 5 -5 9 -11 8 -6 -2 -14 3 -16 10 -4
11 -1 12 14 3 18 -9 20 -7 18 12 -2 16 2 23 16 23 13 0 15 -4 8 -13z m-659 -3
c0 -5 10 -18 22 -30 21 -19 21 -20 2 -20 -13 0 -24 11 -31 30 -6 17 -7 30 -2
30 5 0 9 -4 9 -10z m690 -27 c-10 -16 -11 -16 -6 0 3 9 1 17 -5 17 -6 0 -7 5
-3 11 4 7 10 7 16 1 7 -7 6 -16 -2 -29z m487 31 c-3 -3 -12 -4 -19 -1 -8 3 -5
6 6 6 11 1 17 -2 13 -5z m1428 -4 c3 -5 2 -10 -4 -10 -5 0 -13 5 -16 10 -3 6
-2 10 4 10 5 0 13 -4 16 -10z m-2245 -4 c0 -3 -4 -8 -10 -11 -5 -3 -10 -1 -10
4 0 6 5 11 10 11 6 0 10 -2 10 -4z m43 -15 c3 -13 0 -18 -12 -16 -23 4 -35 -6
-20 -16 11 -7 10 -9 -3 -9 -10 0 -18 -7 -18 -17 0 -9 -3 -13 -7 -9 -4 4 1 22
12 42 13 24 21 31 27 22 6 -10 8 -8 8 5 0 23 6 22 13 -2z m42 -11 c-4 -12 -9
-19 -12 -17 -3 3 -2 15 2 27 4 12 9 19 12 17 3 -3 2 -15 -2 -27z m32 8 c-3 -8
-6 -5 -6 6 -1 11 2 17 5 13 3 -3 4 -12 1 -19z m533 2 c0 -5 -5 -10 -11 -10 -5
0 -7 5 -4 10 3 6 8 10 11 10 2 0 4 -4 4 -10z m-156 -12 c-3 -5 -9 -6 -14 -3
-4 3 -18 -7 -30 -22 -12 -16 -19 -23 -16 -16 4 6 2 14 -3 18 -20 12 0 30 33
30 19 0 32 -3 30 -7z m321 -8 c3 -6 -4 -9 -19 -8 -13 1 -22 6 -20 10 7 11 32
10 39 -2z m-944 -22 c1 -7 1 -19 0 -25 -1 -7 4 -13 11 -13 9 0 9 -3 -2 -10
-18 -11 -32 7 -24 33 3 9 1 17 -5 17 -6 0 -11 -17 -12 -37 -1 -38 -1 -38 -11
-10 -7 20 -7 32 2 42 15 18 40 20 41 3z m59 -13 c0 -8 -4 -17 -10 -20 -6 -4
-10 5 -10 20 0 15 4 24 10 20 6 -3 10 -12 10 -20z m333 0 c-3 -9 -8 -14 -10
-11 -3 3 -2 9 2 15 9 16 15 13 8 -4z m147 -5 c-6 -11 -13 -20 -16 -20 -2 0 0
9 6 20 6 11 13 20 16 20 2 0 0 -9 -6 -20z m370 -6 c0 -8 -19 -13 -24 -6 -3 5
1 9 9 9 8 0 15 -2 15 -3z m75 -34 c-9 -15 -46 -18 -59 -5 -7 8 -17 11 -21 7
-5 -4 -6 -2 -2 3 3 6 24 9 46 7 23 -2 39 -8 36 -12z m1755 5 c10 -12 10 -15
-3 -15 -8 0 -17 7 -21 15 -3 8 -2 15 3 15 5 0 14 -7 21 -15z m-3150 -16 c0 -4
-7 -6 -15 -3 -8 4 -15 10 -15 15 0 4 7 6 15 3 8 -4 15 -10 15 -15z m457 -1
c-3 -8 -6 -5 -6 6 -1 11 2 17 5 13 3 -3 4 -12 1 -19z m128 0 c-6 -15 -4 -20 6
-16 9 4 14 -2 14 -17 0 -17 -3 -21 -12 -14 -8 7 -11 3 -8 -18 3 -32 -10 -73
-24 -73 -12 0 -11 35 2 80 11 34 12 41 15 68 1 6 5 12 8 12 3 0 2 -10 -1 -22z
m852 16 c-3 -3 -12 -4 -19 -1 -8 3 -5 6 6 6 11 1 17 -2 13 -5z m-1305 -28 c5
-8 8 -7 8 2 0 7 5 10 11 6 7 -4 7 -10 1 -16 -9 -9 23 -82 50 -116 10 -12 10
-14 1 -8 -22 13 -14 -10 12 -34 14 -13 25 -28 25 -34 0 -5 -7 -1 -15 10 -8 10
-15 16 -15 12 0 -11 -43 33 -63 65 -10 15 -22 25 -28 22 -5 -4 -9 -3 -8 2 4
22 -3 33 -20 33 -10 0 -22 7 -25 16 -9 23 -8 24 12 24 9 0 35 -25 57 -55 22
-30 44 -54 49 -55 5 0 2 8 -7 18 -10 10 -14 22 -10 27 5 4 3 5 -4 1 -7 -3 -14
2 -18 14 -3 11 -11 20 -16 20 -5 0 -9 6 -9 14 0 20 -30 41 -54 39 -20 -3 -21
-2 -1 6 23 11 56 4 67 -13z m308 9 c0 -9 -6 -12 -15 -9 -15 6 -15 -4 0 -79 2
-9 -1 -15 -6 -11 -5 3 -9 0 -9 -7 0 -10 -3 -10 -12 -1 -10 10 -10 14 0 21 7 4
11 14 8 22 -17 54 -16 68 6 72 13 2 24 5 26 6 1 0 2 -6 2 -14z m-133 -27 c-3
-8 -6 -5 -6 6 -1 11 2 17 5 13 3 -3 4 -12 1 -19z m236 -26 c-3 -23 -10 -42
-15 -42 -10 0 -6 44 7 73 11 27 14 16 8 -31z m854 42 c-3 -3 -12 -4 -19 -1 -8
3 -5 6 6 6 11 1 17 -2 13 -5z m-929 -35 c3 -11 2 -11 -7 1 -13 18 -13 3 -1
-25 6 -14 9 -16 10 -5 1 8 6 2 11 -15 5 -19 5 -33 -2 -40 -7 -6 -10 -6 -9 0 5
22 -1 35 -12 33 -8 -2 -14 11 -16 36 -2 27 0 37 9 34 7 -2 14 -11 17 -19z
m945 -6 c-5 -12 -3 -14 7 -8 8 5 11 4 6 -3 -7 -12 -36 -5 -36 8 0 5 -8 11 -17
13 -10 3 -4 5 14 6 26 1 31 -2 26 -16z m-352 -16 c-10 -9 -11 -8 -5 6 3 10 9
15 12 12 3 -3 0 -11 -7 -18z m376 -14 c-4 -3 -2 -12 4 -19 8 -10 3 -10 -28 -1
l-38 12 30 6 c17 4 32 7 34 8 2 0 1 -2 -2 -6z m51 -34 c-6 -4 6 -16 28 -27
l39 -20 -32 0 c-18 1 -32 4 -31 7 2 18 -4 21 -21 11 -13 -7 -22 -7 -26 0 -3 6
4 10 16 10 20 0 20 1 6 24 -16 23 -15 23 8 12 14 -6 19 -13 13 -17z m-1718 1
c0 -5 -12 -10 -27 -9 l-28 1 25 8 c14 4 26 8 28 9 1 1 2 -3 2 -9z m629 -67
c24 -49 35 -63 42 -52 5 8 9 11 9 7 0 -3 3 -14 7 -24 4 -11 3 -15 -5 -10 -18
11 -23 -9 -7 -30 13 -17 14 -18 15 -1 0 19 19 24 21 5 6 -56 3 -73 -10 -70
-12 3 -12 0 -1 -13 7 -8 10 -18 6 -22 -3 -3 -6 -1 -6 5 0 6 -10 14 -22 18 -22
6 -114 94 -99 94 3 0 23 -14 44 -31 20 -17 34 -24 31 -16 -3 9 -23 27 -44 42
-22 15 -42 37 -46 49 -3 11 -14 30 -24 41 -9 11 -21 27 -25 35 -8 13 -7 13 11
0 10 -8 25 -23 32 -32 7 -10 19 -18 26 -18 8 0 16 -6 19 -14 3 -8 16 -20 29
-27 22 -12 23 -11 6 8 -10 11 -18 25 -18 32 0 6 -9 30 -19 51 -11 22 -16 40
-12 40 4 0 22 -30 40 -67z m54 46 c-4 -15 -8 -17 -14 -8 -6 11 4 28 18 29 0 0
-1 -9 -4 -21z m167 -19 c-5 -22 -8 -27 -9 -13 -1 21 9 56 14 51 2 -2 0 -19 -5
-38z m3325 20 c3 -5 1 -10 -4 -10 -6 0 -11 5 -11 10 0 6 2 10 4 10 3 0 8 -4
11 -10z m-3607 -20 c7 -11 11 -20 9 -20 -2 0 -12 9 -22 20 -10 11 -14 20 -9
20 5 0 15 -9 22 -20z m414 -12 c-9 -9 -12 -7 -12 12 0 19 3 21 12 12 9 -9 9
-15 0 -24z m-737 2 c2 -4 -7 -5 -20 -2 -14 2 -25 8 -25 12 0 10 38 1 45 -10z
m154 -11 c3 -11 1 -12 -11 -2 -8 7 -17 10 -20 7 -3 -2 -8 2 -11 10 -5 12 -1
13 15 7 12 -4 24 -14 27 -22z m428 1 c-3 -11 -1 -22 4 -25 4 -3 4 -17 -2 -31
-8 -22 -7 -25 6 -20 11 4 15 -1 15 -17 1 -12 7 -35 15 -52 8 -16 13 -21 11
-10 -15 71 -16 84 -8 89 6 3 8 -2 5 -13 -3 -10 0 -22 6 -26 6 -3 11 -3 10 2
-6 36 14 44 32 12 9 -17 8 -20 -2 -14 -9 6 -10 3 -5 -11 16 -37 18 -54 12 -71
-5 -13 -9 -14 -15 -5 -5 9 -9 1 -10 -20 -1 -18 -3 -38 -3 -44 -2 -17 -38 -4
-38 13 0 8 6 13 13 10 8 -3 14 3 14 14 2 23 -12 25 -21 4 -3 -8 -13 -15 -21
-15 -9 0 -13 -4 -10 -10 3 -5 2 -10 -4 -10 -6 0 -16 10 -22 23 -11 20 -11 21
4 8 18 -14 20 -10 18 24 -2 17 0 17 8 5 9 -13 11 -13 11 2 0 9 -4 19 -8 22 -4
2 -9 19 -10 38 -2 18 -7 35 -12 36 -11 4 -14 95 -3 105 12 12 15 7 10 -13z
m883 9 c0 -11 -37 -12 -43 -1 -3 4 6 8 19 8 13 1 24 -2 24 -7z m-1416 -11 c-3
-4 2 -8 10 -8 9 0 16 -4 16 -10 0 -12 -43 3 -47 17 -2 5 3 10 11 10 8 0 13 -4
10 -9z m201 2 c3 -5 1 -10 -4 -10 -6 0 -11 5 -11 10 0 6 2 10 4 10 3 0 8 -4
11 -10z m-428 -16 c-3 -3 -12 -4 -19 -1 -8 3 -5 6 6 6 11 1 17 -2 13 -5z m208
-5 c10 -15 -1 -23 -20 -15 -9 3 -13 10 -10 16 8 13 22 13 30 -1z m-408 -5 c-3
-3 -12 -4 -19 -1 -8 3 -5 6 6 6 11 1 17 -2 13 -5z m639 -15 c19 -22 19 -22 -3
-8 -13 8 -23 17 -23 21 0 12 6 9 26 -13z m-174 -19 c6 0 9 -3 5 -6 -3 -3 -20
-3 -37 1 -25 5 -29 9 -19 21 9 11 13 11 26 -1 8 -8 19 -15 25 -15z m451 15
c-3 -9 -8 -14 -10 -11 -3 3 -2 9 2 15 9 16 15 13 8 -4z m-1463 -5 c8 -5 11
-10 5 -10 -5 0 -17 5 -25 10 -8 5 -10 10 -5 10 6 0 17 -5 25 -10z m120 0 c-8
-5 -24 -9 -35 -9 l-20 0 20 9 c11 5 27 9 35 9 13 1 13 0 0 -9z m625 -10 c3 -6
-1 -7 -9 -4 -18 7 -21 14 -7 14 6 0 13 -4 16 -10z m1693 -8 l23 -18 -27 -2
c-15 -1 -24 1 -20 5 3 4 -6 12 -21 19 l-28 12 25 1 c14 0 35 -7 48 -17z
m-1235 -50 c-1 -4 3 -13 9 -19 17 -21 -6 -15 -30 8 -14 12 -30 18 -41 14 -11
-3 -23 0 -27 6 -5 9 -2 10 9 6 16 -6 16 -4 0 20 l-17 26 49 -27 c28 -14 49
-29 48 -34z m504 26 c-3 -7 -5 -2 -5 12 0 14 2 19 5 13 2 -7 2 -19 0 -25z
m-1047 12 c0 -5 -2 -10 -4 -10 -3 0 -8 5 -11 10 -3 6 -1 10 4 10 6 0 11 -4 11
-10z m753 -10 c3 -11 3 -20 1 -20 -2 0 -8 9 -14 20 -6 11 -7 20 -2 20 6 0 12
-9 15 -20z m52 -21 c-5 -14 0 -22 17 -28 15 -7 17 -10 7 -10 -21 -1 -35 17
-41 52 -4 22 -3 25 9 16 7 -7 11 -20 8 -30z m-827 14 c19 -18 15 -20 -28 -20
-31 0 -38 3 -30 12 8 9 7 14 -2 18 -7 2 1 4 17 3 17 0 36 -6 43 -13z m387 7
c3 -5 20 -14 38 -19 30 -9 31 -9 6 -10 -15 -1 -32 5 -39 13 -6 8 -21 17 -33
19 l-22 4 22 2 c12 0 25 -3 28 -9z m1433 -48 c-11 -2 -26 -1 -35 2 -12 5 -13
9 -3 21 10 13 15 12 35 -3 22 -16 22 -17 3 -20z m-1443 18 c-3 -5 -12 -10 -18
-10 -7 0 -6 4 3 10 19 12 23 12 15 0z m-388 -8 c17 -11 -1 -37 -18 -27 -8 5
-11 5 -7 0 11 -11 -40 -37 -80 -40 -40 -4 -39 -3 29 40 62 38 60 37 76 27z
m1000 -24 c-3 -7 -5 -2 -5 12 0 14 2 19 5 13 2 -7 2 -19 0 -25z m-544 -3 c-7
-21 -13 -19 -13 6 0 11 4 18 10 14 5 -3 7 -12 3 -20z m192 -13 c-6 -7 -45 19
-45 29 0 5 11 2 24 -8 13 -10 23 -19 21 -21z m-1350 18 c3 -5 1 -10 -4 -10 -6
0 -11 5 -11 10 0 6 2 10 4 10 3 0 8 -4 11 -10z m1125 -5 c11 -13 8 -13 -19 -4
-35 12 -40 19 -12 19 10 0 24 -7 31 -15z m380 -6 c0 -5 -4 -9 -10 -9 -5 0 -10
7 -10 16 0 8 5 12 10 9 6 -3 10 -10 10 -16z m238 -15 c-3 -14 -5 -12 -10 9 -3
19 -2 25 4 19 6 -6 8 -18 6 -28z m-442 -11 c-10 -11 -19 -7 -22 10 -2 15 0 16
12 6 8 -6 12 -14 10 -16z m234 11 c0 -8 -5 -12 -10 -9 -6 4 -8 11 -5 16 9 14
15 11 15 -7z m40 -16 c0 -6 -7 -5 -15 2 -8 7 -15 17 -15 22 0 6 7 5 15 -2 8
-7 15 -17 15 -22z m970 17 c16 -19 1 -19 -24 0 -16 12 -17 15 -4 15 8 0 21 -7
28 -15z m-829 -9 c12 7 11 0 -3 -31 -6 -14 -15 -25 -19 -25 -17 0 -21 23 -8
47 7 14 15 20 17 14 2 -6 8 -9 13 -5z m-1006 -10 c13 5 16 4 11 -4 -4 -7 -12
-12 -18 -12 -6 0 -17 -8 -24 -17 -9 -14 -16 -15 -24 -7 -9 9 -9 14 1 19 8 6
10 4 4 -5 -5 -9 -4 -11 4 -6 6 4 9 12 6 17 -4 5 -3 14 1 20 5 8 8 8 14 0 4 -7
15 -9 25 -5z m500 4 c3 -5 2 -10 -4 -10 -5 0 -13 5 -16 10 -3 6 -2 10 4 10 5
0 13 -4 16 -10z m298 -21 c7 -27 -14 -19 -24 9 -6 16 -5 20 6 16 7 -3 15 -14
18 -25z m-888 -19 c-16 -16 -31 -27 -34 -24 -6 6 45 54 56 54 4 0 -6 -13 -22
-30z m805 20 c0 -5 -2 -10 -4 -10 -3 0 -8 5 -11 10 -3 6 -1 10 4 10 6 0 11 -4
11 -10z m108 -15 c-3 -3 -9 2 -12 12 -6 14 -5 15 5 6 7 -7 10 -15 7 -18z
m1047 5 c13 -6 15 -9 5 -9 -8 0 -22 4 -30 9 -18 12 -2 12 25 0z m20 -32 c5 4
5 1 1 -6 -6 -10 -11 -10 -22 -1 -8 6 -14 14 -14 16 0 3 6 0 13 -6 8 -6 18 -7
22 -3z m-1965 -8 c-20 -13 -33 -13 -25 0 3 6 14 10 23 10 15 0 15 -2 2 -10z
m80 -10 c0 -5 -5 -10 -11 -10 -5 0 -7 5 -4 10 3 6 8 10 11 10 2 0 4 -4 4 -10z
m-130 -10 c8 -5 10 -10 3 -10 -6 0 -9 -9 -6 -21 4 -16 11 -19 29 -15 15 4 24
2 24 -5 0 -8 5 -7 18 2 14 11 15 11 5 0 -6 -8 -25 -15 -41 -16 -23 -2 -32 3
-41 22 -6 13 -8 29 -5 35 4 5 -6 2 -22 -8 l-29 -18 19 22 c21 25 25 26 46 12z
m50 -25 c-40 -14 -48 -12 -31 8 7 9 22 12 38 9 l28 -5 -35 -12z m709 -2 c0
-11 -3 -13 -6 -5 -2 6 -9 10 -13 7 -5 -3 -11 -1 -15 5 -3 5 3 10 14 10 14 0
21 -6 20 -17z m-860 -19 c-7 -9 -22 -19 -33 -23 -20 -8 -31 -52 -12 -49 6 0
18 -2 27 -6 10 -5 28 5 54 28 52 48 58 38 7 -12 -33 -32 -45 -38 -71 -34 -28
4 -36 12 -32 35 3 17 -19 5 -39 -23 -15 -21 -17 -30 -8 -30 7 0 -1 -14 -19
-30 -21 -19 -38 -27 -52 -23 -12 3 -21 9 -21 14 0 5 -15 9 -32 10 -31 1 -32 1
-8 9 21 7 22 8 5 10 l-20 1 20 9 c11 4 24 4 30 -1 14 -13 27 -11 19 4 -4 6 -4
9 0 5 7 -6 49 21 121 77 18 14 64 41 74 44 2 1 -3 -6 -10 -15z m828 -30 c44
-27 94 -90 105 -131 19 -77 20 -83 10 -83 -6 0 -22 32 -37 70 -15 39 -31 70
-36 70 -6 0 -8 4 -4 10 9 15 -66 58 -114 64 -34 4 -55 1 -88 -15 -23 -11 -41
-25 -40 -31 3 -13 -30 -34 -39 -25 -10 10 34 55 76 78 42 23 124 20 167 -7z
m177 -15 c-7 -8 -14 -23 -14 -32 0 -19 -15 -23 -25 -7 -4 6 -8 24 -10 41 -4
28 -2 31 20 26 15 -2 25 0 25 7 0 6 5 4 10 -4 6 -10 4 -20 -6 -31z m-854 1 c0
-5 -4 -10 -10 -10 -5 0 -10 5 -10 10 0 6 5 10 10 10 6 0 10 -4 10 -10z m-74
-22 c-2 -14 -8 -18 -28 -18 -6 0 -3 7 8 15 23 18 23 18 20 3z m427 -40 c-2 -5
-11 -8 -19 -8 -8 0 -14 -4 -14 -10 0 -5 -5 -10 -11 -10 -8 0 -9 4 0 13 6 8 8
16 5 19 -3 3 6 5 19 4 14 0 23 -4 20 -8z m488 -13 c1 -8 3 -19 4 -25 1 -5 3
-15 4 -21 0 -5 5 -8 10 -4 5 3 12 1 16 -5 3 -5 1 -10 -5 -10 -6 0 -10 -8 -8
-17 5 -28 -30 -29 -36 -1 -17 80 -17 98 -1 98 8 0 16 -7 16 -15z m-1061 -5 c0
-5 -5 -10 -11 -10 -5 0 -7 5 -4 10 3 6 8 10 11 10 2 0 4 -4 4 -10z m58 -12
c-7 -13 -11 -26 -10 -30 1 -4 -5 -5 -13 -2 -19 8 -19 13 2 36 23 25 36 23 21
-4z m56 8 c-3 -8 -15 -17 -27 -20 -21 -5 -20 -4 3 14 30 24 31 24 24 6z m686
4 c0 -5 -5 -10 -11 -10 -5 0 -7 5 -4 10 3 6 8 10 11 10 2 0 4 -4 4 -10z m50
-7 c0 -7 10 -14 23 -14 16 -1 18 -2 5 -6 -10 -2 -18 -9 -18 -14 0 -5 -10 -9
-22 -9 -13 0 -29 -4 -36 -9 -8 -5 -24 -4 -38 3 -27 12 -31 25 -9 27 15 1 28 4
43 9 4 1 10 2 14 1 4 0 5 5 2 12 -3 8 3 13 16 13 11 0 20 -6 20 -13z m-1772
-15 c2 -9 -4 -18 -13 -21 -11 -5 -15 0 -15 19 0 28 23 29 28 2z m1502 -7 c-5
-11 -7 -21 -2 -24 4 -2 1 -2 -5 -1 -7 2 -14 -7 -14 -19 -1 -19 -2 -19 -6 -3
-4 14 -7 16 -13 6 -9 -14 -40 -7 -40 10 0 5 11 10 23 10 13 0 32 9 42 20 23
25 29 26 15 1z m-585 -1 c-3 -6 1 -13 10 -16 14 -6 14 -8 -1 -25 -18 -20 -10
-43 13 -35 11 5 13 2 9 -10 -5 -14 -4 -15 9 -4 10 9 12 17 5 30 -7 14 -5 19
11 23 17 5 18 3 7 -10 -9 -12 -10 -17 -2 -20 7 -2 10 -12 7 -23 -4 -15 -13
-18 -49 -17 -36 2 -41 4 -29 14 10 6 12 14 6 17 -5 4 -12 2 -16 -3 -4 -7 -15
-7 -31 -1 -14 6 -29 8 -34 5 -4 -3 -6 4 -3 14 6 23 43 36 43 16 0 -23 15 -25
28 -5 9 14 9 21 0 26 -7 5 -8 2 -3 -7 7 -12 6 -12 -6 -1 -12 11 -11 15 5 28
23 17 30 18 21 4z m1475 -15 c0 -6 -102 -151 -127 -181 -10 -12 -21 -20 -25
-17 -8 4 12 54 25 64 5 3 8 10 8 15 0 11 101 124 112 124 4 0 7 -2 7 -5z m809
-8 c8 -10 7 -14 -4 -14 -8 0 -16 6 -19 14 -3 7 -2 13 3 13 5 0 14 -6 20 -13z
m-2159 0 c0 -2 -10 -12 -21 -23 -22 -19 -22 -19 -10 4 10 18 31 31 31 19z
m538 -14 c6 -19 -25 -16 -32 3 -4 11 -1 14 11 12 9 -2 18 -9 21 -15z m537 -1
c-3 -3 -11 0 -18 7 -9 10 -8 11 6 5 10 -3 15 -9 12 -12z m-388 -24 c-3 -8 -6
-5 -6 6 -1 11 2 17 5 13 3 -3 4 -12 1 -19z m98 -16 c-15 -16 -16 -15 -4 12 7
15 15 23 17 16 3 -7 -3 -19 -13 -28z m-1248 6 c-3 -8 -6 -5 -6 6 -1 11 2 17 5
13 3 -3 4 -12 1 -19z m680 16 c-3 -3 -12 -4 -19 -1 -8 3 -5 6 6 6 11 1 17 -2
13 -5z m440 -9 c0 -8 -4 -12 -9 -9 -5 3 -6 10 -3 15 9 13 12 11 12 -6z m-676
-22 c-12 -20 -14 -14 -5 12 4 9 9 14 11 11 3 -2 0 -13 -6 -23z m304 17 c-8
-13 1 -13 28 1 18 9 20 9 10 -2 -17 -18 -16 -29 2 -29 8 0 15 -4 15 -10 0 -5
-9 -10 -19 -10 -11 0 -23 -5 -27 -11 -5 -9 1 -10 20 -5 14 3 26 3 26 -1 0 -14
-14 -28 -30 -31 -8 -2 -30 -10 -48 -18 -19 -9 -36 -13 -40 -9 -3 3 4 8 16 12
12 3 22 9 22 14 0 5 7 9 16 9 11 0 14 5 9 18 -14 33 -13 82 1 82 3 0 2 -4 -1
-10z m209 -5 c3 -9 0 -15 -9 -15 -9 0 -12 6 -9 15 4 8 7 15 9 15 2 0 5 -7 9
-15z m1000 9 c20 -8 11 -24 -15 -24 -19 0 -25 11 -12 23 8 8 8 8 27 1z m-1120
-19 c-4 -8 -8 -15 -10 -15 -2 0 -4 7 -4 15 0 8 4 15 10 15 5 0 7 -7 4 -15z
m156 -1 c0 -30 54 -102 90 -121 43 -22 130 -20 130 3 0 7 8 14 18 14 15 0 15
-2 2 -11 -11 -7 -2 -9 35 -8 81 3 95 1 89 -16 -4 -8 -10 -15 -16 -15 -5 0 -6
5 -3 11 4 6 -2 5 -14 -3 -12 -7 -21 -16 -21 -20 0 -5 -5 -8 -11 -8 -6 0 -8 7
-5 16 5 14 4 15 -9 4 -8 -7 -23 -9 -32 -5 -10 4 -56 8 -102 10 -80 3 -86 5
-117 37 -24 23 -36 47 -43 81 -5 26 -5 47 0 47 5 0 9 -7 9 -16z m494 0 c5 -14
4 -15 -9 -4 -17 14 -19 20 -6 20 5 0 12 -7 15 -16z m-602 -17 c-7 -8 -9 -17
-5 -20 3 -4 -1 -7 -10 -7 -9 0 -17 7 -17 16 0 8 5 12 10 9 6 -3 13 1 16 10 4
9 9 14 12 11 3 -3 0 -12 -6 -19z m-177 3 c3 -6 -1 -7 -9 -4 -18 7 -21 14 -7
14 6 0 13 -4 16 -10z m-435 -10 c0 -5 -5 -10 -11 -10 -5 0 -7 5 -4 10 3 6 8
10 11 10 2 0 4 -4 4 -10z m306 -15 c-40 -27 -51 -31 -41 -15 3 6 -1 10 -9 10
-8 0 -18 -4 -21 -10 -3 -5 -11 -10 -17 -10 -6 0 -5 6 3 16 7 9 22 14 35 11 12
-2 33 2 45 9 41 23 44 15 5 -11z m369 15 c-3 -5 -12 -10 -18 -10 -7 0 -6 4 3
10 19 12 23 12 15 0z m417 -5 c-2 -4 0 -11 5 -14 5 -3 6 -19 2 -36 l-7 -30 -1
29 c-1 20 -5 27 -15 23 -9 -4 -16 3 -19 18 -3 20 0 24 17 21 12 -2 19 -7 18
-11z m-1932 -5 c0 -5 -9 -10 -21 -10 -11 0 -17 5 -14 10 3 6 13 10 21 10 8 0
14 -4 14 -10z m3211 -7 c13 -16 12 -17 -3 -4 -17 13 -22 21 -14 21 2 0 10 -8
17 -17z m-2241 -3 c-8 -5 -10 -10 -5 -10 6 0 -1 -7 -15 -15 -19 -10 -28 -11
-39 -2 -10 9 -6 14 20 23 42 15 59 17 39 4z m240 0 c-8 -5 -19 -10 -25 -10 -5
0 -3 5 5 10 8 5 20 10 25 10 6 0 3 -5 -5 -10z m-1131 -59 c-1 -14 -2 -13 -6 2
-2 9 -11 17 -19 17 -8 0 -14 10 -14 23 l1 22 19 -24 c11 -13 19 -31 19 -40z
m1355 43 c9 -8 16 -11 16 -5 0 6 5 11 10 11 7 0 7 -6 1 -19 -9 -15 -7 -18 12
-17 24 2 54 -21 43 -32 -4 -3 -11 -1 -15 6 -6 10 -11 9 -22 -4 -10 -13 -10
-16 -1 -10 7 4 19 2 27 -4 8 -6 20 -8 26 -4 8 4 9 3 5 -4 -4 -7 -2 -12 3 -12
6 0 12 -12 12 -27 1 -23 3 -24 6 -6 5 27 28 36 43 18 9 -11 7 -12 -9 -8 -12 3
-21 1 -21 -6 0 -6 6 -11 13 -11 6 0 3 -7 -8 -16 -18 -13 -17 -14 13 -8 26 5
32 3 32 -11 0 -13 6 -16 25 -13 14 3 25 1 25 -3 0 -5 12 -4 26 1 14 6 37 10
51 10 21 0 23 -3 14 -14 -7 -9 -8 -17 -3 -20 6 -3 12 0 15 8 3 7 21 16 41 20
20 4 40 15 46 26 6 11 7 20 3 20 -10 1 28 30 39 30 4 0 8 -5 8 -11 0 -5 -4 -7
-10 -4 -5 3 -11 0 -11 -7 -1 -7 -2 -19 -3 -26 0 -7 -19 -23 -41 -36 -22 -12
-39 -27 -38 -33 1 -6 -22 -10 -59 -9 -34 1 -56 0 -50 -2 23 -7 11 -19 -14 -14
-15 3 -29 13 -31 23 -7 24 -14 24 -43 -3 -18 -17 -20 -23 -9 -26 21 -7 42 -45
22 -40 -5 0 -16 -2 -26 -7 -13 -5 -15 -10 -7 -15 8 -5 7 -9 -4 -13 -9 -4 -16
-2 -16 2 0 5 -8 7 -18 4 -14 -3 -19 1 -18 19 1 13 6 26 11 30 6 5 4 8 -4 8
-19 0 -61 -39 -61 -56 0 -8 6 -11 15 -8 23 9 18 -6 -10 -28 -14 -11 -23 -23
-20 -28 3 -4 -3 -14 -13 -21 -14 -10 -15 -10 -5 0 7 8 8 23 3 41 -6 20 -4 32
9 45 15 16 15 17 -4 13 -13 -2 -20 -11 -19 -25 0 -12 -2 -20 -6 -18 -8 5 -21
-5 -45 -34 -17 -21 -18 -23 -3 -18 10 3 20 2 23 -4 11 -16 -24 -22 -40 -6 -13
14 -12 18 13 45 15 16 28 40 30 53 1 13 4 34 5 46 3 29 27 55 27 29 0 -23 21
-16 31 11 12 33 -17 37 -46 5 -14 -15 -25 -21 -25 -14 0 6 -4 12 -10 12 -5 0
-10 -6 -10 -14 0 -14 -29 -30 -38 -21 -3 3 -1 5 5 5 6 0 16 12 22 28 6 15 18
37 27 50 10 13 12 22 5 22 -6 0 -11 -7 -11 -15 0 -9 -12 -18 -29 -21 -17 -4
-46 -22 -65 -42 -36 -36 -50 -66 -19 -41 9 8 14 9 10 2 -4 -6 -1 -13 5 -16 10
-3 10 -7 -1 -20 -7 -9 -17 -14 -23 -11 -5 3 -5 11 2 19 9 10 7 13 -7 11 -10
-1 -26 -17 -35 -36 -9 -18 -23 -38 -29 -44 -9 -8 -9 -6 0 7 10 13 11 17 1 17
-9 0 -9 4 1 16 8 9 14 23 14 30 0 8 3 13 7 11 8 -3 58 44 58 55 0 5 16 24 35
44 19 19 35 44 35 54 0 24 -6 25 -27 5 -8 -9 -18 -13 -21 -10 -18 18 78 58
117 48 10 -2 22 1 26 8 5 7 4 10 -3 5 -6 -3 -13 -2 -17 3 -3 6 -13 7 -21 4 -9
-3 -20 0 -26 8 -7 11 -11 11 -15 1 -5 -12 -55 -42 -70 -42 -4 0 3 9 17 20 l25
20 -30 0 c-29 1 -29 2 10 16 22 8 48 13 57 10 9 -2 25 2 35 10 17 13 17 13 1
14 -18 0 -23 11 -11 23 10 11 20 8 37 -9z m-446 -24 c-16 -16 -32 -30 -36 -30
-3 0 7 14 23 30 16 17 32 30 36 30 4 0 -6 -13 -23 -30z m1027 3 c0 -21 -1 -22
-12 -6 -7 9 -13 20 -13 23 0 4 6 7 13 7 6 0 12 -11 12 -24z m338 -2 c-3 -12
-11 -17 -23 -14 -17 4 -17 6 -2 23 19 22 32 18 25 -9z m-1463 -11 c0 -5 8 -7
18 -3 14 5 15 3 5 -8 -16 -16 -17 -33 -3 -24 12 8 3 -44 -10 -59 -12 -12 -30
2 -24 19 4 8 10 12 15 9 5 -3 6 2 2 11 -4 12 -14 16 -34 13 -35 -5 -36 -1 -7
29 23 24 38 30 38 13z m180 3 c-1 -18 -28 -44 -35 -34 -3 6 -1 11 4 11 6 0 10
3 10 8 -3 14 1 22 11 22 6 0 10 -3 10 -7z m167 -20 c-20 -47 -37 -78 -37 -70
0 4 -15 0 -32 -9 l-33 -16 30 33 c16 19 36 39 43 46 8 6 11 17 6 24 -4 7 -3
10 4 5 6 -3 13 -2 17 4 13 20 14 9 2 -17z m3761 -8 c-3 -3 -9 2 -12 12 -6 14
-5 15 5 6 7 -7 10 -15 7 -18z m-3988 8 c0 -5 -5 -15 -11 -23 -9 -13 -10 -13
-6 2 3 9 1 19 -6 22 -7 2 -4 5 6 5 9 1 17 -2 17 -6z m126 -15 c-3 -13 -6 -28
-6 -34 0 -7 -7 -15 -16 -18 -12 -4 -15 -2 -10 9 3 8 1 15 -4 15 -6 0 -10 -5
-10 -12 0 -6 -3 -9 -6 -5 -7 7 36 67 49 67 5 0 7 -10 3 -22z m-926 -24 c0 -8
-4 -14 -10 -14 -5 0 -10 9 -10 21 0 11 5 17 10 14 6 -3 10 -13 10 -21z m770
16 c0 -5 -5 -10 -11 -10 -5 0 -7 5 -4 10 3 6 8 10 11 10 2 0 4 -4 4 -10z
m-2360 -10 c0 -5 -5 -10 -11 -10 -5 0 -7 5 -4 10 3 6 8 10 11 10 2 0 4 -4 4
-10z m2428 -17 c16 -16 16 -16 -1 -10 -10 4 -23 7 -28 7 -6 0 -7 5 -4 10 9 14
14 13 33 -7z m989 2 c0 -8 -4 -15 -9 -15 -10 0 -11 14 -1 23 9 10 10 9 10 -8z
m278 5 c17 -6 24 -14 19 -22 -6 -10 -5 -10 7 -1 16 13 59 7 59 -9 0 -5 4 -7 8
-4 5 3 9 -1 9 -8 0 -13 -43 -10 -52 4 -6 10 -45 1 -45 -11 0 -5 -7 -9 -16 -9
-11 0 -14 6 -8 23 3 12 3 19 -1 15 -4 -4 -17 -2 -29 4 -22 12 -23 11 21 27 1
1 14 -3 28 -9z m-1315 -21 c0 -5 -4 -9 -10 -9 -5 0 -10 7 -10 16 0 8 5 12 10
9 6 -3 10 -10 10 -16z m680 -9 c0 -5 -2 -10 -4 -10 -3 0 -8 5 -11 10 -3 6 -1
10 4 10 6 0 11 -4 11 -10z m1641 -7 c13 -16 12 -17 -3 -4 -17 13 -22 21 -14
21 2 0 10 -8 17 -17z m-4705 -22 c-12 -19 -24 -12 -19 10 4 13 9 17 15 11 6
-6 7 -15 4 -21z m2632 17 c8 -8 6 -18 -10 -40 -11 -16 -23 -27 -26 -24 -3 3 3
15 13 26 16 18 16 20 2 20 -10 0 -14 5 -11 15 7 18 16 19 32 3z m467 2 c3 -5
1 -10 -4 -10 -6 0 -11 5 -11 10 0 6 2 10 4 10 3 0 8 -4 11 -10z m-2918 -37
c-3 -10 -5 -4 -5 12 0 17 2 24 5 18 2 -7 2 -21 0 -30z m2151 5 c-3 -31 -1 -33
27 -30 27 2 28 1 10 -10 -11 -6 -26 -19 -33 -27 -11 -14 -11 -14 -6 2 3 9 1
17 -5 17 -6 0 -11 7 -11 15 0 8 -6 15 -12 15 -9 0 -9 3 -2 8 6 4 13 15 17 25
10 28 19 20 15 -15z m702 22 c8 -5 12 -11 9 -14 -3 -3 -14 1 -25 9 -21 16 -8
20 16 5z m195 -13 c6 -5 3 -7 -7 -3 -10 3 -18 0 -18 -6 0 -6 -2 -9 -5 -6 -3 3
-3 13 1 22 4 9 9 13 13 9 3 -4 11 -12 16 -16z m426 -5 c-9 -3 -7 -10 5 -23 9
-10 12 -19 6 -19 -20 0 -34 38 -20 54 9 9 14 10 17 3 2 -6 -1 -13 -8 -15z
m189 17 c0 -5 6 -7 13 -3 9 5 9 4 -1 -7 -10 -11 -15 -10 -29 4 -16 16 -16 17
0 17 9 0 17 -5 17 -11z m-1564 -61 c-20 -14 -30 11 -16 39 l13 28 7 -30 c3
-17 1 -33 -4 -37z m160 17 c-10 -43 -27 -57 -41 -35 -3 6 -1 10 4 10 6 0 11 7
11 16 0 9 -5 13 -12 9 -7 -4 1 5 17 19 17 14 30 26 31 26 0 0 -4 -20 -10 -45z
m129 35 c-3 -5 -16 -15 -28 -21 -19 -9 -19 -8 3 10 28 23 34 26 25 11z m155 6
c0 -3 -4 -8 -10 -11 -5 -3 -10 -1 -10 4 0 6 5 11 10 11 6 0 10 -2 10 -4z m450
-6 c0 -5 -5 -10 -11 -10 -5 0 -7 5 -4 10 3 6 8 10 11 10 2 0 4 -4 4 -10z m255
-30 c9 -28 -4 -87 -16 -69 -4 7 -11 10 -15 7 -8 -8 -34 16 -34 32 0 6 -5 8
-12 4 -9 -5 -9 -2 1 9 16 20 25 23 15 5 -5 -10 -4 -10 5 -2 7 6 13 20 14 32 1
16 5 19 18 11 10 -5 21 -18 24 -29z m-3197 13 c2 -8 -5 -13 -17 -13 -12 0 -21
6 -21 16 0 18 31 15 38 -3z m2266 -5 c-15 -17 -16 -20 -3 -16 19 7 19 -26 -1
-45 -10 -10 -11 -9 -5 2 5 9 4 12 -3 7 -7 -4 -12 -19 -12 -33 0 -19 -4 -24
-16 -19 -9 3 -17 6 -19 6 -1 0 6 17 16 37 10 21 19 43 19 50 0 6 8 17 18 22
26 15 27 13 6 -11z m613 16 c-3 -3 -12 -4 -19 -1 -8 3 -5 6 6 6 11 1 17 -2 13
-5z m-440 -34 c-26 -22 -32 -19 -18 9 7 12 17 18 26 15 12 -5 10 -10 -8 -24z
m1018 20 c3 -5 1 -10 -4 -10 -6 0 -11 5 -11 10 0 6 2 10 4 10 3 0 8 -4 11 -10z
m2258 3 c-7 -2 -19 -2 -25 0 -7 3 -2 5 12 5 14 0 19 -2 13 -5z m-4359 -28 c-4
-8 -13 -15 -22 -15 -13 0 -12 3 4 15 24 18 25 18 18 0z m1641 -15 c7 -12 -32
-56 -41 -47 -4 4 -13 2 -21 -4 -10 -9 -13 -8 -13 0 0 7 -4 10 -9 6 -5 -3 -12
-1 -16 5 -6 10 12 14 54 10 17 -1 22 2 18 13 -9 24 15 38 28 17z m-615 -4 c0
-3 -4 -8 -10 -11 -5 -3 -10 -1 -10 4 0 6 5 11 10 11 6 0 10 -2 10 -4z m1064
-7 c-2 -4 8 -20 23 -34 16 -15 22 -25 14 -23 -23 7 -64 65 -46 65 8 0 12 -4 9
-8z m67 -6 c13 -16 12 -17 -3 -4 -17 13 -22 21 -14 21 2 0 10 -8 17 -17z
m-1480 -41 c-6 -2 -8 -8 -5 -13 3 -6 11 -5 20 2 22 18 29 3 10 -25 -16 -25 -7
-44 14 -31 6 3 10 -3 10 -15 0 -12 -4 -18 -10 -15 -5 3 -10 -1 -10 -9 0 -17
-38 -41 -48 -31 -4 4 1 11 11 16 20 12 23 51 5 71 -14 15 -38 55 -38 62 0 3
10 6 23 8 23 3 39 -13 18 -20z m139 18 c0 -5 -5 -10 -11 -10 -5 0 -7 5 -4 10
3 6 8 10 11 10 2 0 4 -4 4 -10z m123 -1 c-6 -6 -9 -17 -7 -24 3 -7 1 -16 -5
-20 -7 -3 -8 0 -5 9 3 9 1 16 -5 16 -14 0 9 29 24 30 5 0 4 -5 -2 -11z m1157
-32 c18 -25 19 -28 4 -14 -11 9 -25 17 -31 17 -6 0 -13 9 -16 19 -7 27 12 17
43 -22z m-1270 3 c-6 -11 -16 -20 -22 -20 -6 0 -3 9 7 20 10 11 20 20 22 20 2
0 -1 -9 -7 -20z m351 -13 c-13 -12 -20 -15 -15 -7 12 22 28 39 33 34 3 -3 -6
-15 -18 -27z m609 23 c0 -5 -4 -10 -10 -10 -5 0 -10 5 -10 10 0 6 5 10 10 10
6 0 10 -4 10 -10z m-181 -26 c-9 -11 -15 -12 -26 -3 -17 14 1 31 24 22 10 -4
11 -9 2 -19z m631 10 c0 -2 -7 -4 -15 -4 -8 0 -15 4 -15 10 0 5 7 7 15 4 8 -4
15 -8 15 -10z m-1081 2 c-2 -2 -15 -9 -29 -15 -24 -11 -24 -11 -6 3 16 13 49
24 35 12z m165 -11 c-6 -16 -24 -21 -24 -7 0 11 11 22 21 22 5 0 6 -7 3 -15z
m291 -25 c-3 -5 -12 -10 -18 -10 -7 0 -6 4 3 10 19 12 23 12 15 0z m-770 -31
c-10 -15 -25 -10 -19 6 4 8 10 12 15 9 5 -3 7 -10 4 -15z m58 6 c-3 -9 -8 -14
-10 -11 -3 3 -2 9 2 15 9 16 15 13 8 -4z m37 0 c-7 -9 -15 -13 -19 -10 -3 3 1
10 9 15 21 14 24 12 10 -5z m215 6 c3 -5 1 -12 -4 -15 -5 -3 -11 1 -15 9 -6
16 9 21 19 6z m-385 -11 c0 -5 -7 -10 -16 -10 -8 0 -12 5 -9 10 3 6 10 10 16
10 5 0 9 -4 9 -10z m310 -35 c-7 -9 -15 -13 -18 -10 -3 2 1 11 8 20 7 9 15 13
18 10 3 -2 -1 -11 -8 -20z m-310 -11 c0 -14 -4 -23 -10 -19 -5 3 -10 15 -10
26 0 10 5 19 10 19 6 0 10 -12 10 -26z m53 -15 c-29 -10 -44 0 -31 20 10 17
13 17 30 2 17 -15 17 -16 1 -22z m77 37 c0 -2 -7 -9 -15 -16 -13 -11 -14 -10
-9 4 5 14 24 23 24 12z m11 -19 c-10 -9 -11 -8 -5 6 3 10 9 15 12 12 3 -3 0
-11 -7 -18z m26 -29 c-3 -8 -6 -5 -6 6 -1 11 2 17 5 13 3 -3 4 -12 1 -19z m74
-15 c-8 -15 -10 -15 -11 -2 0 17 10 32 18 25 2 -3 -1 -13 -7 -23z m45 -1 c-18
-16 -18 -16 -6 6 6 13 14 21 18 18 3 -4 -2 -14 -12 -24z m274 18 c-8 -5 -11
-10 -7 -10 10 0 -47 -50 -57 -50 -3 0 -6 4 -6 10 0 14 53 60 70 60 13 0 13 -1
0 -10z m832 -12 c-7 -7 -12 -8 -12 -2 0 6 3 14 7 17 3 4 9 5 12 2 2 -3 -1 -11
-7 -17z m-957 -8 c3 -5 1 -10 -4 -10 -6 0 -11 5 -11 10 0 6 2 10 4 10 3 0 8
-4 11 -10z m489 -5 c-4 -8 -11 -15 -16 -15 -6 0 -5 6 2 15 7 8 14 15 16 15 2
0 1 -7 -2 -15z m424 -3 c2 -6 -5 -8 -18 -5 -29 8 -36 24 -9 20 13 -2 25 -9 27
-15z m-1392 -34 c-9 -5 -14 -13 -11 -18 3 -4 -6 -7 -20 -6 -14 0 -25 4 -25 7
0 12 29 31 38 25 6 -3 13 4 17 17 7 20 8 20 12 3 3 -11 -2 -23 -11 -28z m404
23 c0 -5 -13 -19 -30 -31 -24 -17 -30 -18 -30 -6 0 12 25 31 58 45 1 1 2 -3 2
-8z m-275 -41 c-17 -19 -41 -18 -29 1 3 5 9 7 14 4 5 -3 12 5 16 17 4 14 9 18
12 10 2 -7 -4 -22 -13 -32z m160 31 c3 -5 1 -12 -5 -16 -5 -3 -10 1 -10 9 0
18 6 21 15 7z m1275 -15 c0 -8 -4 -17 -8 -20 -4 -2 -8 4 -8 15 0 10 4 19 8 19
4 0 8 -6 8 -14z m-1057 -11 c-3 -9 -8 -14 -10 -11 -3 3 -2 9 2 15 9 16 15 13
8 -4z m-485 -14 c-9 -15 -7 -23 15 -47 23 -24 24 -30 11 -37 -9 -5 -21 -4 -29
3 -8 6 -18 9 -23 7 -4 -3 -14 -1 -22 5 -13 8 -12 9 2 5 16 -6 35 20 23 31 -3
3 -5 0 -5 -8 0 -10 -3 -10 -15 0 -12 10 -15 10 -15 0 0 -8 -3 -11 -6 -7 -3 3
-1 14 5 24 8 13 10 14 11 3 0 -10 8 -6 25 13 30 31 40 35 23 8z m178 -22 c-4
-23 -16 -53 -26 -67 -22 -28 -27 -17 -5 11 7 11 17 36 20 58 4 21 9 39 12 39
3 0 3 -19 -1 -41z m199 31 c-3 -5 -11 -10 -16 -10 -6 0 -7 5 -4 10 3 6 11 10
16 10 6 0 7 -4 4 -10z m51 -27 c-11 -11 -17 4 -9 23 7 18 8 18 11 1 2 -10 1
-21 -2 -24z m104 33 c0 -3 -4 -8 -10 -11 -5 -3 -10 -1 -10 4 0 6 5 11 10 11 6
0 10 -2 10 -4z m-410 -31 c0 -8 -4 -15 -10 -15 -5 0 -7 7 -4 15 4 8 8 15 10
15 2 0 4 -7 4 -15z m-2622 -7 c16 -16 15 -45 0 -51 -8 -3 -6 -6 5 -6 14 -1 16
-5 8 -20 -12 -21 -5 -69 12 -90 9 -11 9 -15 0 -18 -7 -3 -13 -13 -13 -23 0
-10 -9 -20 -20 -23 -11 -3 -20 -11 -20 -17 0 -7 8 -10 19 -7 17 4 19 -1 17
-44 -1 -37 -4 -48 -14 -44 -8 3 -17 5 -20 5 -4 0 -7 20 -8 45 0 25 -6 51 -13
58 -10 9 -10 6 -2 -15 8 -20 7 -28 -5 -32 -14 -5 -19 10 -15 44 7 66 7 101 0
105 -4 3 -4 17 1 31 6 14 10 35 10 48 0 20 28 66 41 66 3 0 10 -5 17 -12z
m3962 -29 c0 -5 -4 -9 -10 -9 -5 0 -10 7 -10 16 0 8 5 12 10 9 6 -3 10 -10 10
-16z m-1080 -4 c-7 -9 -15 -13 -17 -11 -7 7 7 26 19 26 6 0 6 -6 -2 -15z m25
-45 c-18 -20 -45 -27 -45 -12 0 9 37 30 54 31 5 1 1 -8 -9 -19z m157 -15 c-2
-4 2 -12 10 -16 10 -7 8 -10 -9 -15 -13 -4 -21 -10 -18 -14 4 -7 -106 -23
-112 -16 -2 2 9 16 23 31 21 22 28 25 35 14 7 -11 11 -10 24 8 14 19 55 27 47
8z m953 -4 c3 -5 -3 -12 -12 -14 -14 -4 -14 -5 3 -6 12 0 24 -8 28 -16 5 -13
2 -14 -23 -1 -15 8 -28 22 -28 30 0 17 22 22 32 7z m-1245 -5 c0 -2 -8 -10
-17 -17 -16 -13 -17 -12 -4 4 13 16 21 21 21 13z m1527 -18 c-3 -8 -6 -5 -6 6
-1 11 2 17 5 13 3 -3 4 -12 1 -19z m-1437 -17 c0 -5 -7 -14 -15 -21 -16 -14
-18 -10 -9 14 6 17 24 22 24 7z m35 -28 c0 -14 -5 -28 -12 -30 -12 -4 -11 26
2 47 9 15 11 12 10 -17z m1165 -29 c9 -10 7 -13 -9 -11 -11 1 -18 3 -16 6 3 2
-3 10 -13 17 -15 12 -15 12 5 7 12 -3 27 -11 33 -19z m-1215 6 c-3 -5 -12 -10
-18 -10 -7 0 -6 4 3 10 19 12 23 12 15 0z m110 -10 c-10 -11 -20 -18 -23 -16
-5 6 21 35 32 36 5 0 1 -9 -9 -20z m1240 2 c-3 -3 -11 0 -18 7 -9 10 -8 11 6
5 10 -3 15 -9 12 -12z m-1648 -19 c5 -14 -35 -24 -43 -11 -7 11 15 29 30 25 6
-2 11 -8 13 -14z m1474 -16 c12 -22 12 -22 -10 -3 -11 11 -21 23 -21 28 0 14
19 -1 31 -25z m-1027 14 c5 -8 -29 -25 -46 -22 -5 1 -8 -3 -8 -9 0 -5 -6 -10
-12 -10 -7 1 1 12 17 25 33 27 41 30 49 16z m-448 -58 c-11 -11 -19 6 -11 24
8 17 8 17 12 0 3 -10 2 -21 -1 -24z m1486 -35 c-1 -5 3 -8 10 -8 6 0 8 -3 5
-6 -9 -10 -59 25 -52 36 4 6 -2 11 -12 11 -16 1 -16 2 -1 6 11 3 15 11 11 21
-3 9 5 1 18 -18 13 -19 22 -38 21 -42z m-1526 26 c3 -36 11 -40 35 -18 21 19
21 18 52 -16 20 -23 26 -35 17 -38 -14 -5 -31 18 -23 31 3 5 -3 7 -13 5 -12
-2 -20 -13 -22 -31 -3 -27 3 -31 38 -28 12 1 11 -1 -2 -12 -10 -8 -18 -24 -18
-36 0 -20 -2 -21 -15 -7 -8 8 -15 22 -15 30 0 9 -5 16 -11 16 -6 0 -9 6 -6 14
4 9 -4 16 -24 20 -33 6 -41 39 -12 50 15 6 15 8 3 17 -13 8 -13 10 0 19 8 5
15 10 15 10 0 0 1 -12 1 -26z m-2466 -26 c0 -12 -1 -19 -3 -17 -1 2 -9 12 -16
22 -12 14 -11 17 3 17 10 0 16 -8 16 -22z m654 8 c-7 -19 16 -32 28 -15 7 10
8 8 3 -7 -4 -17 5 -29 49 -63 71 -53 88 -54 84 -3 -2 20 -7 35 -12 34 -16 -6
-28 27 -17 46 6 9 11 13 11 7 0 -5 4 -4 9 4 8 12 12 12 25 2 9 -8 16 -21 16
-30 1 -13 3 -13 16 4 14 19 16 19 25 3 6 -10 16 -18 23 -18 8 0 13 -8 12 -17
-1 -12 5 -17 17 -15 15 3 17 0 8 -17 -6 -11 -8 -27 -5 -35 3 -9 1 -16 -5 -16
-13 0 -15 -36 -2 -44 5 -4 12 0 14 6 4 10 8 10 15 -1 6 -8 17 -11 31 -6 15 4
29 1 41 -10 15 -13 22 -14 37 -4 35 21 72 -1 102 -59 33 -65 50 -71 98 -34 21
17 73 42 115 56 122 41 227 32 323 -29 28 -17 57 -34 65 -38 8 -4 25 -14 38
-23 22 -16 23 -16 35 15 6 17 19 31 28 31 19 0 72 25 113 53 23 16 30 17 36 6
7 -11 12 -10 27 3 10 8 25 18 33 21 9 3 6 6 -10 6 -33 1 -11 24 24 24 14 0 23
3 20 8 -5 9 9 13 34 10 6 -1 12 5 12 14 0 9 9 15 25 15 19 0 25 5 25 23 0 17
2 19 9 7 6 -8 8 -17 6 -21 -3 -3 5 -16 16 -27 l20 -22 -22 0 c-14 0 -19 -5
-16 -14 4 -10 1 -13 -9 -9 -8 3 -13 12 -10 19 6 17 -15 19 -31 3 -13 -13 30
-60 50 -55 6 1 9 1 5 -1 -14 -8 12 -42 26 -37 9 3 17 -3 21 -15 3 -12 15 -21
26 -21 10 0 19 -4 19 -10 0 -5 5 -10 10 -10 6 0 9 5 8 11 -2 7 9 15 25 20 20
5 27 4 27 -6 0 -7 -6 -16 -12 -19 -7 -3 -1 -4 14 -2 15 1 25 -1 22 -6 -3 -4 2
-11 10 -14 9 -3 16 -14 16 -23 0 -9 5 -23 10 -31 9 -13 11 -13 19 -1 7 10 9 4
8 -20 -2 -34 2 -37 36 -24 13 6 17 2 17 -16 0 -18 3 -20 9 -10 5 7 6 22 4 32
-4 15 0 19 23 19 26 -1 27 -2 11 -14 -16 -12 -15 -14 13 -20 25 -4 30 -10 28
-28 -2 -13 -7 -29 -12 -37 -5 -8 -3 -16 5 -22 11 -6 8 -9 -8 -9 -12 0 -25 -4
-28 -10 -10 -16 -23 -12 -21 6 0 9 -5 19 -11 21 -8 3 -13 -4 -13 -15 0 -13
-11 -24 -32 -32 -18 -6 -41 -16 -50 -21 -10 -5 -34 -9 -55 -9 -20 0 -51 -5
-69 -12 -18 -6 -40 -8 -50 -3 -11 4 -39 9 -64 10 -69 3 -72 4 -67 18 3 8 -4
14 -19 15 -24 2 -51 -30 -46 -55 2 -8 -8 -13 -23 -13 -16 0 -24 -4 -20 -10 4
-7 -2 -9 -19 -4 -16 4 -26 2 -26 -5 0 -10 -57 -29 -109 -36 -43 -5 -207 -89
-248 -127 -42 -39 -84 -2 -81 71 1 22 -3 46 -9 53 -20 26 -44 113 -32 117 8 2
7 6 -2 12 -10 6 -11 9 -1 9 6 0 12 7 12 16 0 9 6 30 14 47 7 18 17 46 22 62 6
20 20 35 42 44 38 17 39 22 10 41 -16 9 -63 15 -146 18 l-124 4 -39 -38 c-21
-21 -39 -41 -39 -44 0 -4 17 -24 38 -46 53 -55 65 -80 45 -99 -12 -12 -14 -30
-10 -78 3 -34 9 -73 13 -87 7 -24 7 -24 -10 -7 -20 20 -47 22 -65 5 -8 -8 -11
-8 -8 -2 9 16 -60 48 -100 47 -18 0 -33 3 -33 8 0 5 -7 9 -15 9 -8 0 -15 -4
-15 -8 0 -4 -15 -8 -32 -7 -35 0 -39 11 -23 63 11 35 -15 27 -67 -20 -42 -39
-98 -78 -111 -78 -3 0 -2 13 3 29 6 22 3 37 -12 62 -16 26 -19 45 -15 88 2 31
7 63 11 71 4 10 -11 34 -42 68 -39 42 -55 52 -80 52 -18 0 -32 4 -32 9 0 5
-16 12 -36 16 -44 8 -114 73 -114 107 0 13 -4 30 -10 38 -6 9 -5 17 3 22 9 5
7 11 -5 20 -10 7 -20 33 -24 57 -7 41 -6 43 15 36 12 -4 27 -2 34 3 7 6 28 15
47 20 19 6 36 11 37 11 1 1 0 -5 -3 -13z m2227 -19 l-23 -22 17 28 c10 15 20
25 23 22 3 -3 -5 -16 -17 -28z m1174 -7 c10 -11 16 -20 13 -20 -3 0 -15 9 -28
20 -13 11 -19 20 -13 20 5 0 18 -9 28 -20z m-1225 0 c0 -5 -5 -10 -11 -10 -5
0 -7 5 -4 10 3 6 8 10 11 10 2 0 4 -4 4 -10z m-2330 -14 c0 -11 -19 -15 -25
-6 -3 5 1 10 9 10 9 0 16 -2 16 -4z m2330 -40 c-14 -14 -24 0 -16 21 6 15 8
15 16 3 6 -9 5 -19 0 -24z m-470 2 c0 -16 -3 -19 -11 -11 -6 6 -8 16 -5 22 11
17 16 13 16 -11z m60 12 c0 -5 -7 -7 -15 -4 -8 4 -15 8 -15 10 0 2 7 4 15 4 8
0 15 -4 15 -10z m-2390 -29 c0 -6 -4 -13 -10 -16 -5 -3 -10 1 -10 9 0 9 5 16
10 16 6 0 10 -4 10 -9z m2329 -27 c2 -2 -8 -6 -23 -10 -28 -7 -36 -24 -11 -24
8 0 15 -4 15 -10 0 -5 -13 -8 -28 -7 -25 2 -29 6 -30 35 -1 33 -1 33 36 26 20
-4 39 -8 41 -10z m188 -6 c-3 -8 -6 -5 -6 6 -1 11 2 17 5 13 3 -3 4 -12 1 -19z
m1517 -17 c-7 -7 -34 21 -28 31 3 5 12 1 19 -9 7 -10 12 -20 9 -22z m-1234 25
c0 -3 -4 -8 -10 -11 -5 -3 -10 -1 -10 4 0 6 5 11 10 11 6 0 10 -2 10 -4z
m-2758 -30 c5 -8 8 -7 8 2 0 6 5 12 10 12 6 0 10 -9 10 -20 0 -10 7 -23 16
-28 9 -5 14 -15 12 -23 -6 -17 10 -51 21 -45 4 3 14 -11 21 -30 13 -32 16 -34
45 -28 16 4 38 7 49 6 10 0 20 7 23 18 3 11 9 17 14 14 5 -3 18 0 28 6 17 9
28 3 74 -42 30 -29 57 -66 61 -81 9 -37 -20 -87 -51 -88 -28 -2 -30 -2 -67
-18 -25 -10 -34 -8 -72 14 l-43 25 -16 -30 c-11 -22 -23 -30 -43 -31 -15 0
-51 -2 -81 -3 -47 -3 -58 0 -81 23 -14 14 -25 35 -24 46 3 22 4 61 4 85 0 8 1
34 3 58 1 23 0 42 -3 42 -3 0 -11 14 -18 30 -8 17 -20 30 -28 30 -8 0 -14 9
-14 20 0 42 118 72 142 36z m2486 -31 c-3 -3 -9 2 -12 12 -6 14 -5 15 5 6 7
-7 10 -15 7 -18z m115 -3 c-10 -10 -20 -14 -22 -9 -2 5 3 13 10 18 24 15 30
10 12 -9z m-368 -12 c-3 -5 -10 -10 -16 -10 -5 0 -9 5 -9 10 0 6 7 10 16 10 8
0 12 -4 9 -10z m555 -16 c0 -14 -4 -23 -9 -20 -5 3 -7 15 -4 26 7 28 13 25 13
-6z m1170 -33 c-1 -12 -5 -10 -20 8 -26 30 -26 49 0 26 11 -10 20 -25 20 -34z
m11 -48 c13 -16 12 -17 -3 -4 -10 7 -18 15 -18 17 0 8 8 3 21 -13z m54 -33 c3
-5 1 -10 -4 -10 -6 0 -11 5 -11 10 0 6 2 10 4 10 3 0 8 -4 11 -10z m-1448 -46
c2 -10 0 -13 -3 -6 -5 10 -9 10 -20 1 -22 -18 -39 -6 -19 14 21 21 39 17 42
-9z m1403 -36 c0 -8 3 -18 8 -24 4 -5 0 -2 -9 8 -9 9 -19 14 -23 11 -3 -4 -6
6 -6 21 0 24 2 26 15 12 8 -8 15 -21 15 -28z m47 20 c-3 -8 -6 -5 -6 6 -1 11
2 17 5 13 3 -3 4 -12 1 -19z m-1343 -67 c3 -5 -1 -11 -9 -14 -9 -4 -12 -1 -8
9 6 16 10 17 17 5z m836 -143 c0 -7 -5 -6 -13 1 -8 6 -17 8 -21 4 -4 -4 -4 0
0 10 5 14 9 15 20 6 8 -6 14 -16 14 -21z m487 -20 c-3 -8 -6 -5 -6 6 -1 11 2
17 5 13 3 -3 4 -12 1 -19z m-311 -17 c-3 -5 1 -12 10 -15 8 -3 12 -11 9 -17
-5 -7 -13 -4 -25 8 -12 12 -14 20 -6 25 15 10 18 10 12 -1z m-126 -68 c0 5 5
5 10 2 6 -4 8 -11 4 -16 -7 -12 -34 8 -34 25 0 6 5 4 10 -4 5 -8 10 -11 10 -7z
m-2690 -93 c-6 -4 -10 -22 -8 -41 2 -27 -3 -39 -24 -57 -21 -18 -31 -20 -52
-12 -15 5 -26 17 -26 28 0 29 93 107 113 95 5 -3 4 -9 -3 -13z m446 4 c-18
-18 -20 -30 -7 -39 6 -3 14 3 20 12 5 10 13 15 16 11 10 -9 -20 -38 -38 -38
-16 0 -32 44 -22 60 4 6 15 10 26 10 19 0 19 -1 5 -16z m2654 -9 c0 -8 -2 -15
-4 -15 -2 0 -6 7 -10 15 -3 8 -1 15 4 15 6 0 10 -7 10 -15z m-2615 -75 c10
-11 14 -20 9 -20 -5 0 -15 9 -22 20 -7 11 -11 20 -9 20 2 0 12 -9 22 -20z
m-744 -29 c-6 -10 -27 -33 -48 -50 -41 -34 -45 -38 -75 -71 -28 -31 -34 -17
-6 17 74 90 157 158 129 104z m799 -20 c0 -11 -13 -32 -28 -48 -36 -35 -114
-60 -407 -128 -38 -9 -95 -29 -125 -45 -85 -43 -114 -48 -419 -71 -76 -5 -145
-16 -161 -24 -15 -8 -30 -12 -33 -8 -11 10 4 23 27 23 12 0 26 3 30 8 4 4 11
7 14 8 22 3 42 18 42 33 0 10 13 22 33 29 43 15 57 15 57 -1 0 -9 56 1 198 35
108 26 205 52 214 58 10 5 23 10 29 10 6 0 52 15 103 34 50 18 136 43 191 55
55 13 116 29 135 36 19 7 50 13 68 14 25 1 32 -3 32 -18z m2650 -86 c0 -8 -2
-15 -4 -15 -2 0 -6 7 -10 15 -3 8 -1 15 4 15 6 0 10 -7 10 -15z m28 -70 c-3
-3 -9 2 -12 12 -6 14 -5 15 5 6 7 -7 10 -15 7 -18z m26 -65 l7 -25 -15 25 c-9
14 -15 32 -15 40 0 13 1 13 8 0 5 -8 12 -26 15 -40z m-1344 -51 c-7 -11 -14
-19 -16 -16 -7 7 7 37 17 37 6 0 5 -9 -1 -21z m-1733 -58 c23 4 34 -4 49 -33
l16 -31 -48 -44 c-64 -56 -80 -56 -88 3 -9 71 -7 91 10 108 11 12 20 13 34 6
11 -6 23 -10 27 -9z m-643 -233 c22 -10 48 -18 58 -18 10 0 18 -4 18 -10 0 -5
13 -10 29 -10 26 0 101 -54 101 -73 0 -3 11 -18 25 -33 13 -14 22 -30 20 -34
-3 -5 18 -16 45 -26 28 -10 50 -22 50 -26 0 -5 11 -13 25 -18 14 -5 25 -17 25
-26 0 -10 -3 -15 -6 -11 -3 3 -18 -8 -31 -24 -30 -36 -66 -36 -71 -1 -2 12
-10 22 -18 22 -8 0 -17 7 -20 15 -15 38 -113 38 -170 0 -21 -13 -36 -15 -73
-9 -25 4 -50 6 -55 5 -4 -1 -14 5 -20 14 -6 9 -31 19 -54 22 l-43 6 3 -44 3
-44 51 3 c48 3 52 2 58 -22 8 -32 -7 -62 -48 -99 -32 -29 -68 -43 -84 -33 -6
3 -13 -1 -16 -9 -4 -12 -10 -13 -25 -6 -15 9 -18 17 -12 44 5 18 13 43 20 56
17 32 7 54 -21 46 -26 -8 -136 -60 -158 -75 -8 -5 -41 -22 -73 -36 -60 -28
-87 -24 -74 10 4 9 7 20 8 24 1 4 8 16 15 27 8 11 14 26 14 34 0 36 72 71 82
40 2 -6 23 -12 47 -13 39 -1 46 3 79 42 23 27 45 42 60 42 14 0 22 6 22 18 0
19 -20 39 -68 68 -18 10 -32 21 -32 24 0 3 18 17 40 30 21 14 44 37 50 51 6
15 28 38 48 52 45 30 117 33 176 5z m3563 0 c-3 -8 -6 -5 -6 6 -1 11 2 17 5
13 3 -3 4 -12 1 -19z m-1245 -70 c-7 -7 -12 -8 -12 -2 0 14 12 26 19 19 2 -3
-1 -11 -7 -17z m1240 -10 c-9 -9 -12 -7 -12 12 0 19 3 21 12 12 9 -9 9 -15 0
-24z m25 -130 c-3 -8 -6 -5 -6 6 -1 11 2 17 5 13 3 -3 4 -12 1 -19z m-1272
-88 c-3 -5 -11 -10 -16 -10 -6 0 -7 5 -4 10 3 6 11 10 16 10 6 0 7 -4 4 -10z
m1105 -4 c0 -8 -4 -17 -8 -20 -4 -2 -8 4 -8 15 0 10 4 19 8 19 4 0 8 -6 8 -14z
m30 -16 c0 -5 -5 -10 -11 -10 -5 0 -7 5 -4 10 3 6 8 10 11 10 2 0 4 -4 4 -10z
m-1120 -20 c0 -5 -5 -10 -11 -10 -5 0 -7 5 -4 10 3 6 8 10 11 10 2 0 4 -4 4
-10z m1090 -29 c0 -3 -12 -15 -27 -25 -14 -11 -24 -15 -21 -10 3 5 7 16 11 25
5 14 37 23 37 10z m-3321 -79 c7 -26 22 -62 32 -79 l18 -33 -22 0 c-33 0 -59
-58 -51 -110 4 -22 2 -45 -4 -52 -5 -7 -9 -38 -9 -69 1 -31 -4 -63 -11 -71
-11 -14 -20 -45 -21 -79 -1 -12 -10 -17 -34 -17 -18 0 -50 -7 -71 -16 -21 -9
-47 -16 -58 -16 -33 0 -76 51 -90 106 -7 28 -20 57 -29 66 -13 13 -52 31 -71
33 -3 0 -9 3 -13 6 -10 10 -12 109 -3 115 4 3 8 0 8 -7 0 -10 3 -10 12 -1 7 7
22 12 35 12 13 0 23 4 23 9 0 13 68 19 135 11 76 -9 91 3 91 77 0 32 6 59 15
70 9 10 22 33 29 51 13 32 44 54 65 45 6 -2 17 -25 24 -51z m2211 38 c-11 -11
-20 -29 -20 -40 0 -11 -4 -20 -9 -20 -12 0 8 62 23 72 22 15 25 7 6 -12z
m1110 4 c0 -8 -4 -12 -10 -9 -5 3 -10 10 -10 16 0 5 5 9 10 9 6 0 10 -7 10
-16z m-1101 -48 c-9 -8 -10 -7 -5 7 3 10 7 24 7 30 1 7 3 4 6 -7 3 -10 -1 -23
-8 -30z m1034 24 c-3 -11 -7 -20 -9 -20 -2 0 -4 9 -4 20 0 11 4 20 9 20 5 0 7
-9 4 -20z m-27 -17 c-1 -17 -23 -42 -38 -43 -9 0 2 30 16 47 16 17 24 16 22
-4z m84 13 c0 -2 -7 -9 -15 -16 -13 -11 -14 -10 -9 4 5 14 24 23 24 12z m-138
-92 c-9 -16 -10 -14 -9 8 1 15 6 23 11 18 4 -4 4 -16 -2 -26z m53 26 c-3 -5
-12 -10 -18 -10 -7 0 -6 4 3 10 19 12 23 12 15 0z m-3035 -30 c11 -6 17 -17
14 -25 -7 -17 -59 -21 -69 -5 -3 6 4 10 15 10 16 0 20 5 16 15 -6 18 -1 19 24
5z m2080 -60 c0 -5 -5 -10 -11 -10 -5 0 -7 5 -4 10 3 6 8 10 11 10 2 0 4 -4 4
-10z m713 -28 c-5 -13 -41 -74 -60 -101 -2 -2 -6 -1 -10 2 -3 4 1 15 10 24 8
10 15 22 15 26 -1 16 36 76 44 71 4 -3 4 -12 1 -22z m120 3 c-3 -9 -8 -14 -10
-11 -3 3 -2 9 2 15 9 16 15 13 8 -4z m-293 -15 c0 -5 -9 -14 -21 -20 -19 -11
-20 -10 -9 9 11 22 30 29 30 11z m360 -9 c0 -6 -4 -12 -8 -15 -5 -3 -9 1 -9 9
0 8 4 15 9 15 4 0 8 -4 8 -9z m-853 -73 c-3 -8 -6 -5 -6 6 -1 11 2 17 5 13 3
-3 4 -12 1 -19z m-2205 -8 c13 0 29 -5 36 -12 18 -18 15 -74 -7 -116 -10 -20
-26 -65 -36 -99 -16 -57 -20 -62 -50 -67 -87 -17 -118 27 -65 93 31 38 32 43
26 95 -6 48 -5 58 13 78 12 12 21 28 21 35 0 10 5 11 19 3 11 -5 30 -10 43
-10z m2570 -37 c-3 -16 -7 -22 -10 -15 -4 13 4 42 11 42 2 0 2 -12 -1 -27z
m220 9 c-23 -23 -52 -35 -52 -22 0 6 5 10 11 10 6 0 17 7 25 15 9 8 20 15 25
15 5 0 1 -8 -9 -18z m-2179 -54 c7 -23 -5 -48 -24 -48 -15 0 -19 7 -19 40 0
37 2 40 19 30 11 -5 21 -15 24 -22z m1607 13 c-5 -11 -10 -28 -10 -39 0 -11
-7 -22 -15 -26 -17 -6 -21 19 -4 29 5 4 8 12 6 18 -4 12 13 36 26 37 4 0 3 -9
-3 -19z m-52 -39 c-11 -16 -15 -17 -25 -6 -7 7 -9 15 -4 19 5 3 11 -1 14 -7 3
-9 7 -7 12 5 4 10 10 16 12 13 3 -3 -1 -13 -9 -24z m22 -57 c0 -8 -2 -15 -4
-15 -2 0 -6 7 -10 15 -3 8 -1 15 4 15 6 0 10 -7 10 -15z m-146 -100 c-4 -8
-12 -15 -20 -15 -17 0 -18 17 -1 23 22 9 27 7 21 -8z m1861 -17 c21 -10 25
-16 20 -39 -6 -24 4 -78 35 -199 10 -42 0 -112 -18 -118 -6 -2 -12 1 -12 7 0
6 -8 11 -19 11 -10 0 -21 8 -24 18 -4 9 -17 36 -31 59 -13 22 -22 44 -19 47 3
3 2 21 -1 41 -5 25 -12 35 -25 35 -20 0 -71 43 -71 60 0 5 -7 10 -15 10 -9 0
-12 6 -9 15 4 8 1 15 -5 15 -6 0 -11 5 -11 11 0 6 7 8 16 5 8 -3 25 1 38 9 13
9 29 13 37 11 11 -4 71 5 86 13 1 1 14 -4 28 -11z m-575 -70 c14 -5 36 -17 50
-28 24 -18 24 -19 6 -39 -19 -21 -19 -21 8 -46 l28 -25 -19 -33 c-21 -35 -6
-33 -178 -22 -67 4 -111 18 -127 40 -11 14 -6 85 5 85 5 0 5 5 -1 13 -10 13 1
57 15 57 4 1 30 7 57 14 48 12 89 8 156 -16z m-1123 -220 c-3 -8 -6 -5 -6 6
-1 11 2 17 5 13 3 -3 4 -12 1 -19z m-2197 -18 c0 -5 -4 -10 -9 -10 -6 0 -13 5
-16 10 -3 6 1 10 9 10 9 0 16 -4 16 -10z m2225 -39 c3 -5 1 -12 -5 -16 -5 -3
-10 1 -10 9 0 18 6 21 15 7z"/>
<path d="M3437 4885 c-6 -15 10 -32 20 -21 4 3 1 6 -5 6 -6 0 -9 7 -6 15 4 8
4 15 1 15 -3 0 -7 -7 -10 -15z"/>
<path d="M3562 4876 c7 -8 15 -12 17 -11 5 6 -10 25 -20 25 -5 0 -4 -6 3 -14z"/>
<path d="M3557 4845 c6 -32 11 -41 17 -34 2 2 -2 18 -10 34 l-13 30 6 -30z"/>
<path d="M4000 4870 c-1 -3 -4 -16 -6 -30 -3 -18 -2 -22 7 -13 6 6 9 19 6 29
-3 11 -6 17 -7 14z"/>
<path d="M3466 4835 c4 -8 8 -15 10 -15 2 0 4 7 4 15 0 8 -4 15 -10 15 -5 0
-7 -7 -4 -15z"/>
<path d="M3530 4836 c0 -9 -4 -14 -10 -11 -16 10 -11 -11 8 -35 16 -20 19 -21
32 -5 10 12 10 15 1 13 -7 -2 -15 8 -17 21 -5 30 -14 41 -14 17z"/>
<path d="M4121 4841 c-1 -8 -8 -11 -20 -8 -20 5 -31 -15 -31 -62 0 -17 4 -22
15 -17 13 4 14 2 5 -14 -6 -11 -7 -20 -2 -20 12 0 34 49 27 61 -3 5 -1 18 5
29 6 12 9 26 6 33 -3 8 -5 8 -5 -2z"/>
<path d="M3487 4819 c-3 -12 -11 -19 -19 -17 -9 4 -13 -4 -13 -23 -1 -15 1
-26 3 -24 3 2 13 -6 23 -18 10 -12 18 -17 19 -11 0 6 -3 14 -7 18 -4 4 -8 19
-10 34 -3 26 -3 26 12 7 15 -19 16 -18 10 15 -8 43 -11 47 -18 19z"/>
<path d="M3385 4788 c4 -43 3 -42 18 -29 8 6 18 7 22 3 4 -4 -2 8 -15 26 -13
17 -25 32 -26 32 -1 0 0 -15 1 -32z"/>
<path d="M4127 4769 c4 -16 8 -17 14 -7 13 19 11 28 -5 28 -9 0 -12 -7 -9 -21z"/>
<path d="M3941 4741 c-9 -17 -8 -20 8 -18 10 0 18 7 17 14 -4 23 -14 25 -25 4z"/>
<path d="M4676 4242 c-3 -5 1 -9 9 -9 8 0 12 4 9 9 -3 4 -7 8 -9 8 -2 0 -6 -4
-9 -8z"/>
<path d="M2496 3903 c-6 -14 -5 -15 5 -6 7 7 10 15 7 18 -3 3 -9 -2 -12 -12z"/>
<path d="M3360 3871 c0 -5 5 -13 10 -16 6 -3 10 -2 10 4 0 5 -4 13 -10 16 -5
3 -10 2 -10 -4z"/>
<path d="M3070 3630 c-8 -5 -17 -7 -20 -5 -4 2 -7 -2 -7 -10 0 -20 23 -26 37
-10 16 19 9 37 -10 25z"/>
<path d="M3187 3604 c6 -16 19 -18 27 -5 3 5 -3 11 -13 14 -14 3 -18 1 -14 -9z"/>
<path d="M3212 3556 c7 -8 15 -12 17 -11 5 6 -10 25 -20 25 -5 0 -4 -6 3 -14z"/>
<path d="M3240 3553 c1 -18 30 -44 40 -38 8 5 5 13 -9 26 -21 20 -31 24 -31
12z"/>
<path d="M3180 3529 c0 -5 5 -7 10 -4 6 3 10 8 10 11 0 2 -4 4 -10 4 -5 0 -10
-5 -10 -11z"/>
<path d="M3390 3530 c0 -5 7 -7 15 -4 8 4 15 8 15 10 0 2 -7 4 -15 4 -8 0 -15
-4 -15 -10z"/>
<path d="M3233 3515 c0 -8 4 -12 9 -9 5 3 6 10 3 15 -9 13 -12 11 -12 -6z"/>
<path d="M3340 3521 c0 -6 4 -13 10 -16 6 -3 7 1 4 9 -7 18 -14 21 -14 7z"/>
<path d="M3173 3503 c4 -6 -2 -13 -13 -16 -13 -3 -20 -13 -20 -29 1 -21 2 -22
14 -6 7 10 16 16 19 13 4 -3 5 -2 2 2 -3 3 0 12 6 19 7 8 6 14 -2 20 -7 4 -9
3 -6 -3z"/>
<path d="M3245 3449 c-4 -6 -5 -12 -2 -15 2 -3 7 2 10 11 7 17 1 20 -8 4z"/>
<path d="M2633 2863 c9 -9 20 -13 24 -9 4 4 1 11 -7 16 -25 16 -35 11 -17 -7z"/>
<path d="M975 2870 c-3 -5 -1 -10 4 -10 6 0 11 5 11 10 0 6 -2 10 -4 10 -3 0
-8 -4 -11 -10z"/>
<path d="M2010 2371 c0 -6 5 -13 10 -16 6 -3 10 1 10 9 0 9 -4 16 -10 16 -5 0
-10 -4 -10 -9z"/>
<path d="M438 5703 c7 -3 16 -2 19 1 4 3 -2 6 -13 5 -11 0 -14 -3 -6 -6z"/>
<path d="M490 5703 c8 -3 19 -13 24 -21 7 -11 10 -12 16 -2 5 8 24 13 44 12
19 -1 38 3 41 8 4 6 -22 10 -67 9 -40 0 -66 -3 -58 -6z"/>
<path d="M815 5690 c3 -5 8 -10 11 -10 2 0 4 5 4 10 0 6 -5 10 -11 10 -5 0 -7
-4 -4 -10z"/>
<path d="M7247 5654 c-3 -4 -3 -20 0 -36 5 -24 2 -30 -16 -35 -25 -6 -18 -23
10 -23 10 0 19 -4 19 -10 0 -14 28 -12 32 2 3 7 -3 28 -13 47 -12 26 -14 40
-7 49 8 9 6 12 -4 12 -8 0 -17 -3 -21 -6z"/>
<path d="M4390 5460 c0 -5 4 -10 9 -10 6 0 13 5 16 10 3 6 -1 10 -9 10 -9 0
-16 -4 -16 -10z"/>
<path d="M4474 5451 c21 -23 26 -26 26 -11 0 5 -10 15 -22 21 -23 12 -23 12
-4 -10z"/>
<path d="M4120 5449 c0 -5 5 -7 10 -4 6 3 10 8 10 11 0 2 -4 4 -10 4 -5 0 -10
-5 -10 -11z"/>
<path d="M4220 5449 c-14 -6 -32 -8 -40 -6 -18 5 -55 -49 -40 -58 5 -3 11 4
15 15 6 18 24 25 65 22 8 0 18 5 22 11 10 16 29 -3 31 -32 1 -23 2 -23 24 4
29 33 29 45 -1 45 -13 0 -30 2 -38 4 -7 3 -24 0 -38 -5z m67 -31 c-3 -8 -6 -5
-6 6 -1 11 2 17 5 13 3 -3 4 -12 1 -19z"/>
<path d="M4030 5439 c0 -5 8 -9 18 -9 10 0 23 -5 29 -11 7 -7 13 -7 17 -1 3 6
1 14 -4 17 -17 11 -60 13 -60 4z"/>
<path d="M4510 5425 c0 -8 4 -15 10 -15 5 0 7 7 4 15 -4 8 -8 15 -10 15 -2 0
-4 -7 -4 -15z"/>
<path d="M4307 5393 c-3 -4 1 -14 9 -20 7 -7 15 -9 18 -4 3 5 -1 14 -8 20 -8
7 -16 8 -19 4z"/>
<path d="M3500 5365 c7 -8 17 -15 22 -15 5 0 3 7 -6 15 -8 8 -18 15 -22 15 -3
0 -1 -7 6 -15z"/>
<path d="M6800 5340 c0 -5 5 -10 10 -10 6 0 10 5 10 10 0 6 -4 10 -10 10 -5 0
-10 -4 -10 -10z"/>
<path d="M6793 5304 c-3 -9 0 -20 7 -24 7 -4 9 -13 6 -19 -4 -6 2 -15 14 -19
12 -4 20 -12 18 -17 -2 -6 5 -11 15 -13 14 -3 18 2 16 20 -2 12 0 28 4 35 14
22 -4 43 -32 37 -20 -4 -23 -3 -11 5 12 9 11 11 -8 11 -12 0 -25 -7 -29 -16z"/>
<path d="M3170 5279 c0 -5 5 -7 10 -4 6 3 10 8 10 11 0 2 -4 4 -10 4 -5 0 -10
-5 -10 -11z"/>
<path d="M3165 5236 c-18 -13 -18 -14 8 -9 15 3 24 9 21 14 -7 12 -7 12 -29
-5z"/>
<path d="M3065 5230 c3 -5 8 -10 11 -10 2 0 4 5 4 10 0 6 -5 10 -11 10 -5 0
-7 -4 -4 -10z"/>
<path d="M2973 5215 c3 -7 1 -17 -5 -23 -11 -11 6 -27 21 -18 19 12 19 44 -1
49 -13 4 -18 1 -15 -8z"/>
<path d="M2868 5173 c6 -2 18 -2 25 0 6 3 1 5 -13 5 -14 0 -19 -2 -12 -5z"/>
<path d="M2910 5140 c0 -5 10 -10 23 -10 13 0 29 -6 37 -12 8 -7 6 -3 -4 10
-19 22 -56 30 -56 12z"/>
<path d="M2254 5092 c-6 -4 -14 -14 -17 -22 -4 -12 -6 -11 -6 3 -1 19 -16 23
-26 7 -3 -5 -1 -10 6 -10 10 0 10 -3 1 -12 -14 -14 -16 -71 -3 -96 25 -50 32
-71 33 -101 1 -24 7 -35 20 -39 20 -5 25 -38 6 -45 -10 -4 -10 -8 1 -15 11 -8
11 -10 0 -15 -11 -4 -9 -11 9 -25 12 -11 22 -27 22 -36 0 -25 23 -14 37 17 15
33 45 37 42 5 -5 -54 -2 -57 36 -40 43 20 51 38 19 46 -20 5 -23 11 -18 34 4
22 3 24 -6 12 -9 -12 -11 -9 -6 17 4 25 2 31 -9 26 -8 -3 -15 0 -15 6 0 6 7
11 16 11 9 0 14 6 11 13 -2 6 -11 11 -19 9 -13 -2 -15 5 -11 35 5 33 3 36 -10
24 -14 -11 -17 -9 -23 14 -4 15 -7 44 -8 66 0 21 -5 39 -10 39 -4 0 -3 6 3 13
8 11 5 16 -15 25 -14 7 -32 12 -41 12 -14 0 -14 2 3 15 14 11 15 14 4 15 -8 0
-20 -4 -26 -8z m93 -246 c-3 -8 -2 -17 4 -20 5 -2 4 -3 -3 -2 -17 3 -23 36 -8
36 7 0 10 -6 7 -14z m-40 -22 c-9 -9 -28 6 -21 18 4 6 10 6 17 -1 6 -6 8 -13
4 -17z"/>
<path d="M2819 5079 c-10 -6 -7 -9 14 -9 29 0 35 5 14 13 -8 3 -20 1 -28 -4z"/>
<path d="M2758 5073 c7 -3 16 -2 19 1 4 3 -2 6 -13 5 -11 0 -14 -3 -6 -6z"/>
<path d="M2659 5033 c-12 -14 -12 -14 47 -17 20 -1 30 3 27 10 -7 18 -62 23
-74 7z"/>
<path d="M2670 4971 c-13 -25 -13 -31 0 -31 6 0 10 7 10 15 0 8 5 15 10 15 6
0 10 5 10 10 0 17 -19 11 -30 -9z"/>
<path d="M2622 4936 c4 -5 0 -15 -10 -22 -15 -12 -15 -13 7 -9 32 6 34 10 14
26 -10 7 -15 9 -11 5z"/>
<path d="M2535 4900 c-3 -5 -1 -10 4 -10 6 0 11 5 11 10 0 6 -2 10 -4 10 -3 0
-8 -4 -11 -10z"/>
<path d="M2565 4880 c-12 -4 -27 -15 -34 -24 -9 -10 -22 -14 -37 -10 -18 5
-24 2 -24 -10 0 -9 6 -13 14 -10 24 9 27 -12 5 -40 -23 -29 -22 -30 15 -16 18
7 26 17 26 34 0 14 9 31 22 40 12 9 18 16 13 16 -5 0 0 7 11 15 21 16 19 18
-11 5z"/>
<path d="M2585 4850 c3 -5 8 -10 11 -10 2 0 4 5 4 10 0 6 -5 10 -11 10 -5 0
-7 -4 -4 -10z"/>
<path d="M1615 4833 c4 -10 8 -27 9 -38 1 -11 5 -26 9 -32 5 -7 5 -13 0 -13
-4 -1 8 -8 27 -16 27 -12 39 -12 56 -3 12 6 26 9 31 6 22 -14 7 30 -18 56 -30
28 -53 34 -64 17 -11 -17 -23 -11 -29 15 -4 14 -11 25 -17 25 -7 0 -8 -7 -4
-17z"/>
<path d="M1575 4830 c-3 -6 1 -7 9 -4 18 7 21 14 7 14 -6 0 -13 -4 -16 -10z"/>
<path d="M2245 4800 c-3 -5 1 -10 10 -10 9 0 13 5 10 10 -3 6 -8 10 -10 10 -2
0 -7 -4 -10 -10z"/>
<path d="M2476 4724 c-9 -23 -1 -28 24 -14 18 10 20 14 9 21 -20 12 -26 11
-33 -7z"/>
<path d="M405 4690 c3 -5 11 -10 16 -10 6 0 7 5 4 10 -3 6 -11 10 -16 10 -6 0
-7 -4 -4 -10z"/>
<path d="M2340 4679 c0 -5 5 -7 10 -4 6 3 10 8 10 11 0 2 -4 4 -10 4 -5 0 -10
-5 -10 -11z"/>
<path d="M2465 4659 c-11 -17 1 -21 15 -4 8 9 8 15 2 15 -6 0 -14 -5 -17 -11z"/>
<path d="M386 4561 c-4 -7 -5 -15 -2 -18 9 -9 19 4 14 18 -4 11 -6 11 -12 0z"/>
<path d="M2268 4523 c7 -3 16 -2 19 1 4 3 -2 6 -13 5 -11 0 -14 -3 -6 -6z"/>
<path d="M2240 4170 c0 -5 5 -10 11 -10 5 0 7 5 4 10 -3 6 -8 10 -11 10 -2 0
-4 -4 -4 -10z"/>
<path d="M2520 4070 c0 -5 5 -10 11 -10 5 0 7 5 4 10 -3 6 -8 10 -11 10 -2 0
-4 -4 -4 -10z"/>
<path d="M1578 3953 c7 -3 16 -2 19 1 4 3 -2 6 -13 5 -11 0 -14 -3 -6 -6z"/>
<path d="M2240 3740 c0 -5 7 -10 15 -10 8 0 15 5 15 10 0 6 -7 10 -15 10 -8 0
-15 -4 -15 -10z"/>
<path d="M2173 3680 c1 -21 12 -26 22 -10 3 5 12 7 20 3 8 -3 15 -1 15 5 0 11
-23 22 -45 22 -8 0 -13 -9 -12 -20z"/>
<path d="M2220 3650 c0 -5 5 -10 11 -10 5 0 7 5 4 10 -3 6 -8 10 -11 10 -2 0
-4 -4 -4 -10z"/>
<path d="M2158 3633 c6 -2 18 -2 25 0 6 3 1 5 -13 5 -14 0 -19 -2 -12 -5z"/>
<path d="M2475 3630 c3 -5 1 -10 -6 -10 -23 0 3 -15 27 -15 22 -1 22 0 7 17
-17 19 -39 25 -28 8z"/>
<path d="M2485 3580 c-3 -5 -1 -10 4 -10 6 0 11 5 11 10 0 6 -2 10 -4 10 -3 0
-8 -4 -11 -10z"/>
<path d="M3310 3370 c0 -5 5 -10 11 -10 5 0 7 5 4 10 -3 6 -8 10 -11 10 -2 0
-4 -4 -4 -10z"/>
<path d="M3233 3278 c2 -7 -3 -19 -12 -26 -14 -11 -13 -12 6 -2 14 6 20 16 17
25 -7 18 -17 20 -11 3z"/>
<path d="M3252 3253 c-19 -18 -37 -31 -42 -28 -9 6 -23 -25 -15 -33 3 -3 14 4
25 16 12 12 26 22 33 22 10 0 42 51 34 55 -1 1 -17 -13 -35 -32z"/>
<path d="M3790 3201 c0 -6 4 -13 10 -16 6 -3 7 1 4 9 -7 18 -14 21 -14 7z"/>
<path d="M3595 3120 c-3 -5 -1 -10 4 -10 6 0 11 5 11 10 0 6 -2 10 -4 10 -3 0
-8 -4 -11 -10z"/>
<path d="M3818 2984 c-5 -4 -8 -16 -8 -28 0 -14 3 -17 11 -9 6 6 9 19 7 28 -1
9 -6 13 -10 9z"/>
<path d="M3790 2900 c-14 -16 -30 -30 -36 -30 -6 0 -19 -9 -29 -20 -10 -11
-15 -20 -10 -20 4 0 2 -6 -4 -14 -9 -11 -9 -16 0 -21 16 -11 87 64 98 103 5
17 9 32 8 32 -1 0 -13 -13 -27 -30z"/>
<path d="M3129 2863 c-13 -16 -12 -17 4 -4 16 13 21 21 13 21 -2 0 -10 -8 -17
-17z"/>
<path d="M3050 2609 c0 -5 5 -7 10 -4 6 3 10 8 10 11 0 2 -4 4 -10 4 -5 0 -10
-5 -10 -11z"/>
<path d="M4070 2546 c0 -2 8 -10 18 -17 15 -13 16 -12 3 4 -13 16 -21 21 -21
13z"/>
<path d="M4145 2510 c-3 -5 -1 -10 4 -10 6 0 11 5 11 10 0 6 -2 10 -4 10 -3 0
-8 -4 -11 -10z"/>
<path d="M4023 2422 c17 -18 51 -27 41 -10 -3 5 -10 6 -15 3 -5 -4 -12 1 -15
9 -3 9 -11 16 -17 16 -5 0 -3 -8 6 -18z"/>
<path d="M4100 2406 c0 -2 8 -10 18 -17 15 -13 16 -12 3 4 -13 16 -21 21 -21
13z"/>
<path d="M4140 2396 c0 -2 8 -10 18 -17 15 -13 16 -12 3 4 -13 16 -21 21 -21
13z"/>
<path d="M3398 2373 c-17 -20 -31 -66 -17 -57 5 3 9 12 9 21 0 9 7 25 17 35 9
10 14 18 11 18 -3 0 -12 -8 -20 -17z"/>
<path d="M3511 2369 c0 -8 -8 -24 -17 -35 -10 -12 -14 -14 -11 -4 2 8 -2 21
-9 28 -8 7 -14 8 -14 2 0 -12 -22 -9 -31 4 -7 9 -39 -44 -39 -63 0 -6 11 -6
30 -1 20 6 30 5 30 -2 0 -6 6 -6 15 2 12 10 15 9 15 -5 0 -14 3 -15 14 -6 11
9 20 9 35 2 13 -7 22 -8 26 -1 4 7 12 7 24 0 10 -5 21 -6 25 -3 3 3 6 -2 6
-13 1 -30 17 3 24 50 4 21 9 43 13 50 3 6 -4 1 -16 -11 -11 -12 -21 -28 -21
-35 -1 -9 -5 -7 -14 4 -10 14 -15 15 -26 5 -10 -10 -12 -9 -7 4 3 9 1 22 -4
30 -8 12 -12 11 -23 -4 -14 -18 -14 -18 -19 0 -3 13 -5 14 -6 2z"/>
<path d="M3336 2340 c-31 -38 -35 -61 -4 -34 12 10 18 13 14 7 -4 -7 -3 -13 3
-13 10 0 26 58 18 66 -2 3 -16 -9 -31 -26z"/>
<path d="M4040 2362 c0 -12 19 -26 26 -19 2 2 -2 10 -11 17 -9 8 -15 8 -15 2z"/>
<path d="M3650 2346 c0 -7 -3 -28 -6 -45 -5 -24 -3 -31 7 -29 10 2 13 -7 12
-32 -2 -33 -2 -34 9 -10 17 38 20 74 9 103 -11 28 -31 37 -31 13z"/>
<path d="M4120 2349 c0 -5 -6 -7 -12 -3 -7 4 -9 3 -5 -1 13 -15 36 -14 30 1
-6 17 -13 18 -13 3z"/>
<path d="M4166 2335 c9 -14 20 -25 25 -25 5 0 -1 11 -13 25 -12 14 -23 25 -25
25 -2 0 4 -11 13 -25z"/>
<path d="M3140 2335 c-7 -9 -11 -17 -9 -20 3 -2 10 5 17 15 14 24 10 26 -8 5z"/>
<path d="M3055 2330 c-3 -6 1 -7 9 -4 18 7 21 14 7 14 -6 0 -13 -4 -16 -10z"/>
<path d="M3266 2303 c-6 -14 -5 -15 5 -6 7 7 10 15 7 18 -3 3 -9 -2 -12 -12z"/>
<path d="M4120 2310 c0 -5 5 -10 11 -10 5 0 7 5 4 10 -3 6 -8 10 -11 10 -2 0
-4 -4 -4 -10z"/>
<path d="M3945 2300 c3 -5 8 -10 11 -10 2 0 4 5 4 10 0 6 -5 10 -11 10 -5 0
-7 -4 -4 -10z"/>
<path d="M4146 2275 c4 -8 11 -15 16 -15 6 0 5 6 -2 15 -7 8 -14 15 -16 15 -2
0 -1 -7 2 -15z"/>
<path d="M3710 2211 c0 -5 5 -13 10 -16 6 -3 10 -2 10 4 0 5 -4 13 -10 16 -5
3 -10 2 -10 -4z"/>
<path d="M3850 2186 c0 -9 4 -15 9 -12 5 4 11 0 14 -6 2 -7 7 -10 11 -7 3 3
-3 14 -14 24 -18 17 -20 17 -20 1z"/>
<path d="M3739 2163 c6 -12 20 -21 30 -20 11 0 17 5 14 10 -3 4 -8 6 -11 3 -3
-3 -14 2 -25 11 -19 17 -20 17 -8 -4z"/>
<path d="M4010 2131 c0 -6 4 -13 10 -16 6 -3 7 1 4 9 -7 18 -14 21 -14 7z"/>
<path d="M4140 2106 c0 -2 7 -7 16 -10 8 -3 12 -2 9 4 -6 10 -25 14 -25 6z"/>
<path d="M4090 2076 c0 -2 8 -10 18 -17 15 -13 16 -12 3 4 -13 16 -21 21 -21
13z"/>
<path d="M4040 2061 c0 -5 7 -15 17 -22 15 -13 15 -12 4 9 -12 23 -21 28 -21
13z"/>
<path d="M4110 2025 c0 -3 9 -15 20 -27 11 -12 20 -17 20 -11 0 7 -7 19 -16
27 -16 17 -24 20 -24 11z"/>
<path d="M4097 1970 c3 -11 7 -20 9 -20 2 0 4 9 4 20 0 11 -4 20 -9 20 -5 0
-7 -9 -4 -20z"/>
<path d="M4190 1864 c0 -11 7 -29 15 -40 13 -17 14 -16 3 16 -14 43 -18 49
-18 24z"/>
<path d="M4256 1830 c3 -19 12 -41 20 -49 23 -24 22 -8 -3 39 -23 45 -23 45
-17 10z"/>
<path d="M4180 1766 c0 -14 4 -27 8 -30 5 -3 6 8 4 25 -5 35 -12 38 -12 5z"/>
<path d="M4235 1778 c-4 -10 -4 -26 0 -35 8 -17 8 -17 12 0 3 9 3 25 0 35 -4
16 -4 16 -12 0z"/>
<path d="M4146 1743 c9 -38 14 -42 14 -10 0 14 -5 29 -10 32 -7 4 -8 -3 -4
-22z"/>
<path d="M4264 1748 c2 -13 0 -28 -5 -34 -11 -14 11 -68 29 -71 19 -4 19 91 0
115 -16 19 -28 14 -24 -10z"/>
<path d="M4245 1660 c3 -5 8 -10 11 -10 2 0 4 5 4 10 0 6 -5 10 -11 10 -5 0
-7 -4 -4 -10z"/>
<path d="M4103 1635 c0 -8 4 -12 9 -9 5 3 6 10 3 15 -9 13 -12 11 -12 -6z"/>
<path d="M4057 1633 c-12 -11 -8 -51 6 -56 9 -3 12 5 9 29 -4 36 -5 38 -15 27z"/>
<path d="M4224 1596 c-8 -22 -2 -27 16 -16 12 7 12 12 3 21 -10 10 -14 9 -19
-5z"/>
<path d="M4120 1595 c0 -5 5 -17 10 -25 5 -8 10 -10 10 -5 0 6 -5 17 -10 25
-5 8 -10 11 -10 5z"/>
<path d="M4306 1547 c3 -10 9 -15 12 -12 3 3 0 11 -7 18 -10 9 -11 8 -5 -6z"/>
<path d="M3041 1534 c0 -11 3 -14 6 -6 3 7 2 16 -1 19 -3 4 -6 -2 -5 -13z"/>
<path d="M4183 1520 c-10 -28 -10 -29 8 -20 21 12 23 19 11 37 -5 8 -11 3 -19
-17z"/>
<path d="M4227 1515 c9 -19 19 -32 22 -28 4 5 9 11 13 14 4 3 -6 15 -22 27
l-30 23 17 -36z"/>
<path d="M4059 1393 c-13 -16 -12 -17 4 -4 16 13 21 21 13 21 -2 0 -10 -8 -17
-17z"/>
<path d="M3986 1385 c-9 -26 -7 -32 5 -12 6 10 9 21 6 23 -2 3 -7 -2 -11 -11z"/>
<path d="M3963 1332 c-1 -22 0 -24 9 -8 6 10 6 22 2 26 -5 5 -10 -3 -11 -18z"/>
<path d="M4057 1317 c-3 -8 -2 -20 3 -26 5 -9 8 -4 8 13 0 29 -3 32 -11 13z"/>
<path d="M4027 1283 c-11 -11 -8 -20 7 -20 8 0 12 6 9 14 -6 15 -7 15 -16 6z"/>
<path d="M3010 1189 c-11 -19 -10 -20 10 -9 11 6 18 15 15 21 -9 13 -13 11
-25 -12z"/>
<path d="M3037 1153 c-4 -3 -7 -11 -7 -17 0 -6 5 -5 12 2 6 6 9 14 7 17 -3 3
-9 2 -12 -2z"/>
<path d="M3916 1137 c3 -10 9 -15 12 -12 3 3 0 11 -7 18 -10 9 -11 8 -5 -6z"/>
<path d="M3840 1085 c-7 -8 -8 -15 -2 -15 5 0 15 7 22 15 7 8 8 15 2 15 -5 0
-15 -7 -22 -15z"/>
<path d="M3037 1063 c4 -9 2 -14 -3 -10 -5 3 -10 -3 -10 -13 0 -15 4 -16 18
-9 22 12 24 35 4 42 -11 4 -13 1 -9 -10z"/>
<path d="M3700 989 c0 -5 5 -7 10 -4 6 3 10 8 10 11 0 2 -4 4 -10 4 -5 0 -10
-5 -10 -11z"/>
<path d="M3705 939 c-4 -6 -5 -12 -2 -15 2 -3 7 2 10 11 7 17 1 20 -8 4z"/>
<path d="M3660 920 c-10 -14 -16 -16 -22 -7 -6 9 -8 9 -8 0 0 -6 -3 -19 -7
-28 -6 -16 -5 -16 20 -1 14 10 28 24 31 33 9 24 2 25 -14 3z"/>
<path d="M3777 900 c-16 -24 -17 -62 -1 -67 6 -2 11 12 12 33 1 21 7 41 14 46
9 5 10 8 1 8 -6 0 -18 -9 -26 -20z"/>
<path d="M3155 820 c-3 -5 -2 -10 4 -10 5 0 13 5 16 10 3 6 2 10 -4 10 -5 0
-13 -4 -16 -10z"/>
<path d="M3060 780 c0 -5 7 -7 15 -4 8 4 15 8 15 10 0 2 -7 4 -15 4 -8 0 -15
-4 -15 -10z"/>
<path d="M3423 744 c-20 -18 -22 -22 -7 -15 21 10 52 41 41 41 -3 0 -19 -12
-34 -26z"/>
<path d="M3209 758 c0 -2 -2 -15 -4 -30 -4 -30 4 -35 23 -16 17 17 15 28 -4
28 -8 0 -12 5 -9 10 3 6 4 10 1 10 -3 0 -6 -1 -7 -2z"/>
<path d="M3466 752 c-2 -4 -1 -14 4 -22 7 -11 9 -9 7 8 -1 24 -3 26 -11 14z"/>
<path d="M3168 698 c0 -7 -2 -17 -2 -23 -1 -5 -6 -17 -11 -25 -7 -13 -6 -13 7
-2 19 15 29 50 17 58 -5 3 -10 -1 -11 -8z"/>
<path d="M3329 690 c-9 -5 -15 -19 -14 -32 2 -26 20 -27 20 0 0 9 4 23 8 30
10 14 7 15 -14 2z"/>
<path d="M3211 671 c-13 -11 -20 -24 -17 -30 4 -5 -3 -16 -14 -24 -11 -7 -17
-17 -13 -20 3 -4 12 1 20 11 7 9 12 13 11 7 -3 -9 4 -15 17 -15 2 0 0 11 -5
24 -7 20 -5 27 13 39 12 8 19 18 16 21 -3 3 -16 -3 -28 -13z"/>
<path d="M3234 654 c-16 -6 -6 -41 13 -48 17 -7 46 19 41 35 -3 8 -10 6 -20
-5 -22 -22 -31 -20 -25 4 3 11 4 20 4 19 -1 0 -7 -3 -13 -5z"/>
<path d="M2955 620 c-3 -5 -2 -10 4 -10 5 0 13 5 16 10 3 6 2 10 -4 10 -5 0
-13 -4 -16 -10z"/>
<path d="M3300 620 c0 -5 5 -10 11 -10 5 0 7 5 4 10 -3 6 -8 10 -11 10 -2 0
-4 -4 -4 -10z"/>
<path d="M2863 603 c-7 -3 -13 -11 -13 -18 0 -8 -8 -19 -17 -24 -28 -16 -5
-13 27 4 29 15 38 30 23 38 -5 2 -14 2 -20 0z"/>
<path d="M3131 587 c-13 -20 -13 -21 2 -8 15 12 17 11 18 -5 0 -11 3 -14 5 -7
3 7 2 19 -3 27 -7 13 -11 12 -22 -7z"/>
<path d="M3276 603 c-11 -11 -7 -35 6 -27 8 5 9 2 5 -9 -3 -10 -2 -17 3 -17
12 0 13 47 1 54 -4 3 -11 3 -15 -1z"/>
<path d="M3237 579 c4 -13 8 -18 11 -10 2 7 -1 18 -6 23 -8 8 -9 4 -5 -13z"/>
<path d="M2460 360 c-8 -5 -17 -7 -20 -5 -11 7 -93 -72 -86 -83 6 -9 53 -16
175 -25 27 -2 53 -12 68 -25 23 -21 50 -21 38 -1 -4 5 0 9 7 9 10 0 10 2 -1 9
-8 5 -11 16 -8 25 4 10 1 16 -8 16 -8 0 -17 11 -21 24 -6 26 -43 41 -75 31
-10 -4 -19 -3 -19 2 0 15 -36 31 -50 23z"/>
<path d="M3382 234 c9 -9 21 -13 27 -10 20 13 11 26 -16 26 -25 0 -26 -1 -11
-16z"/>
<path d="M2103 154 c-13 -14 -23 -30 -23 -35 0 -5 -9 -9 -20 -9 -21 0 -27 -19
-10 -36 7 -7 6 -20 -5 -40 l-15 -29 51 -3 c28 -2 53 -1 56 1 9 9 21 124 16
150 -7 34 -22 34 -50 1z"/>
</g>
</svg>
