<svg width="16" height="16" fill="none" xmlns="http://www.w3.org/2000/svg"><path d="M0 1.75v7.5c0 .414.336.75.75.75h2.5A.75.75 0 004 9.25v-7.5A.75.75 0 003.25 1H.75a.75.75 0 00-.75.75zM1.25 8a.75.75 0 111.5 0 .75.75 0 01-1.5 0zm8.5 8c-.63 0-.921-1.228-1.06-1.806-.163-.677-.331-1.377-.794-1.84-1.015-1.017-1.547-2.312-2.785-3.535A.374.374 0 015 8.552v-6.68c0-.205.164-.371.368-.375.495-.01 1.147-.284 1.646-.506C8.006.55 9.24.001 10.75 0h.089c1.336 0 2.917.013 3.555.93.262.376.327.844.192 1.394.51.533.784 1.527.512 2.336.548.732.598 1.754.291 2.484l.004.003c.371.373.61.977.607 1.537-.005.949-.817 1.816-1.861 1.816H10.96c.228.886 1.04 1.63 1.04 2.955C12 15.75 10.5 16 9.75 16z" fill="#DB0101"/></svg>