<svg width="145" height="36" fill="none" xmlns="http://www.w3.org/2000/svg"><path d="M6.353 10.024c0-.917.754-1.671 1.67-1.671h3.288a.54.54 0 00.54-.54V5.74a.54.54 0 00-.54-.539H8.024A4.819 4.819 0 003.2 10.024v3.287a.54.54 0 00.539.54h2.075a.54.54 0 00.539-.54v-3.287zM23.976 5.2H20.69a.54.54 0 00-.54.539v2.075a.54.54 0 00.54.539h3.287c.917 0 1.671.754 1.671 1.67v3.288a.54.54 0 00.54.54h2.074a.54.54 0 00.539-.54v-3.287A4.819 4.819 0 0023.976 5.2zm1.671 20.776a1.68 1.68 0 01-1.67 1.671h-3.288a.54.54 0 00-.54.54v2.074a.54.54 0 00.54.539h3.287a4.819 4.819 0 004.824-4.824V22.69a.54.54 0 00-.539-.54h-2.075a.54.54 0 00-.539.54v3.287zm-19.294 0V22.69a.54.54 0 00-.54-.54H3.74a.54.54 0 00-.539.54v3.287A4.819 4.819 0 008.024 30.8h3.287a.54.54 0 00.54-.539v-2.075a.54.54 0 00-.54-.539H8.024a1.644 1.644 0 01-1.671-1.67zm-2.614-6.413H28.26a.54.54 0 00.539-.539v-2.075a.54.54 0 00-.539-.539H3.739a.54.54 0 00-.539.539v2.075a.54.54 0 00.539.539zM116.678 8.894v10.808c0 .653-.114 1.241-.344 1.766a3.902 3.902 0 01-.986 1.362c-.413.369-.925.66-1.536.872-.597.199-1.262.298-1.996.298-1.391 0-2.492-.34-3.302-1.021-.795-.695-1.3-1.596-1.514-2.702l2.385-.49c.138.639.398 1.142.78 1.51.397.37.948.554 1.651.554.688 0 1.239-.198 1.651-.596.413-.397.62-1 .62-1.808v-8.553h-5.229v-2h7.82zM125.032 24a6.174 6.174 0 01-2.27-.404 4.82 4.82 0 01-1.72-1.15 5.37 5.37 0 01-1.101-1.829c-.26-.723-.39-1.525-.39-2.404 0-.88.13-1.674.39-2.383.26-.724.627-1.334 1.101-1.83.474-.51 1.047-.9 1.72-1.17a6.174 6.174 0 012.27-.405c.826 0 1.575.135 2.248.405a4.67 4.67 0 011.743 1.17c.474.496.841 1.106 1.101 1.83.26.709.389 1.503.389 2.383 0 .88-.129 1.68-.389 2.404a5.37 5.37 0 01-1.101 1.83 4.783 4.783 0 01-1.743 1.149c-.673.27-1.422.404-2.248.404zm0-1.915c.856 0 1.544-.241 2.064-.723.52-.497.78-1.234.78-2.213v-1.872c0-.98-.26-1.71-.78-2.192-.52-.496-1.208-.745-2.064-.745-.856 0-1.544.249-2.064.745-.52.482-.78 1.213-.78 2.192v1.872c0 .979.26 1.716.78 2.213.52.482 1.208.723 2.064.723zM133.299 8h2.5v6.51h.114c.26-.666.681-1.177 1.262-1.531.596-.37 1.292-.553 2.087-.553 1.514 0 2.683.51 3.509 1.531.825 1.007 1.238 2.426 1.238 4.256s-.413 3.255-1.238 4.276c-.826 1.008-1.995 1.511-3.509 1.511-.795 0-1.491-.184-2.087-.553a3.147 3.147 0 01-1.262-1.532h-.114v1.83h-2.5V8zm5.206 14c.872 0 1.567-.255 2.087-.766.52-.525.78-1.213.78-2.064v-1.915c0-.85-.26-1.532-.78-2.042-.52-.525-1.215-.787-2.087-.787-.764 0-1.407.177-1.926.531-.52.34-.78.795-.78 1.362v3.787c0 .568.26 1.029.78 1.383.519.34 1.162.511 1.926.511z" fill="#01DB55"/><path d="M45.96 24H40.8v-1.04l1.68-.38V11.16l-1.68-.4V9.72h5.16v1.04l-1.68.4v11.42l1.68.38V24zm7.677-10.92c1.28 0 2.247.313 2.9.94.654.613.98 1.613.98 3V24h-1.74v-6.86c0-1.72-.8-2.58-2.4-2.58-1.186 0-2.006.333-2.46 1-.453.667-.68 1.627-.68 2.88V24h-1.76V13.28h1.42l.26 1.46h.1c.347-.56.827-.973 1.44-1.24a4.62 4.62 0 011.94-.42zm14.183 7.96c0 1.04-.386 1.827-1.16 2.36-.773.533-1.813.8-3.12.8-.746 0-1.393-.06-1.94-.18a5.921 5.921 0 01-1.42-.5v-1.6c.427.213.94.413 1.54.6a6.81 6.81 0 001.86.26c.894 0 1.54-.14 1.94-.42.4-.293.6-.68.6-1.16 0-.267-.073-.507-.22-.72-.146-.213-.413-.427-.8-.64-.373-.213-.913-.453-1.62-.72a15.415 15.415 0 01-1.78-.8c-.493-.267-.873-.587-1.14-.96-.266-.373-.4-.853-.4-1.44 0-.907.367-1.607 1.1-2.1.747-.493 1.72-.74 2.92-.74.654 0 1.26.067 1.82.2.574.12 1.107.293 1.6.52l-.6 1.4a11.83 11.83 0 00-1.42-.48c-.493-.133-1-.2-1.52-.2-.72 0-1.273.12-1.66.36-.373.227-.56.54-.56.94 0 .293.087.547.26.76.174.2.46.4.86.6.414.187.96.413 1.64.68.68.253 1.26.513 1.74.78s.847.593 1.1.98c.254.373.38.847.38 1.42zm3.491-11.78c.267 0 .5.093.7.28.213.173.32.453.32.84 0 .373-.107.653-.32.84a.993.993 0 01-.7.28c-.293 0-.54-.093-.74-.28-.2-.187-.3-.467-.3-.84 0-.387.1-.667.3-.84.2-.187.447-.28.74-.28zm.86 4.02V24h-1.76V13.28h1.76zm7.196 10.92c-1.333 0-2.4-.46-3.2-1.38-.8-.933-1.2-2.32-1.2-4.16 0-1.84.4-3.227 1.2-4.16.814-.947 1.887-1.42 3.22-1.42.827 0 1.5.153 2.02.46.534.307.967.68 1.3 1.12h.12c-.013-.173-.04-.427-.08-.76-.026-.347-.04-.62-.04-.82V8.8h1.76V24h-1.42l-.26-1.44h-.08a4.15 4.15 0 01-1.28 1.16c-.533.32-1.22.48-2.06.48zm.28-1.46c1.134 0 1.927-.307 2.38-.92.467-.627.7-1.567.7-2.82v-.32c0-1.333-.22-2.353-.66-3.06-.44-.72-1.253-1.08-2.44-1.08-.946 0-1.66.38-2.14 1.14-.466.747-.7 1.753-.7 3.02 0 1.28.234 2.273.7 2.98.48.707 1.2 1.06 2.16 1.06zm12.365-9.66c.92 0 1.707.2 2.36.6a3.85 3.85 0 011.52 1.7c.36.72.54 1.567.54 2.54v1.06h-7.34c.027 1.213.333 2.14.92 2.78.6.627 1.433.94 2.5.94.68 0 1.28-.06 1.8-.18.533-.133 1.08-.32 1.64-.56v1.54a7.87 7.87 0 01-1.62.52c-.533.12-1.167.18-1.9.18-1.013 0-1.913-.207-2.7-.62-.773-.413-1.38-1.027-1.82-1.84-.427-.827-.64-1.833-.64-3.02 0-1.173.193-2.18.58-3.02.4-.84.953-1.487 1.66-1.94.72-.453 1.553-.68 2.5-.68zm-.02 1.44c-.84 0-1.507.273-2 .82-.48.533-.767 1.28-.86 2.24h5.46c-.013-.907-.227-1.64-.64-2.2-.413-.573-1.067-.86-1.96-.86zm12.169-1.44c.2 0 .413.013.64.04.24.013.447.04.62.08l-.22 1.62a5.792 5.792 0 00-1.16-.14c-.547 0-1.06.153-1.54.46-.48.293-.867.713-1.16 1.26-.28.533-.42 1.16-.42 1.88V24h-1.76V13.28h1.44l.2 1.96h.08a5.398 5.398 0 011.34-1.52c.547-.427 1.193-.64 1.94-.64z" fill="#2B2B33"/></svg>