<svg width="48" height="48" fill="none" xmlns="http://www.w3.org/2000/svg"><path fill-rule="evenodd" clip-rule="evenodd" d="M24 35.477l7.814 4.293a1.845 1.845 0 002.015-.152 1.99 1.99 0 00.648-.864c.134-.346.174-.724.113-1.091l-1.492-9.095 6.324-6.44c.256-.26.437-.59.522-.953a2.086 2.086 0 00-.038-1.098 2.007 2.007 0 00-.587-.91 1.877 1.877 0 00-.96-.45l-8.736-1.328-3.908-8.275a1.97 1.97 0 00-.706-.813A1.853 1.853 0 0024 8v27.477zM24 8a1.86 1.86 0 00-1.011.3 1.97 1.97 0 00-.706.814l-3.908 8.275-8.737 1.328c-.353.053-.685.21-.957.45-.273.24-.477.555-.587.91a2.09 2.09 0 00-.039 1.096c.086.363.266.693.521.953l6.324 6.442-1.492 9.095c-.06.367-.02.745.114 1.09.134.345.359.645.647.864a1.845 1.845 0 002.014.154l7.816-4.294V8z" fill="#01DB55"/></svg>