<svg width="16" height="16" fill="none" xmlns="http://www.w3.org/2000/svg"><path fill-rule="evenodd" clip-rule="evenodd" d="M8 11.826l2.605 1.43a.614.614 0 00.671-.05.664.664 0 00.216-.288.696.696 0 00.038-.364l-.497-3.031 2.108-2.147a.696.696 0 00.161-.684.668.668 0 00-.196-.303.625.625 0 00-.32-.15l-2.912-.443-1.302-2.758a.657.657 0 00-.236-.271.618.618 0 00-.336-.1v9.159zm0-9.16a.618.618 0 00-.337.101.657.657 0 00-.235.271L6.125 5.796l-2.912.443a.625.625 0 00-.32.15.669.669 0 00-.195.303.695.695 0 00.16.683l2.109 2.148-.498 3.031a.695.695 0 00.038.364c.045.115.12.215.216.288a.621.621 0 00.671.05L8 11.827v-9.16z" fill="#E4E4E4"/><path fill-rule="evenodd" clip-rule="evenodd" d="M8 2.667a.618.618 0 00-.337.1.657.657 0 00-.235.271L6.125 5.796l-2.912.443a.625.625 0 00-.32.15.669.669 0 00-.195.303.695.695 0 00.16.683l2.109 2.148-.498 3.031a.695.695 0 00.038.364c.045.115.12.215.216.288a.621.621 0 00.671.05L8 11.827v-9.16z" fill="#01DB55"/></svg>